<?xml version="1.0" encoding="utf-8" standalone="no"?>
<!DOCTYPE svg PUBLIC "-//W3C//DTD SVG 1.1//EN"
  "http://www.w3.org/Graphics/SVG/1.1/DTD/svg11.dtd">
<svg xmlns:xlink="http://www.w3.org/1999/xlink" width="288pt" height="1728pt" viewBox="0 0 288 1728" xmlns="http://www.w3.org/2000/svg" version="1.1">
 <metadata>
  <rdf:RDF xmlns:dc="http://purl.org/dc/elements/1.1/" xmlns:cc="http://creativecommons.org/ns#" xmlns:rdf="http://www.w3.org/1999/02/22-rdf-syntax-ns#">
   <cc:Work>
    <dc:type rdf:resource="http://purl.org/dc/dcmitype/StillImage"/>
    <dc:date>2025-06-02T12:27:43.916612</dc:date>
    <dc:format>image/svg+xml</dc:format>
    <dc:creator>
     <cc:Agent>
      <dc:title>Matplotlib v3.7.5, https://matplotlib.org/</dc:title>
     </cc:Agent>
    </dc:creator>
   </cc:Work>
  </rdf:RDF>
 </metadata>
 <defs>
  <style type="text/css">*{stroke-linejoin: round; stroke-linecap: butt}</style>
 </defs>
 <g id="figure_1">
  <g id="patch_1">
   <path d="M 0 1728 
L 288 1728 
L 288 0 
L 0 0 
z
" style="fill: #ffffff"/>
  </g>
  <g id="axes_1">
   <g id="patch_2">
    <path d="M 91.185882 235.312941 
C 91.185882 229.788387 89.138645 224.45515 85.441996 220.349606 
C 81.745348 216.244062 76.655322 213.650565 71.161032 213.073092 
C 65.666741 212.495618 60.148726 213.974166 55.679268 217.221418 
C 51.20981 220.468669 48.098467 225.259717 46.949847 230.663547 
L 68.823529 235.312941 
z
" style="fill: #ffffd9"/>
   </g>
   <g id="patch_3">
    <path d="M 46.949847 230.663547 
C 46.949847 230.663547 46.949847 230.663547 46.949847 230.663547 
L 68.823529 235.312941 
z
" style="fill: #c6e9b4"/>
   </g>
   <g id="patch_4">
    <path d="M 46.949847 230.663547 
C 45.968144 235.282097 46.474002 240.095014 48.394504 244.40853 
C 50.315005 248.722046 53.553214 252.318442 57.642354 254.679307 
L 68.823529 235.312941 
z
" style="fill: #40b5c4"/>
   </g>
   <g id="patch_5">
    <path d="M 57.642354 254.679307 
C 57.642354 254.679307 57.642354 254.679307 57.642354 254.679307 
L 68.823529 235.312941 
z
" style="fill: #225da8"/>
   </g>
   <g id="patch_6">
    <path d="M 57.642354 254.679307 
C 61.041608 256.641868 64.89841 257.675294 68.82353 257.675294 
C 72.748651 257.675294 76.605453 256.641867 80.004707 254.679306 
C 83.403961 252.716746 86.227336 249.893371 88.189896 246.494116 
C 90.152456 243.094862 91.185883 239.23806 91.185882 235.312939 
L 68.823529 235.312941 
z
" style="fill: #081d58"/>
   </g>
   <g id="matplotlib.axis_1"/>
   <g id="matplotlib.axis_2"/>
   <g id="text_1">
    <!-- 1A -->
    <g transform="translate(60.901654 201.36) scale(0.12 -0.12)">
     <defs>
      <path id="DejaVuSans-31" d="M 794 531 
L 1825 531 
L 1825 4091 
L 703 3866 
L 703 4441 
L 1819 4666 
L 2450 4666 
L 2450 531 
L 3481 531 
L 3481 0 
L 794 0 
L 794 531 
z
" transform="scale(0.015625)"/>
      <path id="DejaVuSans-41" d="M 2188 4044 
L 1331 1722 
L 3047 1722 
L 2188 4044 
z
M 1831 4666 
L 2547 4666 
L 4325 0 
L 3669 0 
L 3244 1197 
L 1141 1197 
L 716 0 
L 50 0 
L 1831 4666 
z
" transform="scale(0.015625)"/>
     </defs>
     <use xlink:href="#DejaVuSans-31"/>
     <use xlink:href="#DejaVuSans-41" x="63.623047"/>
    </g>
   </g>
  </g>
  <g id="axes_2">
   <g id="patch_7">
    <path d="M 169.962353 235.312941 
C 169.962353 230.127236 168.158549 225.099595 164.861873 221.096662 
C 161.565197 217.09373 156.976619 214.359531 151.887101 213.365377 
L 147.6 235.312941 
z
" style="fill: #ffffd9"/>
   </g>
   <g id="patch_8">
    <path d="M 151.887101 213.365377 
C 151.887101 213.365377 151.887101 213.365377 151.887101 213.365377 
L 147.6 235.312941 
z
" style="fill: #c6e9b4"/>
   </g>
   <g id="patch_9">
    <path d="M 151.887101 213.365377 
C 146.589873 212.330649 141.093059 213.247905 136.418824 215.946575 
C 131.74459 218.645245 128.201815 222.946998 126.449301 228.051896 
L 147.6 235.312941 
z
" style="fill: #40b5c4"/>
   </g>
   <g id="patch_10">
    <path d="M 126.449301 228.051896 
C 126.449301 228.051896 126.449301 228.051896 126.449301 228.051896 
L 147.6 235.312941 
z
" style="fill: #225da8"/>
   </g>
   <g id="patch_11">
    <path d="M 126.449301 228.051896 
C 125.394678 231.123909 125.021894 234.389126 125.356951 237.619796 
C 125.692007 240.850466 126.72693 243.969688 128.389531 246.759894 
C 130.052133 249.5501 132.302838 251.944873 134.984657 253.777176 
C 137.666477 255.609479 140.715575 256.835697 143.919275 257.3703 
C 147.122975 257.904904 150.405017 257.735167 153.536476 256.872929 
C 156.667936 256.010691 159.574273 254.476477 162.052769 252.377299 
C 164.531265 250.27812 166.522923 247.663946 167.888823 244.717115 
C 169.254723 241.770285 169.962352 238.560944 169.962353 235.312945 
L 147.6 235.312941 
z
" style="fill: #081d58"/>
   </g>
   <g id="matplotlib.axis_3"/>
   <g id="matplotlib.axis_4"/>
   <g id="text_2">
    <!-- 1A -->
    <g transform="translate(139.678125 201.36) scale(0.12 -0.12)">
     <use xlink:href="#DejaVuSans-31"/>
     <use xlink:href="#DejaVuSans-41" x="63.623047"/>
    </g>
   </g>
  </g>
  <g id="axes_3">
   <g id="patch_12">
    <path d="M 248.738824 235.312941 
C 248.738824 230.990231 247.485434 226.75886 245.131118 223.133531 
C 242.776801 219.508201 239.421051 216.642119 235.472058 214.883915 
C 231.523066 213.125711 227.147717 212.549685 222.878227 213.225906 
C 218.608737 213.902127 214.625534 215.802017 211.413135 218.694475 
C 208.200736 221.586933 205.894895 225.349722 204.776096 229.52514 
C 203.657297 233.700557 203.772818 238.112148 205.10861 242.22329 
C 206.444401 246.334431 208.944011 249.971385 212.303387 252.691755 
C 215.662764 255.412124 219.739941 257.100945 224.03897 257.552791 
L 226.376471 235.312941 
z
" style="fill: #ffffd9"/>
   </g>
   <g id="patch_13">
    <path d="M 224.03897 257.552791 
C 224.03897 257.552791 224.03897 257.552791 224.03897 257.552791 
L 226.376471 235.312941 
z
" style="fill: #c6e9b4"/>
   </g>
   <g id="patch_14">
    <path d="M 224.03897 257.552791 
C 225.593022 257.716128 227.159923 257.716128 228.713975 257.552791 
C 230.268027 257.389453 231.800688 257.063676 233.28682 256.580802 
L 226.376471 235.312941 
z
" style="fill: #40b5c4"/>
   </g>
   <g id="patch_15">
    <path d="M 233.28682 256.580802 
C 233.28682 256.580802 233.28682 256.580802 233.28682 256.580802 
L 226.376471 235.312941 
z
" style="fill: #225da8"/>
   </g>
   <g id="patch_16">
    <path d="M 233.28682 256.580802 
C 237.777454 255.121706 241.692632 252.277161 244.467996 248.4572 
C 247.24336 244.637239 248.738824 240.03467 248.738824 235.312938 
L 226.376471 235.312941 
z
" style="fill: #081d58"/>
   </g>
   <g id="matplotlib.axis_5"/>
   <g id="matplotlib.axis_6"/>
   <g id="text_3">
    <!-- 1A -->
    <g transform="translate(218.454596 201.36) scale(0.12 -0.12)">
     <use xlink:href="#DejaVuSans-31"/>
     <use xlink:href="#DejaVuSans-41" x="63.623047"/>
    </g>
   </g>
  </g>
  <g id="axes_4">
   <g id="patch_17">
    <path d="M 91.185882 302.4 
C 91.185882 298.621796 90.22837 294.904503 88.403072 291.596466 
C 86.577774 288.288428 83.943545 285.496309 80.747236 283.481753 
L 68.823529 302.4 
z
" style="fill: #ffffd9"/>
   </g>
   <g id="patch_18">
    <path d="M 80.747236 283.481753 
C 80.747236 283.481753 80.747236 283.481753 80.747236 283.481753 
L 68.823529 302.4 
z
" style="fill: #c6e9b4"/>
   </g>
   <g id="patch_19">
    <path d="M 80.747236 283.481753 
C 78.046674 281.779655 75.012695 280.675377 71.849857 280.243372 
C 68.687019 279.811366 65.468035 280.061565 62.409936 280.9771 
L 68.823529 302.4 
z
" style="fill: #40b5c4"/>
   </g>
   <g id="patch_20">
    <path d="M 62.409936 280.9771 
C 62.409936 280.9771 62.409936 280.9771 62.409936 280.9771 
L 68.823529 302.4 
z
" style="fill: #225da8"/>
   </g>
   <g id="patch_21">
    <path d="M 62.409936 280.9771 
C 58.43827 282.166138 54.874426 284.436557 52.118292 287.533599 
C 49.362159 290.630641 47.520828 294.433967 46.800911 298.516816 
C 46.080994 302.599666 46.510464 306.803396 48.041131 310.656316 
C 49.571798 314.509237 52.144187 317.86164 55.469657 320.337361 
C 58.795126 322.813081 62.744462 324.315924 66.87452 324.677257 
C 71.004578 325.038591 75.154881 324.244376 78.859733 322.383729 
C 82.564586 320.523083 85.680034 317.668302 87.8565 314.139713 
C 90.032966 310.611125 91.185882 306.545836 91.185882 302.400002 
L 68.823529 302.4 
z
" style="fill: #081d58"/>
   </g>
   <g id="matplotlib.axis_7"/>
   <g id="matplotlib.axis_8"/>
   <g id="text_4">
    <!-- 2A -->
    <g transform="translate(60.901654 268.447059) scale(0.12 -0.12)">
     <defs>
      <path id="DejaVuSans-32" d="M 1228 531 
L 3431 531 
L 3431 0 
L 469 0 
L 469 531 
Q 828 903 1448 1529 
Q 2069 2156 2228 2338 
Q 2531 2678 2651 2914 
Q 2772 3150 2772 3378 
Q 2772 3750 2511 3984 
Q 2250 4219 1831 4219 
Q 1534 4219 1204 4116 
Q 875 4013 500 3803 
L 500 4441 
Q 881 4594 1212 4672 
Q 1544 4750 1819 4750 
Q 2544 4750 2975 4387 
Q 3406 4025 3406 3419 
Q 3406 3131 3298 2873 
Q 3191 2616 2906 2266 
Q 2828 2175 2409 1742 
Q 1991 1309 1228 531 
z
" transform="scale(0.015625)"/>
     </defs>
     <use xlink:href="#DejaVuSans-32"/>
     <use xlink:href="#DejaVuSans-41" x="63.623047"/>
    </g>
   </g>
  </g>
  <g id="axes_5">
   <g id="patch_22">
    <path d="M 169.962353 302.4 
C 169.962353 300.778921 169.786081 299.162637 169.436648 297.579666 
C 169.087215 295.996696 168.566688 294.456405 167.884252 292.98597 
L 147.6 302.4 
z
" style="fill: #ffffd9"/>
   </g>
   <g id="patch_23">
    <path d="M 167.884252 292.98597 
C 167.884252 292.98597 167.884252 292.98597 167.884252 292.98597 
L 147.6 302.4 
z
" style="fill: #c6e9b4"/>
   </g>
   <g id="patch_24">
    <path d="M 167.884252 292.98597 
C 166.460171 289.917527 164.358225 287.211845 161.737175 285.073284 
C 159.116125 282.934722 156.043665 281.418515 152.751859 280.639183 
L 147.6 302.4 
z
" style="fill: #40b5c4"/>
   </g>
   <g id="patch_25">
    <path d="M 152.751859 280.639183 
C 152.751859 280.639183 152.751859 280.639183 152.751859 280.639183 
L 147.6 302.4 
z
" style="fill: #225da8"/>
   </g>
   <g id="patch_26">
    <path d="M 152.751859 280.639183 
C 150.505655 280.107395 148.190594 279.926588 145.889063 280.103195 
C 143.587533 280.279802 141.327161 280.811703 139.188389 281.67997 
C 137.049617 282.548237 135.05812 283.742446 133.284769 285.220099 
C 131.511417 286.697753 129.977501 288.441111 128.737607 290.388133 
C 127.497713 292.335155 126.566725 294.462468 125.977776 296.694367 
C 125.388826 298.926265 125.148985 301.235957 125.266787 303.541245 
C 125.384589 305.846534 125.858621 308.119746 126.672012 310.279984 
C 127.485403 312.440222 128.628389 314.461553 130.060296 316.272044 
C 131.492202 318.082535 133.195838 319.660451 135.110577 320.94964 
C 137.025316 322.238829 139.128172 323.223813 141.344311 323.869541 
C 143.560449 324.515268 145.863266 324.813987 148.17081 324.755067 
C 150.478355 324.696146 152.762926 324.280294 154.943222 323.522309 
C 157.123518 322.764323 159.173366 321.673305 161.019817 320.288078 
C 162.866268 318.902852 164.487156 317.240048 165.824799 315.35884 
C 167.162442 313.477631 168.200782 311.400603 168.902867 309.201669 
C 169.604952 307.002735 169.962353 304.708293 169.962353 302.399997 
L 147.6 302.4 
z
" style="fill: #081d58"/>
   </g>
   <g id="matplotlib.axis_9"/>
   <g id="matplotlib.axis_10"/>
   <g id="text_5">
    <!-- 2A -->
    <g transform="translate(139.678125 268.447059) scale(0.12 -0.12)">
     <use xlink:href="#DejaVuSans-32"/>
     <use xlink:href="#DejaVuSans-41" x="63.623047"/>
    </g>
   </g>
  </g>
  <g id="axes_6">
   <g id="patch_27">
    <path d="M 248.738824 302.4 
C 248.738824 299.177139 248.042106 295.992043 246.696532 293.063516 
C 245.350959 290.13499 243.388064 287.531666 240.942692 285.432383 
L 226.376471 302.4 
z
" style="fill: #ffffd9"/>
   </g>
   <g id="patch_28">
    <path d="M 240.942692 285.432383 
C 240.942692 285.432383 240.942692 285.432383 240.942692 285.432383 
L 226.376471 302.4 
z
" style="fill: #c6e9b4"/>
   </g>
   <g id="patch_29">
    <path d="M 240.942692 285.432383 
C 238.786836 283.581642 236.297878 282.15862 233.609305 281.239638 
C 230.920732 280.320655 228.081484 279.92244 225.243836 280.066349 
L 226.376471 302.4 
z
" style="fill: #40b5c4"/>
   </g>
   <g id="patch_30">
    <path d="M 225.243836 280.066349 
C 225.243836 280.066349 225.243836 280.066349 225.243836 280.066349 
L 226.376471 302.4 
z
" style="fill: #225da8"/>
   </g>
   <g id="patch_31">
    <path d="M 225.243836 280.066349 
C 220.875337 280.287894 216.666366 281.786374 213.140707 284.375312 
C 209.615048 286.964249 206.925279 290.531603 205.406126 294.633438 
C 203.886974 298.735272 203.604182 303.194073 204.592942 307.454967 
C 205.581702 311.715862 207.799224 315.594453 210.96955 318.608072 
C 214.139876 321.621692 218.125804 323.63992 222.43131 324.4116 
C 226.736816 325.18328 231.17557 324.675016 235.195196 322.950059 
C 239.214822 321.225101 242.641363 318.358101 245.048405 314.705839 
C 247.455448 311.053578 248.738824 306.774112 248.738824 302.399999 
L 226.376471 302.4 
z
" style="fill: #081d58"/>
   </g>
   <g id="matplotlib.axis_11"/>
   <g id="matplotlib.axis_12"/>
   <g id="text_6">
    <!-- 2A -->
    <g transform="translate(218.454596 268.447059) scale(0.12 -0.12)">
     <use xlink:href="#DejaVuSans-32"/>
     <use xlink:href="#DejaVuSans-41" x="63.623047"/>
    </g>
   </g>
  </g>
  <g id="axes_7">
   <g id="patch_32">
    <path d="M 91.185882 369.487059 
C 91.185882 366.818899 90.708356 364.172149 89.77593 361.672217 
C 88.843504 359.172286 87.471141 356.859292 85.723868 354.842832 
L 68.823529 369.487059 
z
" style="fill: #ffffd9"/>
   </g>
   <g id="patch_33">
    <path d="M 85.723868 354.842832 
C 85.723868 354.842832 85.723868 354.842832 85.723868 354.842832 
L 68.823529 369.487059 
z
" style="fill: #c6e9b4"/>
   </g>
   <g id="patch_34">
    <path d="M 85.723868 354.842832 
C 83.27152 352.012672 80.147096 349.843345 76.63837 348.534658 
C 73.129645 347.225972 69.347756 346.819376 65.641035 347.352322 
L 68.823529 369.487059 
z
" style="fill: #40b5c4"/>
   </g>
   <g id="patch_35">
    <path d="M 65.641035 347.352322 
C 65.641035 347.352322 65.641035 347.352322 65.641035 347.352322 
L 68.823529 369.487059 
z
" style="fill: #225da8"/>
   </g>
   <g id="patch_36">
    <path d="M 65.641035 347.352322 
C 61.398157 347.962356 57.418829 349.779654 54.179302 352.58672 
C 50.939776 355.393786 48.574657 359.073982 47.367009 363.186857 
C 46.15936 367.299731 46.15936 371.674388 47.367009 375.787263 
C 48.574658 379.900137 50.939777 383.580333 54.179304 386.387399 
C 57.418831 389.194464 61.398159 391.011762 65.641037 391.621796 
C 69.883915 392.231829 74.214044 391.60925 78.113189 389.82857 
C 82.012334 388.047889 85.318478 385.183098 87.635939 381.577057 
C 89.9534 377.971017 91.185883 373.773564 91.185882 369.487056 
L 68.823529 369.487059 
z
" style="fill: #081d58"/>
   </g>
   <g id="matplotlib.axis_13"/>
   <g id="matplotlib.axis_14"/>
   <g id="text_7">
    <!-- 2B -->
    <g transform="translate(60.889467 335.534118) scale(0.12 -0.12)">
     <defs>
      <path id="DejaVuSans-42" d="M 1259 2228 
L 1259 519 
L 2272 519 
Q 2781 519 3026 730 
Q 3272 941 3272 1375 
Q 3272 1813 3026 2020 
Q 2781 2228 2272 2228 
L 1259 2228 
z
M 1259 4147 
L 1259 2741 
L 2194 2741 
Q 2656 2741 2882 2914 
Q 3109 3088 3109 3444 
Q 3109 3797 2882 3972 
Q 2656 4147 2194 4147 
L 1259 4147 
z
M 628 4666 
L 2241 4666 
Q 2963 4666 3353 4366 
Q 3744 4066 3744 3513 
Q 3744 3084 3544 2831 
Q 3344 2578 2956 2516 
Q 3422 2416 3680 2098 
Q 3938 1781 3938 1306 
Q 3938 681 3513 340 
Q 3088 0 2303 0 
L 628 0 
L 628 4666 
z
" transform="scale(0.015625)"/>
     </defs>
     <use xlink:href="#DejaVuSans-32"/>
     <use xlink:href="#DejaVuSans-42" x="63.623047"/>
    </g>
   </g>
  </g>
  <g id="axes_8">
   <g id="patch_37">
    <path d="M 169.962353 369.487059 
C 169.962353 368.185245 169.848676 366.885914 169.622619 365.603877 
C 169.396561 364.32184 169.058985 363.061989 168.613738 361.838684 
L 147.6 369.487059 
z
" style="fill: #ffffd9"/>
   </g>
   <g id="patch_38">
    <path d="M 168.613738 361.838684 
C 168.613738 361.838684 168.613738 361.838684 168.613738 361.838684 
L 147.6 369.487059 
z
" style="fill: #c6e9b4"/>
   </g>
   <g id="patch_39">
    <path d="M 168.613738 361.838684 
C 167.571914 358.976295 165.95614 356.356727 163.865786 354.141081 
C 161.775432 351.925435 159.254245 350.160081 156.457276 348.953586 
L 147.6 369.487059 
z
" style="fill: #40b5c4"/>
   </g>
   <g id="patch_40">
    <path d="M 156.457276 348.953586 
C 156.457276 348.953586 156.457276 348.953586 156.457276 348.953586 
L 147.6 369.487059 
z
" style="fill: #225da8"/>
   </g>
   <g id="patch_41">
    <path d="M 156.457276 348.953586 
C 154.262535 348.006868 151.930135 347.418123 149.549008 347.209801 
C 147.167881 347.00148 144.768681 347.176263 142.442887 347.727486 
C 140.117093 348.278709 137.894647 349.199276 135.860289 350.454087 
C 133.825931 351.708898 132.00585 353.281798 130.469444 355.112815 
C 128.933039 356.943832 127.700088 359.009393 126.817603 361.23074 
C 125.935118 363.452087 125.41446 365.800624 125.275481 368.186803 
C 125.136502 370.572981 125.380991 372.966083 125.999626 375.274861 
C 126.618261 377.583638 127.603078 379.77837 128.916526 381.775372 
C 130.229975 383.772374 131.855146 385.545937 133.730074 387.028438 
C 135.605002 388.510939 137.705549 389.683292 139.951624 390.500796 
C 142.197698 391.318301 144.560385 391.770432 146.949596 391.839951 
C 149.338807 391.90947 151.723786 391.595482 154.013594 390.909959 
C 156.303402 390.224435 158.468562 389.176202 160.426518 387.805227 
C 162.384473 386.434252 164.110019 384.758184 165.537361 382.840931 
C 166.964703 380.923678 168.075466 378.789922 168.827299 376.521021 
C 169.579131 374.25212 169.962353 371.877283 169.962353 369.48706 
L 147.6 369.487059 
z
" style="fill: #081d58"/>
   </g>
   <g id="matplotlib.axis_15"/>
   <g id="matplotlib.axis_16"/>
   <g id="text_8">
    <!-- 2B -->
    <g transform="translate(139.665938 335.534118) scale(0.12 -0.12)">
     <use xlink:href="#DejaVuSans-32"/>
     <use xlink:href="#DejaVuSans-42" x="63.623047"/>
    </g>
   </g>
  </g>
  <g id="axes_9">
   <g id="patch_42">
    <path d="M 248.738824 369.487059 
C 248.738824 369.487059 248.738824 369.487059 248.738824 369.487059 
L 226.376471 369.487059 
z
" style="fill: #ffffd9"/>
   </g>
   <g id="patch_43">
    <path d="M 248.738824 369.487059 
C 248.738824 369.487059 248.738824 369.487059 248.738824 369.487059 
L 226.376471 369.487059 
z
" style="fill: #c6e9b4"/>
   </g>
   <g id="patch_44">
    <path d="M 248.738824 369.487059 
C 248.738824 365.561938 247.705397 361.705136 245.742836 358.305882 
C 243.780276 354.906628 240.956901 352.083253 237.557646 350.120693 
C 234.158392 348.158132 230.30159 347.124706 226.37647 347.124706 
C 222.451349 347.124706 218.594547 348.158133 215.195293 350.120694 
L 226.376471 369.487059 
z
" style="fill: #40b5c4"/>
   </g>
   <g id="patch_45">
    <path d="M 215.195293 350.120694 
C 215.195293 350.120694 215.195293 350.120694 215.195293 350.120694 
L 226.376471 369.487059 
z
" style="fill: #225da8"/>
   </g>
   <g id="patch_46">
    <path d="M 215.195293 350.120694 
C 211.796039 352.083254 208.972664 354.906629 207.010104 358.305884 
C 205.047544 361.705138 204.014117 365.56194 204.014118 369.487061 
C 204.014118 373.412182 205.047545 377.268983 207.010106 380.668237 
C 208.972667 384.067491 211.796042 386.890866 215.195297 388.853426 
C 218.594551 390.815986 222.451353 391.849412 226.376474 391.849412 
C 230.301594 391.849411 234.158396 390.815984 237.55765 388.853423 
C 240.956904 386.890862 243.780278 384.067487 245.742838 380.668232 
C 247.705398 377.268977 248.738824 373.412175 248.738824 369.487055 
L 226.376471 369.487059 
z
" style="fill: #081d58"/>
   </g>
   <g id="matplotlib.axis_17"/>
   <g id="matplotlib.axis_18"/>
   <g id="text_9">
    <!-- 2B -->
    <g transform="translate(218.442408 335.534118) scale(0.12 -0.12)">
     <use xlink:href="#DejaVuSans-32"/>
     <use xlink:href="#DejaVuSans-42" x="63.623047"/>
    </g>
   </g>
  </g>
  <g id="axes_10">
   <g id="patch_47">
    <path d="M 91.185882 436.574118 
C 91.185882 433.717372 90.638467 430.886912 89.573311 428.236169 
C 88.508155 425.585427 86.944859 423.163181 84.968166 421.100736 
L 68.823529 436.574118 
z
" style="fill: #ffffd9"/>
   </g>
   <g id="patch_48">
    <path d="M 84.968166 421.100736 
C 84.968166 421.100736 84.968166 421.100736 84.968166 421.100736 
L 68.823529 436.574118 
z
" style="fill: #c6e9b4"/>
   </g>
   <g id="patch_49">
    <path d="M 84.968166 421.100736 
C 83.43257 419.498524 81.666985 418.133792 79.729535 417.051468 
C 77.792086 415.969143 75.704267 415.181235 73.534813 414.713682 
L 68.823529 436.574118 
z
" style="fill: #40b5c4"/>
   </g>
   <g id="patch_50">
    <path d="M 73.534813 414.713682 
C 73.225447 414.647009 72.914701 414.58691 72.602785 414.533427 
C 72.290868 414.479943 71.977851 414.433087 71.663946 414.39289 
L 68.823529 436.574118 
z
" style="fill: #225da8"/>
   </g>
   <g id="patch_51">
    <path d="M 71.663946 414.39289 
C 69.423199 414.105951 67.151854 414.160202 64.927362 414.553793 
C 62.70287 414.947383 60.550806 415.675789 58.544555 416.71417 
C 56.538304 417.752552 54.700932 419.088971 53.095093 420.677857 
C 51.489253 422.266743 50.133409 424.089828 49.073793 426.084945 
C 48.014177 428.080063 47.262973 430.224274 46.845795 432.444464 
C 46.428618 434.664654 46.350264 436.935295 46.613405 439.178961 
C 46.876546 441.422627 47.478157 443.613521 48.397723 445.676935 
C 49.31729 447.740349 50.544238 449.652559 52.036732 451.348361 
C 53.529225 453.044162 55.270103 454.504058 57.200003 455.678266 
C 59.129904 456.852474 61.226637 457.727494 63.418707 458.273489 
C 65.610776 458.819484 67.872979 459.030176 70.128175 458.898381 
C 72.383371 458.766586 74.605632 458.293818 76.71918 457.4962 
C 78.832727 456.698582 80.813262 455.585283 82.593249 454.194267 
C 84.373235 452.80325 85.932209 451.150509 87.217009 449.292401 
C 88.50181 447.434292 89.497665 445.392179 90.170618 443.235698 
C 90.84357 441.079216 91.185883 438.833158 91.185882 436.574114 
L 68.823529 436.574118 
z
" style="fill: #081d58"/>
   </g>
   <g id="matplotlib.axis_19"/>
   <g id="matplotlib.axis_20"/>
   <g id="text_10">
    <!-- 3A -->
    <g transform="translate(60.901654 402.621176) scale(0.12 -0.12)">
     <defs>
      <path id="DejaVuSans-33" d="M 2597 2516 
Q 3050 2419 3304 2112 
Q 3559 1806 3559 1356 
Q 3559 666 3084 287 
Q 2609 -91 1734 -91 
Q 1441 -91 1130 -33 
Q 819 25 488 141 
L 488 750 
Q 750 597 1062 519 
Q 1375 441 1716 441 
Q 2309 441 2620 675 
Q 2931 909 2931 1356 
Q 2931 1769 2642 2001 
Q 2353 2234 1838 2234 
L 1294 2234 
L 1294 2753 
L 1863 2753 
Q 2328 2753 2575 2939 
Q 2822 3125 2822 3475 
Q 2822 3834 2567 4026 
Q 2313 4219 1838 4219 
Q 1578 4219 1281 4162 
Q 984 4106 628 3988 
L 628 4550 
Q 988 4650 1302 4700 
Q 1616 4750 1894 4750 
Q 2613 4750 3031 4423 
Q 3450 4097 3450 3541 
Q 3450 3153 3228 2886 
Q 3006 2619 2597 2516 
z
" transform="scale(0.015625)"/>
     </defs>
     <use xlink:href="#DejaVuSans-33"/>
     <use xlink:href="#DejaVuSans-41" x="63.623047"/>
    </g>
   </g>
  </g>
  <g id="axes_11">
   <g id="patch_52">
    <path d="M 169.962353 436.574118 
C 169.962353 435.37349 169.865661 434.174809 169.673215 432.989705 
C 169.480769 431.804601 169.193193 430.636917 168.813278 429.497983 
L 147.6 436.574118 
z
" style="fill: #ffffd9"/>
   </g>
   <g id="patch_53">
    <path d="M 168.813278 429.497983 
C 168.813278 429.497983 168.813278 429.497983 168.813278 429.497983 
L 147.6 436.574118 
z
" style="fill: #c6e9b4"/>
   </g>
   <g id="patch_54">
    <path d="M 168.813278 429.497983 
C 168.341123 428.082529 167.728483 426.717878 166.984522 425.424447 
C 166.240561 424.131017 165.369008 422.915289 164.382903 421.795451 
L 147.6 436.574118 
z
" style="fill: #40b5c4"/>
   </g>
   <g id="patch_55">
    <path d="M 164.382903 421.795451 
C 163.974312 421.331448 163.546653 420.884589 163.10103 420.456026 
C 162.655408 420.027463 162.192203 419.617565 161.712612 419.227388 
L 147.6 436.574118 
z
" style="fill: #225da8"/>
   </g>
   <g id="patch_56">
    <path d="M 161.712612 419.227388 
C 159.75818 417.63734 157.549006 416.388971 155.17857 415.535104 
C 152.808134 414.681237 150.310348 414.234089 147.790905 414.21258 
C 145.271461 414.191071 142.766406 414.595509 140.381737 415.40878 
C 137.997068 416.222052 135.766902 417.432522 133.785608 418.98897 
C 131.804314 420.545418 130.100237 422.425577 128.745484 424.549889 
C 127.390731 426.674201 126.404684 429.012274 125.829067 431.465175 
C 125.253449 433.918075 125.096497 436.450711 125.36485 438.955914 
C 125.633204 441.461117 126.323025 443.903047 127.405123 446.178376 
C 128.487221 448.453704 129.946116 450.529879 131.720076 452.319048 
C 133.494035 454.108217 135.557679 455.584783 137.823687 456.686266 
C 140.089694 457.78775 142.525647 458.498392 145.028468 458.788123 
C 147.531289 459.077854 150.065171 458.942529 152.522897 458.387873 
C 154.980622 457.833217 157.327028 456.867166 159.462828 455.530598 
C 161.598628 454.19403 163.493266 452.506066 165.066572 450.538132 
C 166.639878 448.570197 167.869343 446.350447 168.702943 443.972808 
C 169.536543 441.595169 169.962352 439.093657 169.962353 436.574122 
L 147.6 436.574118 
z
" style="fill: #081d58"/>
   </g>
   <g id="matplotlib.axis_21"/>
   <g id="matplotlib.axis_22"/>
   <g id="text_11">
    <!-- 3A -->
    <g transform="translate(139.678125 402.621176) scale(0.12 -0.12)">
     <use xlink:href="#DejaVuSans-33"/>
     <use xlink:href="#DejaVuSans-41" x="63.623047"/>
    </g>
   </g>
  </g>
  <g id="axes_12">
   <g id="patch_57">
    <path d="M 248.738824 436.574118 
C 248.738824 434.676487 248.497279 432.786551 248.020019 430.949917 
C 247.542759 429.113283 246.833654 427.344846 245.909816 425.68728 
L 226.376471 436.574118 
z
" style="fill: #ffffd9"/>
   </g>
   <g id="patch_58">
    <path d="M 245.909816 425.68728 
C 245.909816 425.68728 245.909816 425.68728 245.909816 425.68728 
L 226.376471 436.574118 
z
" style="fill: #c6e9b4"/>
   </g>
   <g id="patch_59">
    <path d="M 245.909816 425.68728 
C 244.985978 424.029714 243.854899 422.496462 242.543873 421.124525 
C 241.232848 419.752587 239.752507 418.553089 238.138576 417.554977 
L 226.376471 436.574118 
z
" style="fill: #40b5c4"/>
   </g>
   <g id="patch_60">
    <path d="M 238.138576 417.554977 
C 237.793177 417.34137 237.442023 417.137212 237.085505 416.942729 
C 236.728987 416.748246 236.367237 416.563512 236.000658 416.388731 
L 226.376471 436.574118 
z
" style="fill: #225da8"/>
   </g>
   <g id="patch_61">
    <path d="M 236.000658 416.388731 
C 233.827182 415.352439 231.500529 414.673963 229.110713 414.379552 
C 226.720898 414.08514 224.299142 414.17864 221.939139 414.656433 
C 219.579137 415.134225 217.311721 415.990069 215.224614 417.190853 
C 213.137508 418.391637 211.257978 419.921674 209.65874 421.721767 
C 208.059503 423.52186 206.761452 425.568494 205.814806 427.782485 
C 204.868161 429.996477 204.28529 432.348902 204.088742 434.748749 
C 203.892194 437.148596 204.084538 439.564512 204.658332 441.903028 
C 205.232126 444.241544 206.179874 446.472108 207.464909 448.508424 
C 208.749944 450.54474 210.355477 452.360203 212.219393 453.884577 
C 214.083309 455.40895 216.181256 456.622318 218.432068 457.477737 
C 220.68288 458.333156 223.057151 458.819451 225.463024 458.917807 
C 227.868896 459.016163 230.274939 458.725295 232.588065 458.056458 
C 234.901191 457.38762 237.091181 456.34955 239.073306 454.982409 
C 241.055432 453.615268 242.803798 451.936918 244.250763 450.012291 
C 245.697728 448.087664 246.824387 445.941904 247.587152 443.658029 
C 248.349918 441.374154 248.738823 438.982001 248.738824 436.574119 
L 226.376471 436.574118 
z
" style="fill: #081d58"/>
   </g>
   <g id="matplotlib.axis_23"/>
   <g id="matplotlib.axis_24"/>
   <g id="text_12">
    <!-- 3A -->
    <g transform="translate(218.454596 402.621176) scale(0.12 -0.12)">
     <use xlink:href="#DejaVuSans-33"/>
     <use xlink:href="#DejaVuSans-41" x="63.623047"/>
    </g>
   </g>
  </g>
  <g id="axes_13">
   <g id="patch_62">
    <path d="M 91.185882 503.661176 
C 91.185882 499.631559 90.096698 495.675881 88.033997 492.214222 
C 85.971296 488.752563 83.010775 485.91196 79.466833 483.994074 
C 75.92289 482.076188 71.92558 481.151402 67.899405 481.317926 
C 63.87323 481.48445 59.965941 482.736173 56.592481 484.940165 
L 68.823529 503.661176 
z
" style="fill: #ffffd9"/>
   </g>
   <g id="patch_63">
    <path d="M 56.592481 484.940165 
C 56.592481 484.940165 56.592481 484.940165 56.592481 484.940165 
L 68.823529 503.661176 
z
" style="fill: #c6e9b4"/>
   </g>
   <g id="patch_64">
    <path d="M 56.592481 484.940165 
C 56.076497 485.277274 55.574671 485.635571 55.088287 486.014138 
C 54.601904 486.392706 54.131379 486.79122 53.677919 487.208659 
L 68.823529 503.661176 
z
" style="fill: #40b5c4"/>
   </g>
   <g id="patch_65">
    <path d="M 53.677919 487.208659 
C 53.564569 487.313005 53.452301 487.41852 53.341131 487.525186 
C 53.229962 487.631852 53.119898 487.739665 53.010957 487.848606 
L 68.823529 503.661176 
z
" style="fill: #225da8"/>
   </g>
   <g id="patch_66">
    <path d="M 53.010957 487.848606 
C 50.410714 490.448849 48.491555 493.650772 47.424092 497.169729 
C 46.356628 500.688685 46.173457 504.417215 46.890863 508.023856 
C 47.608269 511.630497 49.204343 515.005113 51.537197 517.847704 
C 53.870052 520.690295 56.868446 522.914055 60.265828 524.321297 
C 63.66321 525.728539 67.355832 526.276287 71.015424 525.915848 
C 74.675017 525.55541 78.189825 524.297791 81.247388 522.254793 
C 84.304951 520.211794 86.811897 517.445805 88.545364 514.202716 
C 90.278831 510.959627 91.185883 507.338475 91.185882 503.661176 
L 68.823529 503.661176 
z
" style="fill: #081d58"/>
   </g>
   <g id="matplotlib.axis_25"/>
   <g id="matplotlib.axis_26"/>
   <g id="text_13">
    <!-- 3B -->
    <g transform="translate(60.889467 469.708235) scale(0.12 -0.12)">
     <use xlink:href="#DejaVuSans-33"/>
     <use xlink:href="#DejaVuSans-42" x="63.623047"/>
    </g>
   </g>
  </g>
  <g id="axes_14">
   <g id="patch_67">
    <path d="M 169.962353 503.661176 
C 169.962353 501.043331 169.502666 498.445704 168.604271 495.986842 
C 167.705876 493.52798 166.382651 491.245864 164.694981 489.244643 
L 147.6 503.661176 
z
" style="fill: #ffffd9"/>
   </g>
   <g id="patch_68">
    <path d="M 164.694981 489.244643 
C 164.694981 489.244643 164.694981 489.244643 164.694981 489.244643 
L 147.6 503.661176 
z
" style="fill: #c6e9b4"/>
   </g>
   <g id="patch_69">
    <path d="M 164.694981 489.244643 
C 164.507933 489.022843 164.316586 488.804705 164.121049 488.590352 
C 163.925512 488.375999 163.725822 488.165472 163.522092 487.95889 
L 147.6 503.661176 
z
" style="fill: #40b5c4"/>
   </g>
   <g id="patch_70">
    <path d="M 163.522092 487.95889 
C 163.492989 487.929379 163.463804 487.899949 163.434537 487.870601 
C 163.40527 487.841252 163.375921 487.811985 163.346491 487.7828 
L 147.6 503.661176 
z
" style="fill: #225da8"/>
   </g>
   <g id="patch_71">
    <path d="M 163.346491 487.7828 
C 161.524754 485.976194 159.40562 484.496503 157.08203 483.408623 
C 154.75844 482.320743 152.264867 481.640813 149.710672 481.398654 
C 147.156477 481.156495 144.579554 481.3557 142.092922 481.987531 
C 139.606289 482.619362 137.246837 483.674446 135.118047 485.106509 
C 132.989257 486.538572 131.122711 488.326369 129.60027 490.391491 
C 128.07783 492.456613 126.922082 494.768422 126.183715 497.225527 
C 125.445349 499.682633 125.135318 502.248582 125.267219 504.810837 
C 125.39912 507.373093 125.970998 509.893643 126.957769 512.26194 
C 127.944541 514.630238 129.331568 516.811149 131.058018 518.709022 
C 132.784468 520.606895 134.824728 522.193575 137.089316 523.399473 
C 139.353905 524.605371 141.809226 525.412597 144.347594 525.785748 
C 146.885962 526.158899 149.469718 526.092439 151.985545 525.589282 
C 154.501372 525.086126 156.911946 524.153737 159.111544 522.83301 
C 161.311142 521.512282 163.267131 519.82281 164.893727 517.838688 
C 166.520323 515.854566 167.793394 513.605232 168.657105 511.189335 
C 169.520816 508.773439 169.962353 506.226822 169.962353 503.661173 
L 147.6 503.661176 
z
" style="fill: #081d58"/>
   </g>
   <g id="matplotlib.axis_27"/>
   <g id="matplotlib.axis_28"/>
   <g id="text_14">
    <!-- 3B -->
    <g transform="translate(139.665938 469.708235) scale(0.12 -0.12)">
     <use xlink:href="#DejaVuSans-33"/>
     <use xlink:href="#DejaVuSans-42" x="63.623047"/>
    </g>
   </g>
  </g>
  <g id="axes_15">
   <g id="patch_72">
    <path d="M 248.738824 503.661176 
C 248.738824 502.760218 248.684375 501.860082 248.575777 500.965693 
C 248.467178 500.071303 248.304628 499.184293 248.089014 498.309515 
L 226.376471 503.661176 
z
" style="fill: #ffffd9"/>
   </g>
   <g id="patch_73">
    <path d="M 248.089014 498.309515 
C 248.089014 498.309515 248.089014 498.309515 248.089014 498.309515 
L 226.376471 503.661176 
z
" style="fill: #c6e9b4"/>
   </g>
   <g id="patch_74">
    <path d="M 248.089014 498.309515 
C 248.089014 498.309515 248.089014 498.309515 248.089014 498.309515 
L 226.376471 503.661176 
z
" style="fill: #40b5c4"/>
   </g>
   <g id="patch_75">
    <path d="M 248.089014 498.309515 
C 248.089014 498.309515 248.089014 498.309515 248.089014 498.309515 
L 226.376471 503.661176 
z
" style="fill: #225da8"/>
   </g>
   <g id="patch_76">
    <path d="M 248.089014 498.309515 
C 247.413432 495.568572 246.224904 492.98018 244.586367 490.681403 
C 242.947829 488.382627 240.888724 486.414771 238.518088 484.88204 
C 236.147451 483.349309 233.507881 482.279245 230.73915 481.72851 
C 227.970419 481.177775 225.122278 481.156266 222.345545 481.665121 
C 219.568812 482.173976 216.91338 483.204052 214.519865 484.700804 
C 212.12635 486.197555 210.037759 488.134087 208.364689 490.407854 
C 206.691619 492.681621 205.464133 495.251768 204.747231 497.982194 
C 204.030329 500.712621 203.836893 503.554268 204.177164 506.356659 
C 204.517436 509.159049 205.385302 511.87183 206.734805 514.35135 
C 208.084309 516.83087 209.891202 519.032576 212.059803 520.83988 
C 214.228405 522.647185 216.719748 524.027612 219.401908 524.908066 
C 222.084067 525.788519 224.90885 526.153177 227.726673 525.982731 
C 230.544496 525.812284 233.304728 525.109795 235.861206 523.912464 
C 238.417683 522.715132 240.72447 521.044471 242.659413 518.988949 
C 244.594357 516.933426 246.12269 514.529977 247.163482 511.905871 
C 248.204274 509.281765 248.738823 506.484154 248.738824 503.66118 
L 226.376471 503.661176 
z
" style="fill: #081d58"/>
   </g>
   <g id="matplotlib.axis_29"/>
   <g id="matplotlib.axis_30"/>
   <g id="text_15">
    <!-- 3B -->
    <g transform="translate(218.442408 469.708235) scale(0.12 -0.12)">
     <use xlink:href="#DejaVuSans-33"/>
     <use xlink:href="#DejaVuSans-42" x="63.623047"/>
    </g>
   </g>
  </g>
  <g id="axes_16">
   <g id="patch_77">
    <path d="M 91.185882 570.748235 
C 91.185882 566.325909 89.874059 562.001408 87.417146 558.324378 
C 84.960234 554.647348 81.466928 551.780466 77.381231 550.088115 
C 73.295535 548.395764 68.798203 547.952816 64.460851 548.815569 
C 60.123498 549.678322 56.138015 551.808607 53.010958 554.935664 
L 68.823529 570.748235 
z
" style="fill: #ffffd9"/>
   </g>
   <g id="patch_78">
    <path d="M 53.010958 554.935664 
C 53.010958 554.935664 53.010958 554.935664 53.010958 554.935664 
L 68.823529 570.748235 
z
" style="fill: #c6e9b4"/>
   </g>
   <g id="patch_79">
    <path d="M 53.010958 554.935664 
C 53.010958 554.935664 53.010958 554.935664 53.010958 554.935664 
L 68.823529 570.748235 
z
" style="fill: #40b5c4"/>
   </g>
   <g id="patch_80">
    <path d="M 53.010958 554.935664 
C 53.010958 554.935664 53.010958 554.935664 53.010958 554.935664 
L 68.823529 570.748235 
z
" style="fill: #225da8"/>
   </g>
   <g id="patch_81">
    <path d="M 53.010958 554.935664 
C 50.410714 557.535907 48.491556 560.73783 47.424092 564.256787 
C 46.356628 567.775743 46.173457 571.504272 46.890863 575.110914 
C 47.608268 578.717555 49.204343 582.092171 51.537197 584.934762 
C 53.870051 587.777353 56.868445 590.001114 60.265827 591.408355 
C 63.663209 592.815597 67.355831 593.363346 71.015423 593.002907 
C 74.675016 592.642469 78.189824 591.384851 81.247387 589.341852 
C 84.30495 587.298854 86.811897 584.532864 88.545364 581.289775 
C 90.278831 578.046687 91.185882 574.425535 91.185882 570.748235 
L 68.823529 570.748235 
z
" style="fill: #081d58"/>
   </g>
   <g id="matplotlib.axis_31"/>
   <g id="matplotlib.axis_32"/>
   <g id="text_16">
    <!-- 3C -->
    <g transform="translate(60.816342 536.795294) scale(0.12 -0.12)">
     <defs>
      <path id="DejaVuSans-43" d="M 4122 4306 
L 4122 3641 
Q 3803 3938 3442 4084 
Q 3081 4231 2675 4231 
Q 1875 4231 1450 3742 
Q 1025 3253 1025 2328 
Q 1025 1406 1450 917 
Q 1875 428 2675 428 
Q 3081 428 3442 575 
Q 3803 722 4122 1019 
L 4122 359 
Q 3791 134 3420 21 
Q 3050 -91 2638 -91 
Q 1578 -91 968 557 
Q 359 1206 359 2328 
Q 359 3453 968 4101 
Q 1578 4750 2638 4750 
Q 3056 4750 3426 4639 
Q 3797 4528 4122 4306 
z
" transform="scale(0.015625)"/>
     </defs>
     <use xlink:href="#DejaVuSans-33"/>
     <use xlink:href="#DejaVuSans-43" x="63.623047"/>
    </g>
   </g>
  </g>
  <g id="axes_17">
   <g id="patch_82">
    <path d="M 169.962353 570.748235 
C 169.962353 567.203134 169.119346 563.708327 167.503111 560.553089 
C 165.886875 557.397851 163.54327 554.671708 160.666281 552.600312 
L 147.6 570.748235 
z
" style="fill: #ffffd9"/>
   </g>
   <g id="patch_83">
    <path d="M 160.666281 552.600312 
C 160.666281 552.600312 160.666281 552.600312 160.666281 552.600312 
L 147.6 570.748235 
z
" style="fill: #c6e9b4"/>
   </g>
   <g id="patch_84">
    <path d="M 160.666281 552.600312 
C 160.666281 552.600312 160.666281 552.600312 160.666281 552.600312 
L 147.6 570.748235 
z
" style="fill: #40b5c4"/>
   </g>
   <g id="patch_85">
    <path d="M 160.666281 552.600312 
C 160.536112 552.506592 160.404939 552.414275 160.272784 552.323378 
C 160.140629 552.23248 160.0075 552.143007 159.873419 552.054974 
L 147.6 570.748235 
z
" style="fill: #225da8"/>
   </g>
   <g id="patch_86">
    <path d="M 159.873419 552.054974 
C 157.807265 550.698401 155.530422 549.693722 153.135652 549.08187 
C 150.740883 548.470018 148.261157 548.259416 145.797503 548.458645 
C 143.333849 548.657874 140.920184 549.264191 138.654847 550.252893 
C 136.38951 551.241595 134.303688 552.59907 132.482361 554.270013 
C 130.661033 555.940956 129.129276 557.902362 127.949495 560.07432 
C 126.769714 562.246278 125.958152 564.598885 125.547873 567.036292 
C 125.137594 569.4737 125.134247 571.962351 125.537969 574.400853 
C 125.94169 576.839355 126.746922 579.194137 127.920857 581.36926 
C 129.094792 583.544383 130.621269 585.509902 132.438095 587.185737 
C 134.254922 588.861573 136.337085 590.224654 138.599755 591.219445 
C 140.862425 592.214236 143.274449 592.827042 145.737559 593.032897 
C 148.200668 593.238751 150.680952 593.03482 153.077358 592.429411 
C 155.473765 591.824002 157.753302 590.825451 159.823097 589.47444 
C 161.892893 588.123428 163.72445 586.438558 165.24315 584.488471 
C 166.761849 582.538385 167.946782 580.349932 168.749671 578.012272 
C 169.552561 575.674612 169.962353 573.21993 169.962353 570.748234 
L 147.6 570.748235 
z
" style="fill: #081d58"/>
   </g>
   <g id="matplotlib.axis_33"/>
   <g id="matplotlib.axis_34"/>
   <g id="text_17">
    <!-- 3C -->
    <g transform="translate(139.592813 536.795294) scale(0.12 -0.12)">
     <use xlink:href="#DejaVuSans-33"/>
     <use xlink:href="#DejaVuSans-43" x="63.623047"/>
    </g>
   </g>
  </g>
  <g id="axes_18">
   <g id="patch_87">
    <path d="M 248.738824 570.748235 
C 248.738824 564.819645 246.381188 559.12781 242.189042 554.935664 
C 237.996896 550.743518 232.305061 548.385882 226.376471 548.385882 
C 220.44788 548.385882 214.756045 550.743518 210.563899 554.935664 
C 206.371753 559.12781 204.014118 564.819645 204.014118 570.748235 
L 226.376471 570.748235 
z
" style="fill: #ffffd9"/>
   </g>
   <g id="patch_88">
    <path d="M 204.014118 570.748235 
C 204.014118 570.748235 204.014118 570.748235 204.014118 570.748235 
L 226.376471 570.748235 
z
" style="fill: #c6e9b4"/>
   </g>
   <g id="patch_89">
    <path d="M 204.014118 570.748235 
C 204.014118 570.748235 204.014118 570.748235 204.014118 570.748235 
L 226.376471 570.748235 
z
" style="fill: #40b5c4"/>
   </g>
   <g id="patch_90">
    <path d="M 204.014118 570.748235 
C 204.014118 570.748235 204.014118 570.748235 204.014118 570.748235 
L 226.376471 570.748235 
z
" style="fill: #225da8"/>
   </g>
   <g id="patch_91">
    <path d="M 204.014118 570.748235 
C 204.014118 576.676825 206.371753 582.36866 210.563899 586.560807 
C 214.756045 590.752953 220.44788 593.110588 226.376471 593.110588 
C 232.305061 593.110588 237.996896 590.752953 242.189042 586.560807 
C 246.381188 582.36866 248.738824 576.676825 248.738824 570.748235 
L 226.376471 570.748235 
z
" style="fill: #081d58"/>
   </g>
   <g id="matplotlib.axis_35"/>
   <g id="matplotlib.axis_36"/>
   <g id="text_18">
    <!-- 3C -->
    <g transform="translate(218.369283 536.795294) scale(0.12 -0.12)">
     <use xlink:href="#DejaVuSans-33"/>
     <use xlink:href="#DejaVuSans-43" x="63.623047"/>
    </g>
   </g>
  </g>
  <g id="axes_19">
   <g id="patch_92">
    <path d="M 91.185882 637.835294 
C 91.185882 634.645177 90.50325 631.491683 89.183949 628.587152 
C 87.864649 625.682622 85.938973 623.093745 83.536587 620.994844 
C 81.1342 618.895942 78.310263 617.335207 75.254926 616.417732 
C 72.199588 615.500257 68.983002 615.247106 65.821756 615.675326 
C 62.66051 616.103546 59.627188 617.203305 56.926038 618.90055 
C 54.224889 620.597795 51.917932 622.853557 50.160506 625.515944 
C 48.403081 628.178331 47.235537 631.186213 46.736494 634.337055 
C 46.23745 637.487896 46.418363 640.709353 47.267053 643.784508 
L 68.823529 637.835294 
z
" style="fill: #ffffd9"/>
   </g>
   <g id="patch_93">
    <path d="M 47.267053 643.784508 
C 47.267053 643.784508 47.267053 643.784508 47.267053 643.784508 
L 68.823529 637.835294 
z
" style="fill: #c6e9b4"/>
   </g>
   <g id="patch_94">
    <path d="M 47.267053 643.784508 
C 47.364149 644.136326 47.469843 644.485715 47.58404 644.83236 
C 47.698238 645.179005 47.820904 645.522802 47.95193 645.863443 
L 68.823529 637.835294 
z
" style="fill: #40b5c4"/>
   </g>
   <g id="patch_95">
    <path d="M 47.95193 645.863443 
C 48.564017 647.454747 49.356088 648.970843 50.312693 650.382156 
C 51.269297 651.79347 52.384175 653.090764 53.635577 654.248732 
L 68.823529 637.835294 
z
" style="fill: #225da8"/>
   </g>
   <g id="patch_96">
    <path d="M 53.635577 654.248732 
C 56.827329 657.202176 60.812313 659.16146 65.100188 659.8855 
C 69.388064 660.609539 73.795438 660.067367 77.779994 658.325696 
C 81.764551 656.584025 85.15587 653.717346 87.53666 650.078398 
C 89.917449 646.439449 91.185883 642.183868 91.185882 637.835292 
L 68.823529 637.835294 
z
" style="fill: #081d58"/>
   </g>
   <g id="matplotlib.axis_37"/>
   <g id="matplotlib.axis_38"/>
   <g id="text_19">
    <!-- 4A -->
    <g transform="translate(60.901654 603.882353) scale(0.12 -0.12)">
     <defs>
      <path id="DejaVuSans-34" d="M 2419 4116 
L 825 1625 
L 2419 1625 
L 2419 4116 
z
M 2253 4666 
L 3047 4666 
L 3047 1625 
L 3713 1625 
L 3713 1100 
L 3047 1100 
L 3047 0 
L 2419 0 
L 2419 1100 
L 313 1100 
L 313 1709 
L 2253 4666 
z
" transform="scale(0.015625)"/>
     </defs>
     <use xlink:href="#DejaVuSans-34"/>
     <use xlink:href="#DejaVuSans-41" x="63.623047"/>
    </g>
   </g>
  </g>
  <g id="axes_20">
   <g id="patch_97">
    <path d="M 169.962353 637.835294 
C 169.962353 634.72513 169.313509 631.6489 168.057389 628.803679 
C 166.801269 625.958458 164.965282 623.406332 162.66705 621.310802 
L 147.6 637.835294 
z
" style="fill: #ffffd9"/>
   </g>
   <g id="patch_98">
    <path d="M 162.66705 621.310802 
C 162.66705 621.310802 162.66705 621.310802 162.66705 621.310802 
L 147.6 637.835294 
z
" style="fill: #c6e9b4"/>
   </g>
   <g id="patch_99">
    <path d="M 162.66705 621.310802 
C 162.297657 620.97399 161.917075 620.649658 161.525945 620.338355 
C 161.134814 620.027051 160.733355 619.72895 160.322244 619.444554 
L 147.6 637.835294 
z
" style="fill: #40b5c4"/>
   </g>
   <g id="patch_100">
    <path d="M 160.322244 619.444554 
C 156.36328 616.705843 151.623854 615.31736 146.812906 615.486797 
C 142.001957 615.656235 137.371955 617.374701 133.615471 620.385143 
L 147.6 637.835294 
z
" style="fill: #225da8"/>
   </g>
   <g id="patch_101">
    <path d="M 133.615471 620.385143 
C 130.664879 622.749744 128.361665 625.824522 126.921993 629.320903 
C 125.482321 632.817283 124.952684 636.622351 125.38279 640.378991 
C 125.812895 644.13563 127.188854 647.722522 129.381528 650.803028 
C 131.574202 653.883533 134.51278 656.358168 137.921469 657.994681 
C 141.330157 659.631194 145.098874 660.376734 148.873915 660.161332 
C 152.648956 659.94593 156.308407 658.776541 159.50882 656.762915 
C 162.709233 654.749289 165.347252 651.956456 167.17529 648.646531 
C 169.003329 645.336605 169.962352 641.61648 169.962353 637.835299 
L 147.6 637.835294 
z
" style="fill: #081d58"/>
   </g>
   <g id="matplotlib.axis_39"/>
   <g id="matplotlib.axis_40"/>
   <g id="text_20">
    <!-- 4A -->
    <g transform="translate(139.678125 603.882353) scale(0.12 -0.12)">
     <use xlink:href="#DejaVuSans-34"/>
     <use xlink:href="#DejaVuSans-41" x="63.623047"/>
    </g>
   </g>
  </g>
  <g id="axes_21">
   <g id="patch_102">
    <path d="M 248.738824 637.835294 
C 248.738824 635.783016 248.456306 633.740473 247.899234 631.765247 
C 247.342163 629.790021 246.515823 627.900852 245.443511 626.150997 
L 226.376471 637.835294 
z
" style="fill: #ffffd9"/>
   </g>
   <g id="patch_103">
    <path d="M 245.443511 626.150997 
C 245.443511 626.150997 245.443511 626.150997 245.443511 626.150997 
L 226.376471 637.835294 
z
" style="fill: #c6e9b4"/>
   </g>
   <g id="patch_104">
    <path d="M 245.443511 626.150997 
C 244.923298 625.302086 244.346971 624.488864 243.71838 623.71676 
C 243.089789 622.944656 242.410335 622.215393 241.684555 621.53384 
L 226.376471 637.835294 
z
" style="fill: #40b5c4"/>
   </g>
   <g id="patch_105">
    <path d="M 241.684555 621.53384 
C 239.802103 619.7661 237.627596 618.337716 235.257632 617.312141 
C 232.887668 616.286566 230.357869 615.679215 227.780615 615.517068 
L 226.376471 637.835294 
z
" style="fill: #225da8"/>
   </g>
   <g id="patch_106">
    <path d="M 227.780615 615.517068 
C 225.556201 615.37712 223.323312 615.570509 221.156083 616.090815 
C 218.988854 616.61112 216.911539 617.45252 214.993107 618.587077 
C 213.074676 619.721634 211.336597 621.136652 209.836579 622.78515 
C 208.336561 624.433649 207.091391 626.297178 206.142409 628.313867 
C 205.193427 630.330556 204.551255 632.477834 204.237212 634.68441 
C 203.92317 636.890986 203.940772 639.132165 204.289435 641.333536 
C 204.638098 643.534907 205.313919 645.671834 206.294461 647.673368 
C 207.275002 649.674902 208.54929 651.518644 210.075016 653.143377 
C 211.600742 654.768111 213.360832 656.155654 215.296848 657.259938 
C 217.232864 658.364222 219.323139 659.172889 221.498273 659.659089 
C 223.673408 660.145289 225.909059 660.303582 228.130999 660.128711 
C 230.35294 659.953841 232.536304 659.447765 234.608601 658.627285 
C 236.680897 657.806804 238.618934 656.681103 240.358367 655.287555 
C 242.097799 653.894007 243.61916 652.248209 244.871938 650.404802 
C 246.124715 648.561396 247.09489 646.541011 247.750251 644.410729 
C 248.405611 642.280447 248.738823 640.064107 248.738824 637.835296 
L 226.376471 637.835294 
z
" style="fill: #081d58"/>
   </g>
   <g id="matplotlib.axis_41"/>
   <g id="matplotlib.axis_42"/>
   <g id="text_21">
    <!-- 4A -->
    <g transform="translate(218.454596 603.882353) scale(0.12 -0.12)">
     <use xlink:href="#DejaVuSans-34"/>
     <use xlink:href="#DejaVuSans-41" x="63.623047"/>
    </g>
   </g>
  </g>
  <g id="axes_22">
   <g id="patch_107">
    <path d="M 91.185882 704.922353 
C 91.185882 704.922353 91.185882 704.922353 91.185882 704.922353 
L 68.823529 704.922353 
z
" style="fill: #ffffd9"/>
   </g>
   <g id="patch_108">
    <path d="M 91.185882 704.922353 
C 91.185882 704.922353 91.185882 704.922353 91.185882 704.922353 
L 68.823529 704.922353 
z
" style="fill: #c6e9b4"/>
   </g>
   <g id="patch_109">
    <path d="M 91.185882 704.922353 
C 91.185882 704.922353 91.185882 704.922353 91.185882 704.922353 
L 68.823529 704.922353 
z
" style="fill: #40b5c4"/>
   </g>
   <g id="patch_110">
    <path d="M 91.185882 704.922353 
C 91.185882 704.922353 91.185882 704.922353 91.185882 704.922353 
L 68.823529 704.922353 
z
" style="fill: #225da8"/>
   </g>
   <g id="patch_111">
    <path d="M 91.185882 704.922353 
C 91.185882 701.985756 90.607437 699.077713 89.48365 696.364651 
C 88.359862 693.651589 86.712589 691.186269 84.636101 689.109782 
C 82.559613 687.033294 80.094294 685.38602 77.381231 684.262233 
C 74.668169 683.138446 71.760127 682.56 68.823529 682.56 
C 65.886932 682.56 62.97889 683.138446 60.265827 684.262233 
C 57.552765 685.38602 55.087446 687.033294 53.010958 689.109782 
C 50.93447 691.186269 49.287196 693.651589 48.163409 696.364651 
C 47.039622 699.077713 46.461176 701.985756 46.461176 704.922353 
C 46.461176 707.85895 47.039622 710.766993 48.163409 713.480055 
C 49.287196 716.193117 50.93447 718.658436 53.010958 720.734924 
C 55.087446 722.811412 57.552765 724.458686 60.265827 725.582473 
C 62.97889 726.70626 65.886932 727.284706 68.823529 727.284706 
C 71.760127 727.284706 74.668169 726.70626 77.381231 725.582473 
C 80.094294 724.458686 82.559613 722.811412 84.636101 720.734924 
C 86.712589 718.658436 88.359862 716.193117 89.48365 713.480055 
C 90.607437 710.766993 91.185882 707.85895 91.185882 704.922353 
M 68.823529 704.922353 
z
" style="fill: #081d58"/>
   </g>
   <g id="matplotlib.axis_43"/>
   <g id="matplotlib.axis_44"/>
   <g id="text_22">
    <!-- 4B -->
    <g transform="translate(60.889467 670.969412) scale(0.12 -0.12)">
     <use xlink:href="#DejaVuSans-34"/>
     <use xlink:href="#DejaVuSans-42" x="63.623047"/>
    </g>
   </g>
  </g>
  <g id="axes_23">
   <g id="patch_112">
    <path d="M 169.962353 704.922353 
C 169.962353 702.912085 169.691283 700.910966 169.156478 698.973143 
C 168.621672 697.03532 167.828 695.17843 166.796935 693.452718 
L 147.6 704.922353 
z
" style="fill: #ffffd9"/>
   </g>
   <g id="patch_113">
    <path d="M 166.796935 693.452718 
C 166.796935 693.452718 166.796935 693.452718 166.796935 693.452718 
L 147.6 704.922353 
z
" style="fill: #c6e9b4"/>
   </g>
   <g id="patch_114">
    <path d="M 166.796935 693.452718 
C 166.796935 693.452718 166.796935 693.452718 166.796935 693.452718 
L 147.6 704.922353 
z
" style="fill: #40b5c4"/>
   </g>
   <g id="patch_115">
    <path d="M 166.796935 693.452718 
C 165.76587 691.727006 164.506798 690.14818 163.053787 688.758959 
C 161.600775 687.369738 159.96705 686.182767 158.196818 685.230165 
L 147.6 704.922353 
z
" style="fill: #225da8"/>
   </g>
   <g id="patch_116">
    <path d="M 158.196818 685.230165 
C 156.056308 684.078307 153.742241 683.283123 151.345833 682.875957 
C 148.949424 682.468791 146.502582 682.455064 144.101756 682.835318 
C 141.700931 683.215571 139.378087 683.984742 137.224789 685.112511 
C 135.071491 686.24028 133.116407 687.711632 131.436605 689.468567 
C 129.756803 691.225502 128.374648 693.244629 127.344623 695.446356 
C 126.314597 697.648084 125.650414 700.003097 125.378257 702.418565 
C 125.106099 704.834033 125.229589 707.277796 125.74386 709.653523 
C 126.258131 712.029251 127.156335 714.305313 128.403066 716.391989 
C 129.649797 718.478665 131.228456 720.348173 133.076815 721.92682 
C 134.925173 723.505468 137.018622 724.772235 139.274639 725.677188 
C 141.530657 726.582142 143.919206 727.113233 146.346135 727.249526 
C 148.773063 727.385819 151.206057 727.1255 153.549212 726.47883 
C 155.892366 725.83216 158.114484 724.80775 160.127973 723.445979 
C 162.141462 722.084208 163.919513 720.403208 165.392038 718.469242 
C 166.864563 716.535276 168.011957 714.374093 168.788991 712.070883 
C 169.566025 709.767673 169.962353 707.353103 169.962353 704.922351 
L 147.6 704.922353 
z
" style="fill: #081d58"/>
   </g>
   <g id="matplotlib.axis_45"/>
   <g id="matplotlib.axis_46"/>
   <g id="text_23">
    <!-- 4B -->
    <g transform="translate(139.665937 670.969412) scale(0.12 -0.12)">
     <use xlink:href="#DejaVuSans-34"/>
     <use xlink:href="#DejaVuSans-42" x="63.623047"/>
    </g>
   </g>
  </g>
  <g id="axes_24">
   <g id="patch_117">
    <path d="M 248.738824 704.922353 
C 248.738824 702.968087 248.482646 701.022226 247.976845 699.13455 
C 247.471044 697.246874 246.719969 695.43362 245.742836 693.741176 
L 226.376471 704.922353 
z
" style="fill: #ffffd9"/>
   </g>
   <g id="patch_118">
    <path d="M 245.742836 693.741176 
C 245.742836 693.741176 245.742836 693.741176 245.742836 693.741176 
L 226.376471 704.922353 
z
" style="fill: #c6e9b4"/>
   </g>
   <g id="patch_119">
    <path d="M 245.742836 693.741176 
C 245.254791 692.895857 244.711924 692.083399 244.117718 691.309015 
C 243.523512 690.53463 242.879241 689.799981 242.189042 689.109781 
L 226.376471 704.922353 
z
" style="fill: #40b5c4"/>
   </g>
   <g id="patch_120">
    <path d="M 242.189042 689.109781 
C 240.112554 687.033293 237.647234 685.38602 234.934172 684.262233 
C 232.22111 683.138445 229.313067 682.56 226.37647 682.56 
C 223.439873 682.56 220.53183 683.138446 217.818768 684.262233 
C 215.105706 685.38602 212.640387 687.033294 210.563899 689.109782 
L 226.376471 704.922353 
z
" style="fill: #225da8"/>
   </g>
   <g id="patch_121">
    <path d="M 210.563899 689.109782 
C 207.963655 691.710026 206.044497 694.911949 204.977033 698.430905 
C 203.909569 701.949862 203.726398 705.678391 204.443804 709.285032 
C 205.16121 712.891674 206.757284 716.266289 209.090138 719.10888 
C 211.422993 721.951471 214.421387 724.175232 217.818769 725.582473 
C 221.216151 726.989715 224.908772 727.537463 228.568365 727.177025 
C 232.227958 726.816586 235.742766 725.558968 238.800329 723.51597 
C 241.857892 721.472971 244.364838 718.706982 246.098305 715.463893 
C 247.831772 712.220804 248.738824 708.599652 248.738824 704.922352 
L 226.376471 704.922353 
z
" style="fill: #081d58"/>
   </g>
   <g id="matplotlib.axis_47"/>
   <g id="matplotlib.axis_48"/>
   <g id="text_24">
    <!-- 4B -->
    <g transform="translate(218.442408 670.969412) scale(0.12 -0.12)">
     <use xlink:href="#DejaVuSans-34"/>
     <use xlink:href="#DejaVuSans-42" x="63.623047"/>
    </g>
   </g>
  </g>
  <g id="axes_25">
   <g id="patch_122">
    <path d="M 91.185882 772.009412 
C 91.185882 767.499113 89.821348 763.092617 87.272414 759.371632 
C 84.72348 755.650646 81.107471 752.786446 76.901743 751.157138 
C 72.696014 749.527831 68.094152 749.208411 63.703656 750.241047 
C 59.313159 751.273682 55.336119 753.610841 52.297551 756.943993 
L 68.823529 772.009412 
z
" style="fill: #ffffd9"/>
   </g>
   <g id="patch_123">
    <path d="M 52.297551 756.943993 
C 52.297551 756.943993 52.297551 756.943993 52.297551 756.943993 
L 68.823529 772.009412 
z
" style="fill: #c6e9b4"/>
   </g>
   <g id="patch_124">
    <path d="M 52.297551 756.943993 
C 51.833454 757.453082 51.39313 757.983345 50.977986 758.533084 
C 50.562842 759.082823 50.173322 759.651452 49.810673 760.237151 
L 68.823529 772.009412 
z
" style="fill: #40b5c4"/>
   </g>
   <g id="patch_125">
    <path d="M 49.810673 760.237151 
C 47.805789 763.47515 46.660924 767.172269 46.485038 770.976642 
C 46.309151 774.781016 47.108006 778.567999 48.805573 781.977172 
C 50.50314 785.386345 53.0438 788.306011 56.185751 790.458298 
C 59.327703 792.610584 62.968003 793.924973 66.760194 794.276371 
L 68.823529 772.009412 
z
" style="fill: #225da8"/>
   </g>
   <g id="patch_126">
    <path d="M 66.760194 794.276371 
C 69.857461 794.563375 72.980809 794.201016 75.930096 793.212514 
C 78.879383 792.224012 81.590239 790.630942 83.888952 788.535388 
C 86.187665 786.439833 88.024064 783.887531 89.280474 781.042032 
C 90.536884 778.196533 91.185883 775.119943 91.185882 772.009407 
L 68.823529 772.009412 
z
" style="fill: #081d58"/>
   </g>
   <g id="matplotlib.axis_49"/>
   <g id="matplotlib.axis_50"/>
   <g id="text_25">
    <!-- 4C -->
    <g transform="translate(60.816342 738.056471) scale(0.12 -0.12)">
     <use xlink:href="#DejaVuSans-34"/>
     <use xlink:href="#DejaVuSans-43" x="63.623047"/>
    </g>
   </g>
  </g>
  <g id="axes_26">
   <g id="patch_127">
    <path d="M 169.962353 772.009412 
C 169.962353 767.859409 168.807118 763.790196 166.626525 760.259256 
C 164.445933 756.728316 161.324884 753.873125 157.614264 752.014679 
L 147.6 772.009412 
z
" style="fill: #ffffd9"/>
   </g>
   <g id="patch_128">
    <path d="M 157.614264 752.014679 
C 157.614264 752.014679 157.614264 752.014679 157.614264 752.014679 
L 147.6 772.009412 
z
" style="fill: #c6e9b4"/>
   </g>
   <g id="patch_129">
    <path d="M 157.614264 752.014679 
C 157.482575 751.948723 157.350237 751.884069 157.21727 751.820728 
C 157.084303 751.757387 156.950714 751.695361 156.816522 751.634659 
L 147.6 772.009412 
z
" style="fill: #40b5c4"/>
   </g>
   <g id="patch_130">
    <path d="M 156.816522 751.634659 
C 152.89856 749.862368 148.551315 749.257241 144.298276 749.892146 
C 140.045238 750.527051 136.06426 752.375437 132.834726 755.214725 
C 129.605193 758.054012 127.262157 761.765467 126.087763 765.902162 
C 124.91337 770.038856 124.95673 774.427801 126.212623 778.540486 
L 147.6 772.009412 
z
" style="fill: #225da8"/>
   </g>
   <g id="patch_131">
    <path d="M 126.212623 778.540486 
C 127.77728 783.664283 131.132278 788.059035 135.662451 790.918927 
C 140.192624 793.778818 145.603065 794.917675 150.901723 794.126678 
C 156.20038 793.33568 161.042321 790.666322 164.539733 786.608052 
C 168.037145 782.549781 169.962353 777.366786 169.962353 772.009413 
L 147.6 772.009412 
z
" style="fill: #081d58"/>
   </g>
   <g id="matplotlib.axis_51"/>
   <g id="matplotlib.axis_52"/>
   <g id="text_26">
    <!-- 4C -->
    <g transform="translate(139.592812 738.056471) scale(0.12 -0.12)">
     <use xlink:href="#DejaVuSans-34"/>
     <use xlink:href="#DejaVuSans-43" x="63.623047"/>
    </g>
   </g>
  </g>
  <g id="axes_27">
   <g id="patch_132">
    <path d="M 248.738824 772.009412 
C 248.738824 768.512649 247.918649 765.064146 246.344394 761.941797 
C 244.770138 758.819447 242.485255 756.109435 239.673867 754.030144 
C 236.86248 751.950853 233.602191 750.559677 230.155726 749.968721 
C 226.709262 749.377765 223.171752 749.603342 219.828264 750.627274 
L 226.376471 772.009412 
z
" style="fill: #ffffd9"/>
   </g>
   <g id="patch_133">
    <path d="M 219.828264 750.627274 
C 219.828264 750.627274 219.828264 750.627274 219.828264 750.627274 
L 226.376471 772.009412 
z
" style="fill: #c6e9b4"/>
   </g>
   <g id="patch_134">
    <path d="M 219.828264 750.627274 
C 219.223002 750.812633 218.625884 751.023609 218.038522 751.25963 
C 217.45116 751.495651 216.874085 751.756506 216.308855 752.041489 
L 226.376471 772.009412 
z
" style="fill: #40b5c4"/>
   </g>
   <g id="patch_135">
    <path d="M 216.308855 752.041489 
C 215.743626 752.326472 215.190751 752.635326 214.651726 752.967217 
C 214.1127 753.299108 213.58801 753.653736 213.079073 754.030144 
L 226.376471 772.009412 
z
" style="fill: #225da8"/>
   </g>
   <g id="patch_136">
    <path d="M 213.079073 754.030144 
C 210.009498 756.300391 207.571853 759.319357 205.999258 762.798331 
C 204.426662 766.277304 203.770898 770.101731 204.094678 773.905871 
C 204.418458 777.710011 205.711121 781.368603 207.849045 784.531765 
C 209.986969 787.694927 212.899758 790.258504 216.308854 791.977334 
C 219.71795 793.696165 223.5111 794.513651 227.325554 794.351616 
C 231.140007 794.18958 234.850165 793.053357 238.101213 791.051608 
C 241.352261 789.049859 244.037151 786.248496 245.899119 782.915421 
C 247.761087 779.582346 248.738823 775.827309 248.738824 772.009415 
L 226.376471 772.009412 
z
" style="fill: #081d58"/>
   </g>
   <g id="matplotlib.axis_53"/>
   <g id="matplotlib.axis_54"/>
   <g id="text_27">
    <!-- 4C -->
    <g transform="translate(218.369283 738.056471) scale(0.12 -0.12)">
     <use xlink:href="#DejaVuSans-34"/>
     <use xlink:href="#DejaVuSans-43" x="63.623047"/>
    </g>
   </g>
  </g>
  <g id="axes_28">
   <g id="patch_137">
    <path d="M 91.185882 839.096471 
C 91.185882 833.680154 89.218078 828.444067 85.650832 824.368378 
C 82.083586 820.292689 77.154302 817.648637 71.785714 816.931176 
C 66.417126 816.213714 60.966519 817.47059 56.454217 820.466523 
C 51.941914 823.462457 48.668215 827.998065 47.245936 833.224308 
L 68.823529 839.096471 
z
" style="fill: #ffffd9"/>
   </g>
   <g id="patch_138">
    <path d="M 47.245936 833.224308 
C 47.245936 833.224308 47.245936 833.224308 47.245936 833.224308 
L 68.823529 839.096471 
z
" style="fill: #c6e9b4"/>
   </g>
   <g id="patch_139">
    <path d="M 47.245936 833.224308 
C 47.245936 833.224308 47.245936 833.224308 47.245936 833.224308 
L 68.823529 839.096471 
z
" style="fill: #40b5c4"/>
   </g>
   <g id="patch_140">
    <path d="M 47.245936 833.224308 
C 46.401387 836.32765 46.236189 839.576976 46.761645 842.749971 
C 47.2871 845.922965 48.490945 848.945575 50.290815 851.610995 
C 52.090685 854.276416 54.444572 856.52244 57.191427 858.195398 
C 59.938281 859.868355 63.013995 860.929201 66.208131 861.305354 
L 68.823529 839.096471 
z
" style="fill: #225da8"/>
   </g>
   <g id="patch_141">
    <path d="M 66.208131 861.305354 
C 69.343763 861.674618 72.522339 861.375658 75.534127 860.428201 
C 78.545914 859.480744 81.323181 857.906098 83.682674 855.808162 
C 86.042167 853.710227 87.930823 851.136183 89.224023 848.255875 
C 90.517222 845.375567 91.185882 842.25377 91.185882 839.096471 
L 68.823529 839.096471 
z
" style="fill: #081d58"/>
   </g>
   <g id="matplotlib.axis_55"/>
   <g id="matplotlib.axis_56"/>
   <g id="text_28">
    <!-- 5A -->
    <g transform="translate(60.901654 805.143529) scale(0.12 -0.12)">
     <defs>
      <path id="DejaVuSans-35" d="M 691 4666 
L 3169 4666 
L 3169 4134 
L 1269 4134 
L 1269 2991 
Q 1406 3038 1543 3061 
Q 1681 3084 1819 3084 
Q 2600 3084 3056 2656 
Q 3513 2228 3513 1497 
Q 3513 744 3044 326 
Q 2575 -91 1722 -91 
Q 1428 -91 1123 -41 
Q 819 9 494 109 
L 494 744 
Q 775 591 1075 516 
Q 1375 441 1709 441 
Q 2250 441 2565 725 
Q 2881 1009 2881 1497 
Q 2881 1984 2565 2268 
Q 2250 2553 1709 2553 
Q 1456 2553 1204 2497 
Q 953 2441 691 2322 
L 691 4666 
z
" transform="scale(0.015625)"/>
     </defs>
     <use xlink:href="#DejaVuSans-35"/>
     <use xlink:href="#DejaVuSans-41" x="63.623047"/>
    </g>
   </g>
  </g>
  <g id="axes_29">
   <g id="patch_142">
    <path d="M 169.962353 839.096471 
C 169.962353 834.986595 168.82935 830.95518 166.68835 827.447019 
C 164.54735 823.938858 161.4801 821.087897 157.825015 819.208688 
L 147.6 839.096471 
z
" style="fill: #ffffd9"/>
   </g>
   <g id="patch_143">
    <path d="M 157.825015 819.208688 
C 157.825015 819.208688 157.825015 819.208688 157.825015 819.208688 
L 147.6 839.096471 
z
" style="fill: #c6e9b4"/>
   </g>
   <g id="patch_144">
    <path d="M 157.825015 819.208688 
C 157.792726 819.192087 157.760396 819.175565 157.728027 819.159121 
C 157.695657 819.142678 157.663248 819.126313 157.630799 819.110027 
L 147.6 839.096471 
z
" style="fill: #40b5c4"/>
   </g>
   <g id="patch_145">
    <path d="M 157.630799 819.110027 
C 154.924278 817.751679 151.969831 816.957144 148.94707 816.774727 
C 145.924308 816.59231 142.895754 817.025783 140.045523 818.048793 
C 137.195293 819.071804 134.58234 820.663193 132.365516 822.726213 
C 130.148691 824.789234 128.373848 827.281215 127.148884 830.050661 
C 125.92392 832.820106 125.274173 835.809733 125.239143 838.837791 
C 125.204113 841.865849 125.784525 844.869707 126.945094 847.66675 
C 128.105662 850.463792 129.822382 852.996165 131.990888 855.109917 
C 134.159394 857.223668 136.734833 858.875078 139.560634 859.963752 
L 147.6 839.096471 
z
" style="fill: #225da8"/>
   </g>
   <g id="patch_146">
    <path d="M 139.560634 859.963752 
C 142.948035 861.268788 146.602809 861.729589 150.208131 861.306209 
C 153.813454 860.882829 157.262045 859.587867 160.254954 857.533579 
C 163.247863 855.479291 165.696033 852.726806 167.387236 849.51473 
C 169.078439 846.302654 169.962353 842.726566 169.962353 839.096469 
L 147.6 839.096471 
z
" style="fill: #081d58"/>
   </g>
   <g id="matplotlib.axis_57"/>
   <g id="matplotlib.axis_58"/>
   <g id="text_29">
    <!-- 5A -->
    <g transform="translate(139.678125 805.143529) scale(0.12 -0.12)">
     <use xlink:href="#DejaVuSans-35"/>
     <use xlink:href="#DejaVuSans-41" x="63.623047"/>
    </g>
   </g>
  </g>
  <g id="axes_30">
   <g id="patch_147">
    <path d="M 248.738824 839.096471 
C 248.738824 836.462695 248.273525 833.84951 247.364419 831.377608 
C 246.455313 828.905706 245.116614 826.613737 243.41015 824.607558 
L 226.376471 839.096471 
z
" style="fill: #ffffd9"/>
   </g>
   <g id="patch_148">
    <path d="M 243.41015 824.607558 
C 243.41015 824.607558 243.41015 824.607558 243.41015 824.607558 
L 226.376471 839.096471 
z
" style="fill: #c6e9b4"/>
   </g>
   <g id="patch_149">
    <path d="M 243.41015 824.607558 
C 243.361519 824.550386 243.312601 824.493459 243.263397 824.43678 
C 243.214193 824.3801 243.164704 824.323669 243.114932 824.267488 
L 226.376471 839.096471 
z
" style="fill: #40b5c4"/>
   </g>
   <g id="patch_150">
    <path d="M 243.114932 824.267488 
C 240.701685 821.543495 237.659575 819.449326 234.25361 818.167412 
C 230.847645 816.885497 227.179685 816.454174 223.569256 816.911016 
C 219.958827 817.367858 216.513904 818.699203 213.534585 820.789073 
C 210.555265 822.878943 208.13065 825.664838 206.471953 828.904071 
C 204.813257 832.143303 203.970085 835.739 204.015889 839.377929 
C 204.061693 843.016857 204.995103 846.590192 206.734807 849.786648 
C 208.474511 852.983104 210.968481 855.707087 213.99946 857.721304 
C 217.030438 859.735521 220.50778 860.979734 224.128564 861.345555 
L 226.376471 839.096471 
z
" style="fill: #225da8"/>
   </g>
   <g id="patch_151">
    <path d="M 224.128564 861.345555 
C 227.238885 861.659802 230.380815 861.318372 233.351033 860.34336 
C 236.321251 859.368348 239.054275 857.781249 241.373243 855.684769 
C 243.692212 853.588289 245.546 851.028646 246.814645 848.171483 
C 248.083291 845.314319 248.738824 842.222624 248.738824 839.09647 
L 226.376471 839.096471 
z
" style="fill: #081d58"/>
   </g>
   <g id="matplotlib.axis_59"/>
   <g id="matplotlib.axis_60"/>
   <g id="text_30">
    <!-- 5A -->
    <g transform="translate(218.454596 805.143529) scale(0.12 -0.12)">
     <use xlink:href="#DejaVuSans-35"/>
     <use xlink:href="#DejaVuSans-41" x="63.623047"/>
    </g>
   </g>
  </g>
  <g id="axes_31">
   <g id="patch_152">
    <path d="M 91.185882 906.183529 
C 91.185882 904.307643 90.949842 902.43919 90.483328 900.622239 
C 90.016814 898.805287 89.323524 897.054235 88.419809 895.410384 
L 68.823529 906.183529 
z
" style="fill: #ffffd9"/>
   </g>
   <g id="patch_153">
    <path d="M 88.419809 895.410384 
C 88.419809 895.410384 88.419809 895.410384 88.419809 895.410384 
L 68.823529 906.183529 
z
" style="fill: #c6e9b4"/>
   </g>
   <g id="patch_154">
    <path d="M 88.419809 895.410384 
C 88.419809 895.410384 88.419809 895.410384 88.419809 895.410384 
L 68.823529 906.183529 
z
" style="fill: #40b5c4"/>
   </g>
   <g id="patch_155">
    <path d="M 88.419809 895.410384 
C 85.680583 890.42775 81.141535 886.672723 75.733877 884.915668 
C 70.32622 883.158614 64.446903 883.528509 59.302104 885.949467 
C 54.157304 888.370426 50.124677 892.664737 48.03154 897.951397 
C 45.938403 903.238057 45.938402 909.128998 48.031539 914.415659 
L 68.823529 906.183529 
z
" style="fill: #225da8"/>
   </g>
   <g id="patch_156">
    <path d="M 48.031539 914.415659 
C 49.94675 919.252932 53.491293 923.273427 58.050382 925.779808 
C 62.609471 928.286189 67.903349 929.124657 73.013815 928.149784 
C 78.124281 927.174911 82.737743 924.446517 86.054017 920.437831 
C 89.370292 916.429145 91.185882 911.38615 91.185882 906.183532 
L 68.823529 906.183529 
z
" style="fill: #081d58"/>
   </g>
   <g id="matplotlib.axis_61"/>
   <g id="matplotlib.axis_62"/>
   <g id="text_31">
    <!-- 5B -->
    <g transform="translate(60.889467 872.230588) scale(0.12 -0.12)">
     <use xlink:href="#DejaVuSans-35"/>
     <use xlink:href="#DejaVuSans-42" x="63.623047"/>
    </g>
   </g>
  </g>
  <g id="axes_32">
   <g id="patch_157">
    <path d="M 169.962353 906.183529 
C 169.962353 904.144038 169.683344 902.1141 169.133096 900.150239 
C 168.582848 898.186377 167.766515 896.306991 166.706828 894.56441 
L 147.6 906.183529 
z
" style="fill: #ffffd9"/>
   </g>
   <g id="patch_158">
    <path d="M 166.706828 894.56441 
C 166.706828 894.56441 166.706828 894.56441 166.706828 894.56441 
L 147.6 906.183529 
z
" style="fill: #c6e9b4"/>
   </g>
   <g id="patch_159">
    <path d="M 166.706828 894.56441 
C 166.648048 894.467749 166.588534 894.371536 166.528294 894.275779 
C 166.468053 894.180021 166.407087 894.084723 166.3454 893.989891 
L 147.6 906.183529 
z
" style="fill: #40b5c4"/>
   </g>
   <g id="patch_160">
    <path d="M 166.3454 893.989891 
C 163.796024 890.070711 160.080625 887.04801 155.724733 885.349338 
C 151.368841 883.650666 146.587996 883.360078 142.058434 884.518676 
C 137.528873 885.677274 133.474726 888.227729 130.469443 891.809287 
C 127.46416 895.390844 125.656448 899.82628 125.302001 904.488216 
L 147.6 906.183529 
z
" style="fill: #225da8"/>
   </g>
   <g id="patch_161">
    <path d="M 125.302001 904.488216 
C 125.073962 907.487557 125.453419 910.502305 126.417606 913.351583 
C 127.381792 916.200862 128.911033 918.826527 130.913577 921.071045 
C 132.916121 923.315563 135.351103 925.133131 138.072432 926.4147 
C 140.79376 927.696269 143.7459 928.415686 146.751732 928.529788 
C 149.757564 928.64389 152.755748 928.150348 155.566402 927.078775 
C 158.377056 926.007201 160.942822 924.379462 163.109763 922.293218 
C 165.276704 920.206974 167.000598 917.7048 168.178017 914.936816 
C 169.355436 912.168833 169.962353 909.191529 169.962353 906.183532 
L 147.6 906.183529 
z
" style="fill: #081d58"/>
   </g>
   <g id="matplotlib.axis_63"/>
   <g id="matplotlib.axis_64"/>
   <g id="text_32">
    <!-- 5B -->
    <g transform="translate(139.665938 872.230588) scale(0.12 -0.12)">
     <use xlink:href="#DejaVuSans-35"/>
     <use xlink:href="#DejaVuSans-42" x="63.623047"/>
    </g>
   </g>
  </g>
  <g id="axes_33">
   <g id="patch_162">
    <path d="M 248.738824 906.183529 
C 248.738824 903.205303 248.143862 900.256865 246.988943 897.511689 
C 245.834024 894.766512 244.142251 892.279512 242.013161 890.197012 
C 239.884071 888.114512 237.360254 886.47817 234.5902 885.384263 
C 231.820146 884.290356 228.859268 883.760765 225.88177 883.826649 
L 226.376471 906.183529 
z
" style="fill: #ffffd9"/>
   </g>
   <g id="patch_163">
    <path d="M 225.88177 883.826649 
C 225.88177 883.826649 225.88177 883.826649 225.88177 883.826649 
L 226.376471 906.183529 
z
" style="fill: #c6e9b4"/>
   </g>
   <g id="patch_164">
    <path d="M 225.88177 883.826649 
C 225.552009 883.833946 225.22245 883.848538 224.893335 883.870414 
C 224.56422 883.89229 224.235628 883.921445 223.907803 883.957857 
L 226.376471 906.183529 
z
" style="fill: #40b5c4"/>
   </g>
   <g id="patch_165">
    <path d="M 223.907803 883.957857 
C 220.94778 884.286635 218.083043 885.20345 215.482141 886.654361 
C 212.88124 888.105272 210.596202 890.061254 208.761468 892.407226 
C 206.926735 894.753199 205.57901 897.442232 204.797585 900.316116 
C 204.016161 903.19 203.81667 906.191244 204.210849 909.14327 
L 226.376471 906.183529 
z
" style="fill: #225da8"/>
   </g>
   <g id="patch_166">
    <path d="M 204.210849 909.14327 
C 204.961599 914.765666 207.824141 919.897058 212.213858 923.48946 
C 216.603574 927.081862 222.199797 928.872848 227.859605 928.496645 
C 233.519414 928.120442 238.82936 925.604532 242.704991 921.462739 
C 246.580622 917.320946 248.738823 911.855829 248.738824 906.183531 
L 226.376471 906.183529 
z
" style="fill: #081d58"/>
   </g>
   <g id="matplotlib.axis_65"/>
   <g id="matplotlib.axis_66"/>
   <g id="text_33">
    <!-- 5B -->
    <g transform="translate(218.442408 872.230588) scale(0.12 -0.12)">
     <use xlink:href="#DejaVuSans-35"/>
     <use xlink:href="#DejaVuSans-42" x="63.623047"/>
    </g>
   </g>
  </g>
  <g id="axes_34">
   <g id="patch_167">
    <path d="M 91.185882 973.270588 
C 91.185882 968.634488 89.744168 964.111159 87.06139 960.330137 
C 84.378612 956.549115 80.585284 953.694343 76.209347 952.163136 
C 71.833409 950.631929 67.087746 950.498779 62.632837 951.782216 
C 58.177928 953.065653 54.2305 955.703239 51.339939 959.327888 
L 68.823529 973.270588 
z
" style="fill: #ffffd9"/>
   </g>
   <g id="patch_168">
    <path d="M 51.339939 959.327888 
C 51.339939 959.327888 51.339939 959.327888 51.339939 959.327888 
L 68.823529 973.270588 
z
" style="fill: #c6e9b4"/>
   </g>
   <g id="patch_169">
    <path d="M 51.339939 959.327888 
C 51.339939 959.327888 51.339939 959.327888 51.339939 959.327888 
L 68.823529 973.270588 
z
" style="fill: #40b5c4"/>
   </g>
   <g id="patch_170">
    <path d="M 51.339939 959.327888 
C 49.509 961.623812 48.148112 964.258067 47.335157 967.079894 
C 46.522203 969.901721 46.272992 972.856244 46.601786 975.774376 
C 46.930581 978.692509 47.830986 981.517501 49.251474 984.08768 
C 50.671961 986.657858 52.584905 988.92324 54.880829 990.754179 
C 57.176754 992.585118 59.811008 993.946006 62.632835 994.75896 
C 65.454662 995.571915 68.409185 995.821126 71.327317 995.492332 
C 74.24545 995.163537 77.070442 994.263131 79.640621 992.842644 
C 82.2108 991.422156 84.476182 989.509212 86.30712 987.213288 
L 68.823529 973.270588 
z
" style="fill: #225da8"/>
   </g>
   <g id="patch_171">
    <path d="M 86.30712 987.213288 
C 87.875171 985.247015 89.100343 983.030233 89.930981 980.656406 
C 90.761619 978.28258 91.185882 975.785547 91.185882 973.270589 
L 68.823529 973.270588 
z
" style="fill: #081d58"/>
   </g>
   <g id="matplotlib.axis_67"/>
   <g id="matplotlib.axis_68"/>
   <g id="text_34">
    <!-- 6A -->
    <g transform="translate(60.901654 939.317647) scale(0.12 -0.12)">
     <defs>
      <path id="DejaVuSans-36" d="M 2113 2584 
Q 1688 2584 1439 2293 
Q 1191 2003 1191 1497 
Q 1191 994 1439 701 
Q 1688 409 2113 409 
Q 2538 409 2786 701 
Q 3034 994 3034 1497 
Q 3034 2003 2786 2293 
Q 2538 2584 2113 2584 
z
M 3366 4563 
L 3366 3988 
Q 3128 4100 2886 4159 
Q 2644 4219 2406 4219 
Q 1781 4219 1451 3797 
Q 1122 3375 1075 2522 
Q 1259 2794 1537 2939 
Q 1816 3084 2150 3084 
Q 2853 3084 3261 2657 
Q 3669 2231 3669 1497 
Q 3669 778 3244 343 
Q 2819 -91 2113 -91 
Q 1303 -91 875 529 
Q 447 1150 447 2328 
Q 447 3434 972 4092 
Q 1497 4750 2381 4750 
Q 2619 4750 2861 4703 
Q 3103 4656 3366 4563 
z
" transform="scale(0.015625)"/>
     </defs>
     <use xlink:href="#DejaVuSans-36"/>
     <use xlink:href="#DejaVuSans-41" x="63.623047"/>
    </g>
   </g>
  </g>
  <g id="axes_35">
   <g id="patch_172">
    <path d="M 169.962353 973.270588 
C 169.962353 969.291084 168.900091 965.382786 166.88567 961.950794 
C 164.87125 958.518802 161.976762 955.685936 158.502222 953.745825 
L 147.6 973.270588 
z
" style="fill: #ffffd9"/>
   </g>
   <g id="patch_173">
    <path d="M 158.502222 953.745825 
C 158.502222 953.745825 158.502222 953.745825 158.502222 953.745825 
L 147.6 973.270588 
z
" style="fill: #c6e9b4"/>
   </g>
   <g id="patch_174">
    <path d="M 158.502222 953.745825 
C 158.502222 953.745825 158.502222 953.745825 158.502222 953.745825 
L 147.6 973.270588 
z
" style="fill: #40b5c4"/>
   </g>
   <g id="patch_175">
    <path d="M 158.502222 953.745825 
C 155.217488 951.911698 151.522412 950.935794 147.760395 950.908811 
C 143.998377 950.881827 140.289683 951.804624 136.978977 953.591445 
C 133.66827 955.378265 130.861389 957.971985 128.819189 961.131562 
C 126.776989 964.291138 125.564755 967.915563 125.295145 971.668004 
C 125.025535 975.420445 125.707169 979.180943 127.276699 982.600019 
C 128.846229 986.019095 131.25348 988.987446 134.274736 991.229212 
C 137.295992 993.470978 140.834669 994.914493 144.561902 995.425606 
C 148.289136 995.936718 152.085772 995.499088 155.598974 994.153386 
L 147.6 973.270588 
z
" style="fill: #225da8"/>
   </g>
   <g id="patch_176">
    <path d="M 155.598974 994.153386 
C 159.82437 992.534885 163.460664 989.671432 166.024857 985.943373 
C 168.58905 982.215313 169.962353 977.795355 169.962353 973.270588 
L 147.6 973.270588 
z
" style="fill: #081d58"/>
   </g>
   <g id="matplotlib.axis_69"/>
   <g id="matplotlib.axis_70"/>
   <g id="text_35">
    <!-- 6A -->
    <g transform="translate(139.678125 939.317647) scale(0.12 -0.12)">
     <use xlink:href="#DejaVuSans-36"/>
     <use xlink:href="#DejaVuSans-41" x="63.623047"/>
    </g>
   </g>
  </g>
  <g id="axes_36">
   <g id="patch_177">
    <path d="M 248.738824 973.270588 
C 248.738824 970.091563 248.06093 966.948779 246.750477 964.052417 
C 245.440025 961.156054 243.526893 958.572151 241.139025 956.473511 
L 226.376471 973.270588 
z
" style="fill: #ffffd9"/>
   </g>
   <g id="patch_178">
    <path d="M 241.139025 956.473511 
C 241.139025 956.473511 241.139025 956.473511 241.139025 956.473511 
L 226.376471 973.270588 
z
" style="fill: #c6e9b4"/>
   </g>
   <g id="patch_179">
    <path d="M 241.139025 956.473511 
C 241.139025 956.473511 241.139025 956.473511 241.139025 956.473511 
L 226.376471 973.270588 
z
" style="fill: #40b5c4"/>
   </g>
   <g id="patch_180">
    <path d="M 241.139025 956.473511 
C 238.184632 953.876965 234.596827 952.105261 230.739149 951.337922 
C 226.881471 950.570582 222.88877 950.834428 219.165612 952.102727 
C 215.442454 953.371026 212.118986 955.599441 209.531962 958.562177 
C 206.944939 961.524912 205.184794 965.118401 204.429875 968.978529 
C 203.674956 972.838657 203.951653 976.830488 205.231929 980.549544 
C 206.512205 984.268601 208.751307 987.584879 211.722354 990.162352 
C 214.693401 992.739826 218.292537 994.488395 222.155075 995.230885 
C 226.017613 995.973375 230.008532 995.683831 233.723449 994.391591 
L 226.376471 973.270588 
z
" style="fill: #225da8"/>
   </g>
   <g id="patch_181">
    <path d="M 233.723449 994.391591 
C 238.108823 992.866131 241.9121 990.012081 244.602421 986.227809 
C 247.292741 982.443538 248.738823 977.913707 248.738824 973.27059 
L 226.376471 973.270588 
z
" style="fill: #081d58"/>
   </g>
   <g id="matplotlib.axis_71"/>
   <g id="matplotlib.axis_72"/>
   <g id="text_36">
    <!-- 6A -->
    <g transform="translate(218.454596 939.317647) scale(0.12 -0.12)">
     <use xlink:href="#DejaVuSans-36"/>
     <use xlink:href="#DejaVuSans-41" x="63.623047"/>
    </g>
   </g>
  </g>
  <g id="axes_37">
   <g id="patch_182">
    <path d="M 169.962353 1040.357647 
C 169.962353 1036.998272 169.205362 1033.681678 167.747784 1030.654985 
C 166.290205 1027.628293 164.169164 1024.968591 161.542698 1022.874055 
L 147.6 1040.357647 
z
" style="fill: #ffffd9"/>
   </g>
   <g id="patch_183">
    <path d="M 161.542698 1022.874055 
C 161.542698 1022.874055 161.542698 1022.874055 161.542698 1022.874055 
L 147.6 1040.357647 
z
" style="fill: #c6e9b4"/>
   </g>
   <g id="patch_184">
    <path d="M 161.542698 1022.874055 
C 161.542698 1022.874055 161.542698 1022.874055 161.542698 1022.874055 
L 147.6 1040.357647 
z
" style="fill: #40b5c4"/>
   </g>
   <g id="patch_185">
    <path d="M 161.542698 1022.874055 
C 159.576425 1021.306005 157.359643 1020.080832 154.985816 1019.250195 
C 152.611989 1018.419557 150.114957 1017.995294 147.599999 1017.995294 
C 145.085041 1017.995294 142.588009 1018.419557 140.214182 1019.250195 
C 137.840355 1020.080833 135.623573 1021.306006 133.6573 1022.874056 
C 131.691027 1024.442107 130.003292 1026.330684 128.665254 1028.460159 
C 127.327216 1030.589635 126.357948 1032.929654 125.798318 1035.381557 
C 125.238687 1037.833459 125.096671 1040.362294 125.378257 1042.861438 
C 125.659843 1045.360582 126.361017 1047.794411 127.452217 1050.06031 
C 128.543416 1052.326208 130.009086 1054.391876 131.78743 1056.17022 
C 133.565773 1057.948563 135.631442 1059.414233 137.89734 1060.505432 
C 140.163239 1061.596631 142.597068 1062.297805 145.096213 1062.57939 
C 147.595357 1062.860976 150.124191 1062.71896 152.576093 1062.159329 
C 155.027996 1061.599698 157.368015 1060.63043 159.497491 1059.292391 
C 161.626966 1057.954353 163.515543 1056.266618 165.083593 1054.300345 
C 166.651643 1052.334071 167.876815 1050.117289 168.707453 1047.743462 
C 169.53809 1045.369635 169.962353 1042.872603 169.962353 1040.357645 
L 147.6 1040.357647 
z
" style="fill: #225da8"/>
   </g>
   <g id="patch_186">
    <path d="M 169.962353 1040.357645 
C 169.962353 1040.357645 169.962353 1040.357645 169.962353 1040.357645 
L 147.6 1040.357647 
z
" style="fill: #081d58"/>
   </g>
   <g id="matplotlib.axis_73"/>
   <g id="matplotlib.axis_74"/>
   <g id="text_37">
    <!-- 6B -->
    <g transform="translate(139.665938 1006.404706) scale(0.12 -0.12)">
     <use xlink:href="#DejaVuSans-36"/>
     <use xlink:href="#DejaVuSans-42" x="63.623047"/>
    </g>
   </g>
  </g>
  <g id="axes_38">
   <g id="patch_187">
    <path d="M 248.738824 1040.357647 
C 248.738824 1035.061445 246.85733 1029.933684 243.431905 1025.89435 
C 240.006481 1021.855015 235.255012 1019.161042 230.029972 1018.295762 
L 226.376471 1040.357647 
z
" style="fill: #ffffd9"/>
   </g>
   <g id="patch_188">
    <path d="M 230.029972 1018.295762 
C 230.029972 1018.295762 230.029972 1018.295762 230.029972 1018.295762 
L 226.376471 1040.357647 
z
" style="fill: #c6e9b4"/>
   </g>
   <g id="patch_189">
    <path d="M 230.029972 1018.295762 
C 230.029972 1018.295762 230.029972 1018.295762 230.029972 1018.295762 
L 226.376471 1040.357647 
z
" style="fill: #40b5c4"/>
   </g>
   <g id="patch_190">
    <path d="M 230.029972 1018.295762 
C 225.336357 1017.518488 220.514966 1018.258965 216.270916 1020.408898 
C 212.026866 1022.558831 208.577654 1026.008043 206.427721 1030.252093 
C 204.277788 1034.496143 203.537312 1039.317535 204.314586 1044.011149 
C 205.09186 1048.704764 207.347051 1053.030066 210.750342 1056.354488 
L 226.376471 1040.357647 
z
" style="fill: #225da8"/>
   </g>
   <g id="patch_191">
    <path d="M 210.750342 1056.354488 
C 213.89788 1059.429085 217.883933 1061.507394 222.206784 1062.327821 
C 226.529635 1063.148248 230.999971 1062.674865 235.055117 1060.967255 
C 239.110262 1059.259645 242.57263 1056.39259 245.006416 1052.726963 
C 247.440202 1049.061335 248.738823 1044.757665 248.738824 1040.357649 
L 226.376471 1040.357647 
z
" style="fill: #081d58"/>
   </g>
   <g id="matplotlib.axis_75"/>
   <g id="matplotlib.axis_76"/>
   <g id="text_38">
    <!-- 6B -->
    <g transform="translate(218.442408 1006.404706) scale(0.12 -0.12)">
     <use xlink:href="#DejaVuSans-36"/>
     <use xlink:href="#DejaVuSans-42" x="63.623047"/>
    </g>
   </g>
  </g>
  <g id="axes_39">
   <g id="patch_192">
    <path d="M 169.962353 1107.444706 
C 169.962353 1104.508109 169.383907 1101.600066 168.26012 1098.887004 
C 167.136333 1096.173942 165.489059 1093.708622 163.412571 1091.632134 
L 147.6 1107.444706 
z
" style="fill: #ffffd9"/>
   </g>
   <g id="patch_193">
    <path d="M 163.412571 1091.632134 
C 163.412571 1091.632134 163.412571 1091.632134 163.412571 1091.632134 
L 147.6 1107.444706 
z
" style="fill: #c6e9b4"/>
   </g>
   <g id="patch_194">
    <path d="M 163.412571 1091.632134 
C 163.412571 1091.632134 163.412571 1091.632134 163.412571 1091.632134 
L 147.6 1107.444706 
z
" style="fill: #40b5c4"/>
   </g>
   <g id="patch_195">
    <path d="M 163.412571 1091.632134 
C 160.285515 1088.505078 156.300031 1086.374792 151.962679 1085.512039 
C 147.625326 1084.649286 143.127995 1085.092235 139.042298 1086.784586 
C 134.956601 1088.476937 131.463296 1091.343818 129.006383 1095.020848 
C 126.54947 1098.697878 125.237647 1103.02238 125.237647 1107.444706 
C 125.237647 1111.867032 126.54947 1116.191534 129.006383 1119.868564 
C 131.463296 1123.545593 134.956601 1126.412475 139.042298 1128.104826 
C 143.127995 1129.797177 147.625326 1130.240126 151.962679 1129.377372 
C 156.300031 1128.514619 160.285515 1126.384334 163.412571 1123.257277 
L 147.6 1107.444706 
z
" style="fill: #225da8"/>
   </g>
   <g id="patch_196">
    <path d="M 163.412571 1123.257277 
C 165.489059 1121.180789 167.136333 1118.71547 168.26012 1116.002408 
C 169.383907 1113.289346 169.962353 1110.381303 169.962353 1107.444706 
L 147.6 1107.444706 
z
" style="fill: #081d58"/>
   </g>
   <g id="matplotlib.axis_77"/>
   <g id="matplotlib.axis_78"/>
   <g id="text_39">
    <!-- 7A -->
    <g transform="translate(139.678125 1073.491765) scale(0.12 -0.12)">
     <defs>
      <path id="DejaVuSans-37" d="M 525 4666 
L 3525 4666 
L 3525 4397 
L 1831 0 
L 1172 0 
L 2766 4134 
L 525 4134 
L 525 4666 
z
" transform="scale(0.015625)"/>
     </defs>
     <use xlink:href="#DejaVuSans-37"/>
     <use xlink:href="#DejaVuSans-41" x="63.623047"/>
    </g>
   </g>
  </g>
  <g id="axes_40">
   <g id="patch_197">
    <path d="M 248.738824 1107.444706 
C 248.738824 1104.883802 248.298917 1102.341824 247.438327 1099.929851 
C 246.577736 1097.517878 245.309183 1095.27156 243.688098 1093.289058 
L 226.376471 1107.444706 
z
" style="fill: #ffffd9"/>
   </g>
   <g id="patch_198">
    <path d="M 243.688098 1093.289058 
C 243.688098 1093.289058 243.688098 1093.289058 243.688098 1093.289058 
L 226.376471 1107.444706 
z
" style="fill: #c6e9b4"/>
   </g>
   <g id="patch_199">
    <path d="M 243.688098 1093.289058 
C 243.688098 1093.289058 243.688098 1093.289058 243.688098 1093.289058 
L 226.376471 1107.444706 
z
" style="fill: #40b5c4"/>
   </g>
   <g id="patch_200">
    <path d="M 243.688098 1093.289058 
C 242.236574 1091.513918 240.520612 1089.972553 238.600482 1088.719098 
C 236.680352 1087.465644 234.578802 1086.514951 232.369643 1085.900409 
C 230.160484 1085.285867 227.869887 1085.014758 225.578305 1085.096602 
C 223.286724 1085.178446 221.021304 1085.612274 218.861614 1086.38285 
C 216.701925 1087.153426 214.673551 1088.25162 212.847734 1089.638861 
C 211.021917 1091.026102 209.420287 1092.685956 208.099097 1094.560124 
C 206.777908 1096.434291 205.752811 1098.500571 205.059811 1100.686388 
C 204.366811 1102.872205 204.014117 1105.151665 204.014118 1107.444708 
C 204.014118 1109.737751 204.366812 1112.017211 205.059813 1114.203028 
C 205.752813 1116.388845 206.77791 1118.455124 208.0991 1120.329292 
C 209.420289 1122.203459 211.02192 1123.863312 212.847737 1125.250553 
C 214.673554 1126.637794 216.701929 1127.735988 218.861618 1128.506563 
C 221.021308 1129.277138 223.286728 1129.710967 225.578309 1129.79281 
C 227.869891 1129.874654 230.160488 1129.603544 232.369647 1128.989001 
C 234.578806 1128.374459 236.680356 1127.423765 238.600486 1126.170311 
C 240.520615 1124.916857 242.236577 1123.375491 243.688101 1121.600351 
L 226.376471 1107.444706 
z
" style="fill: #225da8"/>
   </g>
   <g id="patch_201">
    <path d="M 243.688101 1121.600351 
C 245.309185 1119.617848 246.577738 1117.37153 247.438328 1114.959557 
C 248.298918 1112.547584 248.738824 1110.005606 248.738824 1107.444702 
L 226.376471 1107.444706 
z
" style="fill: #081d58"/>
   </g>
   <g id="matplotlib.axis_79"/>
   <g id="matplotlib.axis_80"/>
   <g id="text_40">
    <!-- 7A -->
    <g transform="translate(218.454596 1073.491765) scale(0.12 -0.12)">
     <use xlink:href="#DejaVuSans-37"/>
     <use xlink:href="#DejaVuSans-41" x="63.623047"/>
    </g>
   </g>
  </g>
  <g id="axes_41">
   <g id="patch_202">
    <path d="M 248.738824 1174.531765 
C 248.738824 1171.9232 248.28239 1169.334639 247.390209 1166.883389 
C 246.498027 1164.43214 245.18378 1162.155798 243.507027 1160.157521 
L 226.376471 1174.531765 
z
" style="fill: #ffffd9"/>
   </g>
   <g id="patch_203">
    <path d="M 243.507027 1160.157521 
C 243.507027 1160.157521 243.507027 1160.157521 243.507027 1160.157521 
L 226.376471 1174.531765 
z
" style="fill: #c6e9b4"/>
   </g>
   <g id="patch_204">
    <path d="M 243.507027 1160.157521 
C 243.507027 1160.157521 243.507027 1160.157521 243.507027 1160.157521 
L 226.376471 1174.531765 
z
" style="fill: #40b5c4"/>
   </g>
   <g id="patch_205">
    <path d="M 243.507027 1160.157521 
C 240.128408 1156.13104 235.435996 1153.421875 230.259652 1152.509146 
C 225.083308 1151.596417 219.747295 1152.5373 215.195294 1155.165399 
C 210.643293 1157.793498 207.160458 1161.94418 205.362732 1166.88339 
C 203.565007 1171.8226 203.565007 1177.24093 205.362733 1182.18014 
L 226.376471 1174.531765 
z
" style="fill: #225da8"/>
   </g>
   <g id="patch_206">
    <path d="M 205.362733 1182.18014 
C 207.160458 1187.119351 210.643294 1191.270032 215.195295 1193.898131 
C 219.747296 1196.526229 225.083309 1197.467112 230.259653 1196.554383 
C 235.435997 1195.641654 240.128409 1192.932489 243.507027 1188.906007 
C 246.885646 1184.879526 248.738824 1179.787961 248.738824 1174.531764 
L 226.376471 1174.531765 
z
" style="fill: #081d58"/>
   </g>
   <g id="matplotlib.axis_81"/>
   <g id="matplotlib.axis_82"/>
   <g id="text_41">
    <!-- 7B -->
    <g transform="translate(218.442408 1140.578824) scale(0.12 -0.12)">
     <use xlink:href="#DejaVuSans-37"/>
     <use xlink:href="#DejaVuSans-42" x="63.623047"/>
    </g>
   </g>
  </g>
  <g id="axes_42">
   <g id="patch_207">
    <path d="M 91.185882 1241.618824 
C 91.185882 1236.553841 89.465086 1231.636087 86.307121 1227.676124 
C 83.149156 1223.716162 78.737613 1220.944206 73.799621 1219.817141 
C 68.861628 1218.690077 63.684259 1219.273426 59.120868 1221.47104 
C 54.557477 1223.668653 50.873359 1227.352772 48.675745 1231.916163 
L 68.823529 1241.618824 
z
" style="fill: #ffffd9"/>
   </g>
   <g id="patch_208">
    <path d="M 48.675745 1231.916163 
C 48.675745 1231.916163 48.675745 1231.916163 48.675745 1231.916163 
L 68.823529 1241.618824 
z
" style="fill: #c6e9b4"/>
   </g>
   <g id="patch_209">
    <path d="M 48.675745 1231.916163 
C 48.675745 1231.916163 48.675745 1231.916163 48.675745 1231.916163 
L 68.823529 1241.618824 
z
" style="fill: #40b5c4"/>
   </g>
   <g id="patch_210">
    <path d="M 48.675745 1231.916163 
C 47.218167 1234.942855 46.461176 1238.25945 46.461176 1241.618825 
C 46.461177 1244.9782 47.218168 1248.294794 48.675746 1251.321486 
C 50.133325 1254.348178 52.254367 1257.00788 54.880832 1259.102416 
C 57.507297 1261.196952 60.572291 1262.672975 63.84744 1263.420506 
L 68.823529 1241.618824 
z
" style="fill: #225da8"/>
   </g>
   <g id="patch_211">
    <path d="M 63.84744 1263.420506 
C 67.122589 1264.168037 70.524475 1264.168037 73.799624 1263.420505 
C 77.074772 1262.672973 80.139766 1261.19695 82.766231 1259.102413 
C 85.392696 1257.007877 87.513737 1254.348174 88.971315 1251.321481 
C 90.428893 1248.294789 91.185883 1244.978194 91.185882 1241.618819 
L 68.823529 1241.618824 
z
" style="fill: #081d58"/>
   </g>
   <g id="matplotlib.axis_83"/>
   <g id="matplotlib.axis_84"/>
   <g id="text_42">
    <!-- 7AK -->
    <g transform="translate(56.966967 1207.665882) scale(0.12 -0.12)">
     <defs>
      <path id="DejaVuSans-4b" d="M 628 4666 
L 1259 4666 
L 1259 2694 
L 3353 4666 
L 4166 4666 
L 1850 2491 
L 4331 0 
L 3500 0 
L 1259 2247 
L 1259 0 
L 628 0 
L 628 4666 
z
" transform="scale(0.015625)"/>
     </defs>
     <use xlink:href="#DejaVuSans-37"/>
     <use xlink:href="#DejaVuSans-41" x="63.623047"/>
     <use xlink:href="#DejaVuSans-4b" x="132.03125"/>
    </g>
   </g>
  </g>
  <g id="axes_43">
   <g id="patch_212">
    <path d="M 248.738824 1241.618824 
C 248.738824 1239.103866 248.314561 1236.606833 247.483923 1234.233007 
C 246.653285 1231.85918 245.428112 1229.642397 243.860062 1227.676124 
C 242.292012 1225.709851 240.403435 1224.022116 238.273959 1222.684078 
C 236.144484 1221.34604 233.804464 1220.376772 231.352562 1219.817141 
C 228.90066 1219.257511 226.371825 1219.115494 223.872681 1219.39708 
C 221.373537 1219.678666 218.939707 1220.379841 216.673809 1221.47104 
C 214.40791 1222.562239 212.342242 1224.027909 210.563899 1225.806252 
C 208.785555 1227.584596 207.319886 1229.650264 206.228687 1231.916163 
C 205.137487 1234.182061 204.436313 1236.615891 204.154727 1239.115035 
C 203.873142 1241.614179 204.015158 1244.143014 204.574789 1246.594916 
C 205.134419 1249.046818 206.103687 1251.386838 207.441726 1253.516313 
C 208.779764 1255.645789 210.467499 1257.534365 212.433772 1259.102416 
C 214.400045 1260.670466 216.616828 1261.895638 218.990655 1262.726276 
C 221.364481 1263.556914 223.861514 1263.981177 226.376472 1263.981176 
C 228.891429 1263.981176 231.388462 1263.556913 233.762289 1262.726275 
C 236.136115 1261.895637 238.352898 1260.670465 240.319171 1259.102414 
L 226.376471 1241.618824 
z
" style="fill: #ffffd9"/>
   </g>
   <g id="patch_213">
    <path d="M 240.319171 1259.102414 
C 240.319171 1259.102414 240.319171 1259.102414 240.319171 1259.102414 
L 226.376471 1241.618824 
z
" style="fill: #c6e9b4"/>
   </g>
   <g id="patch_214">
    <path d="M 240.319171 1259.102414 
C 240.319171 1259.102414 240.319171 1259.102414 240.319171 1259.102414 
L 226.376471 1241.618824 
z
" style="fill: #40b5c4"/>
   </g>
   <g id="patch_215">
    <path d="M 240.319171 1259.102414 
C 240.319171 1259.102414 240.319171 1259.102414 240.319171 1259.102414 
L 226.376471 1241.618824 
z
" style="fill: #225da8"/>
   </g>
   <g id="patch_216">
    <path d="M 240.319171 1259.102414 
C 242.945636 1257.007878 245.066677 1254.348176 246.524255 1251.321483 
C 247.981833 1248.294791 248.738824 1244.978196 248.738824 1241.618821 
L 226.376471 1241.618824 
z
" style="fill: #081d58"/>
   </g>
   <g id="matplotlib.axis_85"/>
   <g id="matplotlib.axis_86"/>
   <g id="text_43">
    <!-- 7AK -->
    <g transform="translate(214.519908 1207.665882) scale(0.12 -0.12)">
     <use xlink:href="#DejaVuSans-37"/>
     <use xlink:href="#DejaVuSans-41" x="63.623047"/>
     <use xlink:href="#DejaVuSans-4b" x="132.03125"/>
    </g>
   </g>
  </g>
  <g id="axes_44">
   <g id="patch_217">
    <path d="M 248.738824 1308.705882 
C 248.738824 1305.769285 248.160378 1302.861242 247.036591 1300.14818 
C 245.912804 1297.435118 244.26553 1294.969799 242.189042 1292.893311 
C 240.112554 1290.816823 237.647235 1289.169549 234.934173 1288.045762 
C 232.22111 1286.921975 229.313068 1286.343529 226.376471 1286.343529 
C 223.439873 1286.343529 220.531831 1286.921975 217.818769 1288.045762 
C 215.105706 1289.169549 212.640387 1290.816823 210.563899 1292.893311 
C 208.487411 1294.969799 206.840138 1297.435118 205.71635 1300.14818 
C 204.592563 1302.861242 204.014118 1305.769285 204.014118 1308.705882 
C 204.014118 1311.64248 204.592563 1314.550522 205.71635 1317.263584 
C 206.840138 1319.976646 208.487411 1322.441966 210.563899 1324.518454 
C 212.640387 1326.594942 215.105706 1328.242215 217.818769 1329.366003 
C 220.531831 1330.48979 223.439873 1331.068235 226.376471 1331.068235 
C 229.313068 1331.068235 232.22111 1330.48979 234.934173 1329.366003 
C 237.647235 1328.242215 240.112554 1326.594942 242.189042 1324.518454 
C 244.26553 1322.441966 245.912804 1319.976646 247.036591 1317.263584 
C 248.160378 1314.550522 248.738824 1311.64248 248.738824 1308.705882 
M 226.376471 1308.705882 
z
" style="fill: #ffffd9"/>
   </g>
   <g id="patch_218">
    <path d="M 248.738824 1308.705882 
C 248.738824 1308.705882 248.738824 1308.705882 248.738824 1308.705882 
L 226.376471 1308.705882 
z
" style="fill: #c6e9b4"/>
   </g>
   <g id="patch_219">
    <path d="M 248.738824 1308.705882 
C 248.738824 1308.705882 248.738824 1308.705882 248.738824 1308.705882 
L 226.376471 1308.705882 
z
" style="fill: #40b5c4"/>
   </g>
   <g id="patch_220">
    <path d="M 248.738824 1308.705882 
C 248.738824 1308.705882 248.738824 1308.705882 248.738824 1308.705882 
L 226.376471 1308.705882 
z
" style="fill: #225da8"/>
   </g>
   <g id="patch_221">
    <path d="M 248.738824 1308.705882 
C 248.738824 1308.705882 248.738824 1308.705882 248.738824 1308.705882 
L 226.376471 1308.705882 
z
" style="fill: #081d58"/>
   </g>
   <g id="matplotlib.axis_87"/>
   <g id="matplotlib.axis_88"/>
   <g id="text_44">
    <!-- 8AK -->
    <g transform="translate(214.519908 1274.752941) scale(0.12 -0.12)">
     <defs>
      <path id="DejaVuSans-38" d="M 2034 2216 
Q 1584 2216 1326 1975 
Q 1069 1734 1069 1313 
Q 1069 891 1326 650 
Q 1584 409 2034 409 
Q 2484 409 2743 651 
Q 3003 894 3003 1313 
Q 3003 1734 2745 1975 
Q 2488 2216 2034 2216 
z
M 1403 2484 
Q 997 2584 770 2862 
Q 544 3141 544 3541 
Q 544 4100 942 4425 
Q 1341 4750 2034 4750 
Q 2731 4750 3128 4425 
Q 3525 4100 3525 3541 
Q 3525 3141 3298 2862 
Q 3072 2584 2669 2484 
Q 3125 2378 3379 2068 
Q 3634 1759 3634 1313 
Q 3634 634 3220 271 
Q 2806 -91 2034 -91 
Q 1263 -91 848 271 
Q 434 634 434 1313 
Q 434 1759 690 2068 
Q 947 2378 1403 2484 
z
M 1172 3481 
Q 1172 3119 1398 2916 
Q 1625 2713 2034 2713 
Q 2441 2713 2670 2916 
Q 2900 3119 2900 3481 
Q 2900 3844 2670 4047 
Q 2441 4250 2034 4250 
Q 1625 4250 1398 4047 
Q 1172 3844 1172 3481 
z
" transform="scale(0.015625)"/>
     </defs>
     <use xlink:href="#DejaVuSans-38"/>
     <use xlink:href="#DejaVuSans-41" x="63.623047"/>
     <use xlink:href="#DejaVuSans-4b" x="132.03125"/>
    </g>
   </g>
  </g>
  <g id="legend_1">
   <g id="patch_222">
    <path d="M 142 1723 
L 146 1723 
Q 148 1723 148 1721 
L 148 1717 
Q 148 1715 146 1715 
L 142 1715 
Q 140 1715 140 1717 
L 140 1721 
Q 140 1723 142 1723 
z
" style="fill: #ffffff; opacity: 0.8; stroke: #cccccc; stroke-linejoin: miter"/>
   </g>
  </g>
 </g>
</svg>
