<?xml version="1.0" encoding="utf-8" standalone="no"?>
<!DOCTYPE svg PUBLIC "-//W3C//DTD SVG 1.1//EN"
  "http://www.w3.org/Graphics/SVG/1.1/DTD/svg11.dtd">
<svg xmlns:xlink="http://www.w3.org/1999/xlink" width="72pt" height="72pt" viewBox="0 0 72 72" xmlns="http://www.w3.org/2000/svg" version="1.1">
 <metadata>
  <rdf:RDF xmlns:dc="http://purl.org/dc/elements/1.1/" xmlns:cc="http://creativecommons.org/ns#" xmlns:rdf="http://www.w3.org/1999/02/22-rdf-syntax-ns#">
   <cc:Work>
    <dc:type rdf:resource="http://purl.org/dc/dcmitype/StillImage"/>
    <dc:date>2025-05-09T11:28:37.720495</dc:date>
    <dc:format>image/svg+xml</dc:format>
    <dc:creator>
     <cc:Agent>
      <dc:title>Matplotlib v3.5.3, https://matplotlib.org/</dc:title>
     </cc:Agent>
    </dc:creator>
   </cc:Work>
  </rdf:RDF>
 </metadata>
 <defs>
  <style type="text/css">*{stroke-linejoin: round; stroke-linecap: butt}</style>
 </defs>
 <g id="figure_1">
  <g id="patch_1">
   <path d="M 0 72 
L 72 72 
L 72 0 
L 0 0 
L 0 72 
z
" style="fill: none; opacity: 0"/>
  </g>
  <g id="axes_1">
   <g id="patch_2">
    <path d="M 59.076 36.36 
C 59.076 31.351086 57.378948 26.486962 54.263091 22.565144 
C 51.147234 18.643327 46.792709 15.890547 41.913478 14.758148 
L 36.9 36.36 
L 59.076 36.36 
z
" style="fill: #ffffd9"/>
   </g>
   <g id="patch_3">
    <path d="M 41.913478 14.758148 
C 41.913478 14.758148 41.913478 14.758148 41.913478 14.758148 
L 36.9 36.36 
L 41.913478 14.758148 
z
" style="fill: #c6e9b4"/>
   </g>
   <g id="patch_4">
    <path d="M 41.913478 14.758148 
C 41.348528 14.627031 40.778651 14.518127 40.205162 14.431688 
C 39.631674 14.345248 39.055015 14.28134 38.476516 14.240109 
L 36.9 36.36 
L 41.913478 14.758148 
z
" style="fill: #40b5c4"/>
   </g>
   <g id="patch_5">
    <path d="M 38.476516 14.240109 
C 34.921828 13.986762 31.357896 14.59397 28.087652 16.010123 
C 24.817407 17.426276 21.936207 19.610079 19.68895 22.375911 
L 36.9 36.36 
L 38.476516 14.240109 
z
" style="fill: #225da8"/>
   </g>
   <g id="patch_6">
    <path d="M 19.68895 22.375911 
C 17.450319 25.131128 15.905674 28.384038 15.18533 31.860214 
C 14.464985 35.336389 14.589783 38.935247 15.549196 42.353173 
C 16.508608 45.7711 18.274874 48.909197 20.698985 51.502724 
C 23.123095 54.09625 26.134909 56.070162 29.480338 57.257933 
C 32.825767 58.445703 36.408011 58.812965 39.924857 58.328733 
C 43.441704 57.844501 46.791394 56.522787 49.691335 54.475096 
C 52.591276 52.427406 54.957557 49.712988 56.590551 46.560842 
C 58.223544 43.408696 59.076 39.910029 59.076 36.360002 
L 36.9 36.36 
L 19.68895 22.375911 
z
" style="fill: #081d58"/>
   </g>
   <g id="matplotlib.axis_1"/>
   <g id="matplotlib.axis_2"/>
   <g id="text_1">
    <g id="patch_7">
     <path d="M 25.018125 9.095625 
L 48.781875 9.095625 
L 48.781875 -10.438125 
L 25.018125 -10.438125 
z
" style="fill: #ffffff; opacity: 0.8"/>
    </g>
    <!-- 4A -->
    <g transform="translate(28.978125 2.64)scale(0.12 -0.12)">
     <defs>
      <path id="DejaVuSans-34" d="M 2419 4116 
L 825 1625 
L 2419 1625 
L 2419 4116 
z
M 2253 4666 
L 3047 4666 
L 3047 1625 
L 3713 1625 
L 3713 1100 
L 3047 1100 
L 3047 0 
L 2419 0 
L 2419 1100 
L 313 1100 
L 313 1709 
L 2253 4666 
z
" transform="scale(0.015625)"/>
      <path id="DejaVuSans-41" d="M 2188 4044 
L 1331 1722 
L 3047 1722 
L 2188 4044 
z
M 1831 4666 
L 2547 4666 
L 4325 0 
L 3669 0 
L 3244 1197 
L 1141 1197 
L 716 0 
L 50 0 
L 1831 4666 
z
" transform="scale(0.015625)"/>
     </defs>
     <use xlink:href="#DejaVuSans-34"/>
     <use xlink:href="#DejaVuSans-41" x="63.623047"/>
    </g>
   </g>
  </g>
 </g>
</svg>
