<?xml version="1.0" encoding="utf-8" standalone="no"?>
<!DOCTYPE svg PUBLIC "-//W3C//DTD SVG 1.1//EN"
  "http://www.w3.org/Graphics/SVG/1.1/DTD/svg11.dtd">
<svg xmlns:xlink="http://www.w3.org/1999/xlink" width="72pt" height="72pt" viewBox="0 0 72 72" xmlns="http://www.w3.org/2000/svg" version="1.1">
 <metadata>
  <rdf:RDF xmlns:dc="http://purl.org/dc/elements/1.1/" xmlns:cc="http://creativecommons.org/ns#" xmlns:rdf="http://www.w3.org/1999/02/22-rdf-syntax-ns#">
   <cc:Work>
    <dc:type rdf:resource="http://purl.org/dc/dcmitype/StillImage"/>
    <dc:date>2025-05-09T11:28:36.724436</dc:date>
    <dc:format>image/svg+xml</dc:format>
    <dc:creator>
     <cc:Agent>
      <dc:title>Matplotlib v3.5.3, https://matplotlib.org/</dc:title>
     </cc:Agent>
    </dc:creator>
   </cc:Work>
  </rdf:RDF>
 </metadata>
 <defs>
  <style type="text/css">*{stroke-linejoin: round; stroke-linecap: butt}</style>
 </defs>
 <g id="figure_1">
  <g id="patch_1">
   <path d="M 0 72 
L 72 72 
L 72 0 
L 0 0 
L 0 72 
z
" style="fill: none; opacity: 0"/>
  </g>
  <g id="axes_1">
   <g id="patch_2">
    <path d="M 59.076 36.36 
C 59.076 34.354993 58.804081 32.359216 58.267685 30.427291 
C 57.731288 28.495367 56.935354 26.645082 55.901665 24.927077 
L 36.9 36.36 
L 59.076 36.36 
z
" style="fill: #ffffd9"/>
   </g>
   <g id="patch_3">
    <path d="M 55.901665 24.927077 
C 55.901665 24.927077 55.901665 24.927077 55.901665 24.927077 
L 36.9 36.36 
L 55.901665 24.927077 
z
" style="fill: #c6e9b4"/>
   </g>
   <g id="patch_4">
    <path d="M 55.901665 24.927077 
C 54.21774 22.128374 51.936107 19.735957 49.220325 17.92133 
C 46.504544 16.106702 43.421096 14.914286 40.191021 14.429561 
L 36.9 36.36 
L 55.901665 24.927077 
z
" style="fill: #40b5c4"/>
   </g>
   <g id="patch_5">
    <path d="M 40.191021 14.429561 
C 40.191021 14.429561 40.191021 14.429561 40.191021 14.429561 
L 36.9 36.36 
L 40.191021 14.429561 
z
" style="fill: #225da8"/>
   </g>
   <g id="patch_6">
    <path d="M 40.191021 14.429561 
C 37.965687 14.095613 35.702431 14.102317 33.479115 14.449443 
C 31.255798 14.796568 29.098213 15.480088 27.080586 16.476487 
C 25.062958 17.472887 23.208694 18.770607 21.581585 20.325003 
C 19.954476 21.879399 18.573396 23.672439 17.48586 25.642438 
C 16.398323 27.612437 15.616945 29.736542 15.168608 31.941678 
C 14.72027 34.146814 14.610174 36.407401 14.842106 38.645668 
C 15.074038 40.883935 15.645308 43.073917 16.536264 45.140274 
C 17.427219 47.206631 18.627524 49.125391 20.095884 50.830545 
C 21.564245 52.535699 23.283628 54.007465 25.194881 55.195211 
C 27.106135 56.382957 29.187088 57.272905 31.366151 57.834438 
C 33.545213 58.395971 35.797106 58.622575 38.04436 58.506454 
C 40.291613 58.390333 42.508157 57.932834 44.617737 57.149697 
C 46.727317 56.36656 48.705461 55.266869 50.484115 53.888457 
C 52.262769 52.510044 53.821301 50.8689 55.106092 49.021485 
C 56.390883 47.174069 57.387029 45.141813 58.060261 42.994631 
C 58.733493 40.847449 59.076 38.610249 59.076 36.359998 
L 36.9 36.36 
L 40.191021 14.429561 
z
" style="fill: #081d58"/>
   </g>
   <g id="matplotlib.axis_1"/>
   <g id="matplotlib.axis_2"/>
   <g id="text_1">
    <g id="patch_7">
     <path d="M 25.018125 9.095625 
L 48.781875 9.095625 
L 48.781875 -10.438125 
L 25.018125 -10.438125 
z
" style="fill: #ffffff; opacity: 0.8"/>
    </g>
    <!-- 2A -->
    <g transform="translate(28.978125 2.64)scale(0.12 -0.12)">
     <defs>
      <path id="DejaVuSans-32" d="M 1228 531 
L 3431 531 
L 3431 0 
L 469 0 
L 469 531 
Q 828 903 1448 1529 
Q 2069 2156 2228 2338 
Q 2531 2678 2651 2914 
Q 2772 3150 2772 3378 
Q 2772 3750 2511 3984 
Q 2250 4219 1831 4219 
Q 1534 4219 1204 4116 
Q 875 4013 500 3803 
L 500 4441 
Q 881 4594 1212 4672 
Q 1544 4750 1819 4750 
Q 2544 4750 2975 4387 
Q 3406 4025 3406 3419 
Q 3406 3131 3298 2873 
Q 3191 2616 2906 2266 
Q 2828 2175 2409 1742 
Q 1991 1309 1228 531 
z
" transform="scale(0.015625)"/>
      <path id="DejaVuSans-41" d="M 2188 4044 
L 1331 1722 
L 3047 1722 
L 2188 4044 
z
M 1831 4666 
L 2547 4666 
L 4325 0 
L 3669 0 
L 3244 1197 
L 1141 1197 
L 716 0 
L 50 0 
L 1831 4666 
z
" transform="scale(0.015625)"/>
     </defs>
     <use xlink:href="#DejaVuSans-32"/>
     <use xlink:href="#DejaVuSans-41" x="63.623047"/>
    </g>
   </g>
  </g>
 </g>
</svg>
