<?xml version="1.0" encoding="utf-8" standalone="no"?>
<!DOCTYPE svg PUBLIC "-//W3C//DTD SVG 1.1//EN"
  "http://www.w3.org/Graphics/SVG/1.1/DTD/svg11.dtd">
<svg xmlns:xlink="http://www.w3.org/1999/xlink" width="72pt" height="72pt" viewBox="0 0 72 72" xmlns="http://www.w3.org/2000/svg" version="1.1">
 <metadata>
  <rdf:RDF xmlns:dc="http://purl.org/dc/elements/1.1/" xmlns:cc="http://creativecommons.org/ns#" xmlns:rdf="http://www.w3.org/1999/02/22-rdf-syntax-ns#">
   <cc:Work>
    <dc:type rdf:resource="http://purl.org/dc/dcmitype/StillImage"/>
    <dc:date>2025-05-09T11:28:36.925816</dc:date>
    <dc:format>image/svg+xml</dc:format>
    <dc:creator>
     <cc:Agent>
      <dc:title>Matplotlib v3.5.3, https://matplotlib.org/</dc:title>
     </cc:Agent>
    </dc:creator>
   </cc:Work>
  </rdf:RDF>
 </metadata>
 <defs>
  <style type="text/css">*{stroke-linejoin: round; stroke-linecap: butt}</style>
 </defs>
 <g id="figure_1">
  <g id="patch_1">
   <path d="M 0 72 
L 72 72 
L 72 0 
L 0 0 
L 0 72 
z
" style="fill: none; opacity: 0"/>
  </g>
  <g id="axes_1">
   <g id="patch_2">
    <path d="M 59.076 36.36 
C 59.076 34.741623 58.898839 33.128099 58.547686 31.548278 
C 58.196533 29.968457 57.673492 28.431813 56.987917 26.965822 
L 36.9 36.36 
L 59.076 36.36 
z
" style="fill: #ffffd9"/>
   </g>
   <g id="patch_3">
    <path d="M 56.987917 26.965822 
C 56.987917 26.965822 56.987917 26.965822 56.987917 26.965822 
L 36.9 36.36 
L 56.987917 26.965822 
z
" style="fill: #c6e9b4"/>
   </g>
   <g id="patch_4">
    <path d="M 56.987917 26.965822 
C 55.549656 23.890337 53.424132 21.185836 50.775702 19.061449 
C 48.127273 16.937062 45.026009 15.448995 41.711722 14.712314 
L 36.9 36.36 
L 56.987917 26.965822 
z
" style="fill: #40b5c4"/>
   </g>
   <g id="patch_5">
    <path d="M 41.711722 14.712314 
C 41.711722 14.712314 41.711722 14.712314 41.711722 14.712314 
L 36.9 36.36 
L 41.711722 14.712314 
z
" style="fill: #225da8"/>
   </g>
   <g id="patch_6">
    <path d="M 41.711722 14.712314 
C 39.483433 14.217023 37.191971 14.068739 34.918432 14.27271 
C 32.644893 14.476682 30.416418 15.030473 28.311874 15.914485 
C 26.20733 16.798498 24.251841 18.002178 22.514612 19.482927 
C 20.777383 20.963677 19.279153 22.703818 18.072945 24.641767 
C 16.866737 26.579717 15.966951 28.692338 15.405431 30.904866 
C 14.843911 33.117394 14.62736 35.403415 14.763441 37.682025 
C 14.899523 39.960635 15.386613 42.204634 16.207473 44.334604 
C 17.028333 46.464574 18.173164 48.455089 19.601449 50.235702 
C 21.029734 52.016316 22.724424 53.565772 24.625541 54.829235 
C 26.526658 56.092697 28.611508 57.055083 30.806306 57.682333 
C 33.001105 58.309583 35.279652 58.594209 37.561307 58.526137 
C 39.842962 58.458066 42.100488 58.038111 44.253989 57.281133 
C 46.407491 56.524156 48.43126 55.439193 50.253674 54.064642 
C 52.076089 52.690092 53.675393 51.042362 54.994986 49.179768 
C 56.314579 47.317174 57.338709 45.26195 58.031131 43.086833 
C 58.723553 40.911716 59.076 38.64267 59.076 36.36 
L 36.9 36.36 
L 41.711722 14.712314 
z
" style="fill: #081d58"/>
   </g>
   <g id="matplotlib.axis_1"/>
   <g id="matplotlib.axis_2"/>
   <g id="text_1">
    <g id="patch_7">
     <path d="M 25.005938 9.095625 
L 48.794063 9.095625 
L 48.794063 -10.438125 
L 25.005938 -10.438125 
z
" style="fill: #ffffff; opacity: 0.8"/>
    </g>
    <!-- 2B -->
    <g transform="translate(28.965938 2.64)scale(0.12 -0.12)">
     <defs>
      <path id="DejaVuSans-32" d="M 1228 531 
L 3431 531 
L 3431 0 
L 469 0 
L 469 531 
Q 828 903 1448 1529 
Q 2069 2156 2228 2338 
Q 2531 2678 2651 2914 
Q 2772 3150 2772 3378 
Q 2772 3750 2511 3984 
Q 2250 4219 1831 4219 
Q 1534 4219 1204 4116 
Q 875 4013 500 3803 
L 500 4441 
Q 881 4594 1212 4672 
Q 1544 4750 1819 4750 
Q 2544 4750 2975 4387 
Q 3406 4025 3406 3419 
Q 3406 3131 3298 2873 
Q 3191 2616 2906 2266 
Q 2828 2175 2409 1742 
Q 1991 1309 1228 531 
z
" transform="scale(0.015625)"/>
      <path id="DejaVuSans-42" d="M 1259 2228 
L 1259 519 
L 2272 519 
Q 2781 519 3026 730 
Q 3272 941 3272 1375 
Q 3272 1813 3026 2020 
Q 2781 2228 2272 2228 
L 1259 2228 
z
M 1259 4147 
L 1259 2741 
L 2194 2741 
Q 2656 2741 2882 2914 
Q 3109 3088 3109 3444 
Q 3109 3797 2882 3972 
Q 2656 4147 2194 4147 
L 1259 4147 
z
M 628 4666 
L 2241 4666 
Q 2963 4666 3353 4366 
Q 3744 4066 3744 3513 
Q 3744 3084 3544 2831 
Q 3344 2578 2956 2516 
Q 3422 2416 3680 2098 
Q 3938 1781 3938 1306 
Q 3938 681 3513 340 
Q 3088 0 2303 0 
L 628 0 
L 628 4666 
z
" transform="scale(0.015625)"/>
     </defs>
     <use xlink:href="#DejaVuSans-32"/>
     <use xlink:href="#DejaVuSans-42" x="63.623047"/>
    </g>
   </g>
  </g>
 </g>
</svg>
