<?xml version="1.0" encoding="utf-8" standalone="no"?>
<!DOCTYPE svg PUBLIC "-//W3C//DTD SVG 1.1//EN"
  "http://www.w3.org/Graphics/SVG/1.1/DTD/svg11.dtd">
<svg xmlns:xlink="http://www.w3.org/1999/xlink" width="72pt" height="72pt" viewBox="0 0 72 72" xmlns="http://www.w3.org/2000/svg" version="1.1">
 <metadata>
  <rdf:RDF xmlns:dc="http://purl.org/dc/elements/1.1/" xmlns:cc="http://creativecommons.org/ns#" xmlns:rdf="http://www.w3.org/1999/02/22-rdf-syntax-ns#">
   <cc:Work>
    <dc:type rdf:resource="http://purl.org/dc/dcmitype/StillImage"/>
    <dc:date>2025-05-01T14:38:35.807467</dc:date>
    <dc:format>image/svg+xml</dc:format>
    <dc:creator>
     <cc:Agent>
      <dc:title>Matplotlib v3.10.1, https://matplotlib.org/</dc:title>
     </cc:Agent>
    </dc:creator>
   </cc:Work>
  </rdf:RDF>
 </metadata>
 <defs>
  <style type="text/css">*{stroke-linejoin: round; stroke-linecap: butt}</style>
 </defs>
 <g id="figure_1">
  <g id="patch_1">
   <path d="M 0 72 
L 72 72 
L 72 0 
L 0 0 
L 0 72 
z
" style="fill: none; opacity: 0"/>
  </g>
  <g id="axes_1">
   <g id="patch_2">
    <path d="M 59.076 36.36 
C 59.076 36.36 59.076 36.36 59.076 36.36 
L 36.9 36.36 
z
" style="fill: #ffffd9"/>
   </g>
   <g id="patch_3">
    <path d="M 59.076 36.36 
C 59.076 36.36 59.076 36.36 59.076 36.36 
L 36.9 36.36 
z
" style="fill: #c6e9b4"/>
   </g>
   <g id="patch_4">
    <path d="M 59.076 36.36 
C 59.076 36.36 59.076 36.36 59.076 36.36 
L 36.9 36.36 
z
" style="fill: #40b5c4"/>
   </g>
   <g id="patch_5">
    <path d="M 59.076 36.36 
C 59.076 36.205181 59.074378 36.050366 59.071136 35.895581 
C 59.067893 35.740796 59.063032 35.586049 59.056549 35.431366 
L 36.9 36.36 
z
" style="fill: #225da8"/>
   </g>
   <g id="patch_6">
    <path d="M 59.056549 35.431366 
C 58.935419 32.541313 58.249993 29.702686 57.038983 27.075801 
C 55.827972 24.448916 54.114612 22.084173 51.995666 20.115128 
C 49.87672 18.146083 47.392846 16.610514 44.684323 15.595143 
C 41.975801 14.579772 39.094595 14.104084 36.203434 14.194943 
C 33.312272 14.285802 30.466621 14.941464 27.827199 16.1249 
C 25.187777 17.308337 22.805225 18.99684 20.814097 21.095049 
C 18.82297 23.193259 17.261473 25.660921 16.217796 28.358663 
C 15.174119 31.056404 14.668286 33.93247 14.728864 36.824425 
C 14.789443 39.716379 15.41527 42.56874 16.571003 45.22041 
C 17.726736 47.87208 19.3902 50.272187 21.467445 52.285175 
C 23.544689 54.298164 25.995854 55.885409 28.682518 56.95728 
C 31.369183 58.029151 34.239789 58.565074 37.132219 58.534784 
C 40.02465 58.504494 42.883412 57.908569 45.54704 56.780667 
C 48.210667 55.652766 50.628057 54.014532 52.662689 51.958481 
C 54.69732 49.90243 56.310157 47.468007 57.410102 44.792714 
C 58.510048 42.117421 59.076 39.252585 59.076 36.359996 
L 36.9 36.36 
z
" style="fill: #081d58"/>
   </g>
   <g id="matplotlib.axis_1"/>
   <g id="matplotlib.axis_2"/>
   <g id="text_1">
    <g id="patch_7">
     <path d="M 24.932813 9.095625 
L 48.867188 9.095625 
L 48.867188 -10.438125 
L 24.932813 -10.438125 
z
" style="fill: #ffffff; opacity: 0.8"/>
    </g>
    <!-- 3C -->
    <g transform="translate(28.892813 2.64) scale(0.12 -0.12)">
     <defs>
      <path id="DejaVuSans-33" d="M 2597 2516 
Q 3050 2419 3304 2112 
Q 3559 1806 3559 1356 
Q 3559 666 3084 287 
Q 2609 -91 1734 -91 
Q 1441 -91 1130 -33 
Q 819 25 488 141 
L 488 750 
Q 750 597 1062 519 
Q 1375 441 1716 441 
Q 2309 441 2620 675 
Q 2931 909 2931 1356 
Q 2931 1769 2642 2001 
Q 2353 2234 1838 2234 
L 1294 2234 
L 1294 2753 
L 1863 2753 
Q 2328 2753 2575 2939 
Q 2822 3125 2822 3475 
Q 2822 3834 2567 4026 
Q 2313 4219 1838 4219 
Q 1578 4219 1281 4162 
Q 984 4106 628 3988 
L 628 4550 
Q 988 4650 1302 4700 
Q 1616 4750 1894 4750 
Q 2613 4750 3031 4423 
Q 3450 4097 3450 3541 
Q 3450 3153 3228 2886 
Q 3006 2619 2597 2516 
z
" transform="scale(0.015625)"/>
      <path id="DejaVuSans-43" d="M 4122 4306 
L 4122 3641 
Q 3803 3938 3442 4084 
Q 3081 4231 2675 4231 
Q 1875 4231 1450 3742 
Q 1025 3253 1025 2328 
Q 1025 1406 1450 917 
Q 1875 428 2675 428 
Q 3081 428 3442 575 
Q 3803 722 4122 1019 
L 4122 359 
Q 3791 134 3420 21 
Q 3050 -91 2638 -91 
Q 1578 -91 968 557 
Q 359 1206 359 2328 
Q 359 3453 968 4101 
Q 1578 4750 2638 4750 
Q 3056 4750 3426 4639 
Q 3797 4528 4122 4306 
z
" transform="scale(0.015625)"/>
     </defs>
     <use xlink:href="#DejaVuSans-33"/>
     <use xlink:href="#DejaVuSans-43" transform="translate(63.623047 0)"/>
    </g>
   </g>
  </g>
 </g>
</svg>
