<?xml version="1.0" encoding="utf-8" standalone="no"?>
<!DOCTYPE svg PUBLIC "-//W3C//DTD SVG 1.1//EN"
  "http://www.w3.org/Graphics/SVG/1.1/DTD/svg11.dtd">
<svg xmlns:xlink="http://www.w3.org/1999/xlink" width="72pt" height="72pt" viewBox="0 0 72 72" xmlns="http://www.w3.org/2000/svg" version="1.1">
 <metadata>
  <rdf:RDF xmlns:dc="http://purl.org/dc/elements/1.1/" xmlns:cc="http://creativecommons.org/ns#" xmlns:rdf="http://www.w3.org/1999/02/22-rdf-syntax-ns#">
   <cc:Work>
    <dc:type rdf:resource="http://purl.org/dc/dcmitype/StillImage"/>
    <dc:date>2025-05-01T14:38:36.627736</dc:date>
    <dc:format>image/svg+xml</dc:format>
    <dc:creator>
     <cc:Agent>
      <dc:title>Matplotlib v3.10.1, https://matplotlib.org/</dc:title>
     </cc:Agent>
    </dc:creator>
   </cc:Work>
  </rdf:RDF>
 </metadata>
 <defs>
  <style type="text/css">*{stroke-linejoin: round; stroke-linecap: butt}</style>
 </defs>
 <g id="figure_1">
  <g id="patch_1">
   <path d="M 0 72 
L 72 72 
L 72 0 
L 0 0 
L 0 72 
z
" style="fill: none; opacity: 0"/>
  </g>
  <g id="axes_1">
   <g id="patch_2">
    <path d="M 59.076 36.36 
C 59.076 36.36 59.076 36.36 59.076 36.36 
L 36.9 36.36 
z
" style="fill: #ffffd9"/>
   </g>
   <g id="patch_3">
    <path d="M 59.076 36.36 
C 59.076 36.36 59.076 36.36 59.076 36.36 
L 36.9 36.36 
z
" style="fill: #c6e9b4"/>
   </g>
   <g id="patch_4">
    <path d="M 59.076 36.36 
C 59.076 36.36 59.076 36.36 59.076 36.36 
L 36.9 36.36 
z
" style="fill: #40b5c4"/>
   </g>
   <g id="patch_5">
    <path d="M 59.076 36.36 
C 59.076 33.043098 58.331828 29.768067 56.898462 26.776863 
C 55.465095 23.785659 53.378724 21.153802 50.793486 19.07573 
C 48.208249 16.997658 45.189415 15.525835 41.960012 14.769 
C 38.73061 14.012167 35.372172 13.989427 32.132817 14.702463 
C 28.893462 15.415498 25.854973 16.846307 23.241834 18.889182 
C 20.628693 20.932058 18.506878 23.53542 17.033139 26.50694 
C 15.559399 29.478461 14.770947 32.743118 14.726033 36.059716 
C 14.681118 39.376314 15.380875 42.661119 16.773606 45.671458 
L 36.9 36.36 
z
" style="fill: #225da8"/>
   </g>
   <g id="patch_6">
    <path d="M 16.773606 45.671458 
C 18.894958 50.256688 22.520841 53.982123 27.046944 56.226863 
C 31.573046 58.471602 36.733126 59.103604 41.667182 58.017537 
C 46.601239 56.931469 51.01904 54.191214 54.184276 50.253481 
C 57.349512 46.315748 59.076 41.41217 59.076 36.359996 
L 36.9 36.36 
z
" style="fill: #081d58"/>
   </g>
   <g id="matplotlib.axis_1"/>
   <g id="matplotlib.axis_2"/>
   <g id="text_1">
    <g id="patch_7">
     <path d="M 25.005938 9.095625 
L 48.794063 9.095625 
L 48.794063 -10.438125 
L 25.005938 -10.438125 
z
" style="fill: #ffffff; opacity: 0.8"/>
    </g>
    <!-- 6B -->
    <g transform="translate(28.965938 2.64) scale(0.12 -0.12)">
     <defs>
      <path id="DejaVuSans-36" d="M 2113 2584 
Q 1688 2584 1439 2293 
Q 1191 2003 1191 1497 
Q 1191 994 1439 701 
Q 1688 409 2113 409 
Q 2538 409 2786 701 
Q 3034 994 3034 1497 
Q 3034 2003 2786 2293 
Q 2538 2584 2113 2584 
z
M 3366 4563 
L 3366 3988 
Q 3128 4100 2886 4159 
Q 2644 4219 2406 4219 
Q 1781 4219 1451 3797 
Q 1122 3375 1075 2522 
Q 1259 2794 1537 2939 
Q 1816 3084 2150 3084 
Q 2853 3084 3261 2657 
Q 3669 2231 3669 1497 
Q 3669 778 3244 343 
Q 2819 -91 2113 -91 
Q 1303 -91 875 529 
Q 447 1150 447 2328 
Q 447 3434 972 4092 
Q 1497 4750 2381 4750 
Q 2619 4750 2861 4703 
Q 3103 4656 3366 4563 
z
" transform="scale(0.015625)"/>
      <path id="DejaVuSans-42" d="M 1259 2228 
L 1259 519 
L 2272 519 
Q 2781 519 3026 730 
Q 3272 941 3272 1375 
Q 3272 1813 3026 2020 
Q 2781 2228 2272 2228 
L 1259 2228 
z
M 1259 4147 
L 1259 2741 
L 2194 2741 
Q 2656 2741 2882 2914 
Q 3109 3088 3109 3444 
Q 3109 3797 2882 3972 
Q 2656 4147 2194 4147 
L 1259 4147 
z
M 628 4666 
L 2241 4666 
Q 2963 4666 3353 4366 
Q 3744 4066 3744 3513 
Q 3744 3084 3544 2831 
Q 3344 2578 2956 2516 
Q 3422 2416 3680 2098 
Q 3938 1781 3938 1306 
Q 3938 681 3513 340 
Q 3088 0 2303 0 
L 628 0 
L 628 4666 
z
" transform="scale(0.015625)"/>
     </defs>
     <use xlink:href="#DejaVuSans-36"/>
     <use xlink:href="#DejaVuSans-42" transform="translate(63.623047 0)"/>
    </g>
   </g>
  </g>
 </g>
</svg>
