<?xml version="1.0" encoding="utf-8" standalone="no"?>
<!DOCTYPE svg PUBLIC "-//W3C//DTD SVG 1.1//EN"
  "http://www.w3.org/Graphics/SVG/1.1/DTD/svg11.dtd">
<svg xmlns:xlink="http://www.w3.org/1999/xlink" width="72pt" height="72pt" viewBox="0 0 72 72" xmlns="http://www.w3.org/2000/svg" version="1.1">
 <metadata>
  <rdf:RDF xmlns:dc="http://purl.org/dc/elements/1.1/" xmlns:cc="http://creativecommons.org/ns#" xmlns:rdf="http://www.w3.org/1999/02/22-rdf-syntax-ns#">
   <cc:Work>
    <dc:type rdf:resource="http://purl.org/dc/dcmitype/StillImage"/>
    <dc:date>2025-05-09T11:28:37.780189</dc:date>
    <dc:format>image/svg+xml</dc:format>
    <dc:creator>
     <cc:Agent>
      <dc:title>Matplotlib v3.5.3, https://matplotlib.org/</dc:title>
     </cc:Agent>
    </dc:creator>
   </cc:Work>
  </rdf:RDF>
 </metadata>
 <defs>
  <style type="text/css">*{stroke-linejoin: round; stroke-linecap: butt}</style>
 </defs>
 <g id="figure_1">
  <g id="patch_1">
   <path d="M 0 72 
L 72 72 
L 72 0 
L 0 0 
L 0 72 
z
" style="fill: none; opacity: 0"/>
  </g>
  <g id="axes_1">
   <g id="patch_2">
    <path d="M 59.076 36.36 
C 59.076 34.484705 58.838126 32.61696 58.368078 30.80153 
C 57.898031 28.986099 57.199595 27.237602 56.289511 25.597944 
L 36.9 36.36 
L 59.076 36.36 
z
" style="fill: #ffffd9"/>
   </g>
   <g id="patch_3">
    <path d="M 56.289511 25.597944 
C 56.289511 25.597944 56.289511 25.597944 56.289511 25.597944 
L 36.9 36.36 
L 56.289511 25.597944 
z
" style="fill: #c6e9b4"/>
   </g>
   <g id="patch_4">
    <path d="M 56.289511 25.597944 
C 56.107727 25.270432 55.917674 24.947579 55.719535 24.629694 
C 55.521396 24.31181 55.315235 23.998997 55.10125 23.691556 
L 36.9 36.36 
L 56.289511 25.597944 
z
" style="fill: #40b5c4"/>
   </g>
   <g id="patch_5">
    <path d="M 55.10125 23.691556 
C 53.167183 20.912806 50.622217 18.613513 47.662057 16.97049 
C 44.701897 15.327467 41.404419 14.383939 38.023197 14.212463 
L 36.9 36.36 
L 55.10125 23.691556 
z
" style="fill: #225da8"/>
   </g>
   <g id="patch_6">
    <path d="M 38.023197 14.212463 
C 35.821438 14.100802 33.615286 14.318089 31.477617 14.857146 
C 29.339948 15.396203 27.294564 16.251027 25.40903 17.393382 
C 23.523497 18.535737 21.818808 19.952903 20.351276 21.598065 
C 18.883744 23.243228 17.669708 25.09807 16.749273 27.101319 
C 15.828837 29.104569 15.21225 31.233922 14.919879 33.419037 
C 14.627508 35.604152 14.662609 37.820702 15.024023 39.995464 
C 15.385436 42.170226 16.069138 44.278987 17.052542 46.252088 
C 18.035947 48.225188 19.308106 50.040659 20.826994 51.638529 
C 22.345882 53.236399 24.094589 54.598877 26.015349 55.680956 
C 27.936108 56.763035 30.007534 57.552666 32.161199 58.023766 
C 34.314865 58.494865 36.526791 58.642188 38.72391 58.460867 
C 40.92103 58.279546 43.078879 57.771601 45.126177 56.95381 
C 47.173474 56.136019 49.087426 55.017487 50.804806 53.635165 
C 52.522187 52.252843 54.023875 50.622121 55.260265 48.796867 
C 56.496654 46.971613 57.453979 44.97215 58.100615 42.864528 
C 58.747252 40.756906 59.076 38.56459 59.076 36.360002 
L 36.9 36.36 
L 38.023197 14.212463 
z
" style="fill: #081d58"/>
   </g>
   <g id="matplotlib.axis_1"/>
   <g id="matplotlib.axis_2"/>
   <g id="text_1">
    <g id="patch_7">
     <path d="M 25.005938 9.095625 
L 48.794063 9.095625 
L 48.794063 -10.438125 
L 25.005938 -10.438125 
z
" style="fill: #ffffff; opacity: 0.8"/>
    </g>
    <!-- 4B -->
    <g transform="translate(28.965938 2.64)scale(0.12 -0.12)">
     <defs>
      <path id="DejaVuSans-34" d="M 2419 4116 
L 825 1625 
L 2419 1625 
L 2419 4116 
z
M 2253 4666 
L 3047 4666 
L 3047 1625 
L 3713 1625 
L 3713 1100 
L 3047 1100 
L 3047 0 
L 2419 0 
L 2419 1100 
L 313 1100 
L 313 1709 
L 2253 4666 
z
" transform="scale(0.015625)"/>
      <path id="DejaVuSans-42" d="M 1259 2228 
L 1259 519 
L 2272 519 
Q 2781 519 3026 730 
Q 3272 941 3272 1375 
Q 3272 1813 3026 2020 
Q 2781 2228 2272 2228 
L 1259 2228 
z
M 1259 4147 
L 1259 2741 
L 2194 2741 
Q 2656 2741 2882 2914 
Q 3109 3088 3109 3444 
Q 3109 3797 2882 3972 
Q 2656 4147 2194 4147 
L 1259 4147 
z
M 628 4666 
L 2241 4666 
Q 2963 4666 3353 4366 
Q 3744 4066 3744 3513 
Q 3744 3084 3544 2831 
Q 3344 2578 2956 2516 
Q 3422 2416 3680 2098 
Q 3938 1781 3938 1306 
Q 3938 681 3513 340 
Q 3088 0 2303 0 
L 628 0 
L 628 4666 
z
" transform="scale(0.015625)"/>
     </defs>
     <use xlink:href="#DejaVuSans-34"/>
     <use xlink:href="#DejaVuSans-42" x="63.623047"/>
    </g>
   </g>
  </g>
 </g>
</svg>
