<?xml version="1.0" encoding="utf-8" standalone="no"?>
<!DOCTYPE svg PUBLIC "-//W3C//DTD SVG 1.1//EN"
  "http://www.w3.org/Graphics/SVG/1.1/DTD/svg11.dtd">
<svg xmlns:xlink="http://www.w3.org/1999/xlink" width="72pt" height="72pt" viewBox="0 0 72 72" xmlns="http://www.w3.org/2000/svg" version="1.1">
 <metadata>
  <rdf:RDF xmlns:dc="http://purl.org/dc/elements/1.1/" xmlns:cc="http://creativecommons.org/ns#" xmlns:rdf="http://www.w3.org/1999/02/22-rdf-syntax-ns#">
   <cc:Work>
    <dc:type rdf:resource="http://purl.org/dc/dcmitype/StillImage"/>
    <dc:date>2025-05-09T11:28:35.351478</dc:date>
    <dc:format>image/svg+xml</dc:format>
    <dc:creator>
     <cc:Agent>
      <dc:title>Matplotlib v3.5.3, https://matplotlib.org/</dc:title>
     </cc:Agent>
    </dc:creator>
   </cc:Work>
  </rdf:RDF>
 </metadata>
 <defs>
  <style type="text/css">*{stroke-linejoin: round; stroke-linecap: butt}</style>
 </defs>
 <g id="figure_1">
  <g id="patch_1">
   <path d="M 0 72 
L 72 72 
L 72 0 
L 0 0 
L 0 72 
z
" style="fill: none; opacity: 0"/>
  </g>
  <g id="axes_1">
   <g id="patch_2">
    <path d="M 59.076 36.36 
C 59.076 32.876915 58.255391 29.442332 56.680878 26.335438 
C 55.106365 23.228544 52.821798 20.535867 50.012883 18.476285 
C 47.203968 16.416703 43.948933 15.047576 40.512371 14.480198 
C 37.075808 13.912819 33.553426 14.162989 30.231549 15.210373 
L 36.9 36.36 
L 59.076 36.36 
z
" style="fill: #ffffd9"/>
   </g>
   <g id="patch_3">
    <path d="M 30.231549 15.210373 
C 30.231549 15.210373 30.231549 15.210373 30.231549 15.210373 
L 36.9 36.36 
L 30.231549 15.210373 
z
" style="fill: #c6e9b4"/>
   </g>
   <g id="patch_4">
    <path d="M 30.231549 15.210373 
C 25.576645 16.678058 21.533998 19.642249 18.734485 23.640368 
C 15.934972 27.638487 14.532209 32.451145 14.745107 37.327302 
L 36.9 36.36 
L 30.231549 15.210373 
z
" style="fill: #40b5c4"/>
   </g>
   <g id="patch_5">
    <path d="M 14.745107 37.327302 
C 14.745107 37.327302 14.745107 37.327302 14.745107 37.327302 
L 36.9 36.36 
L 14.745107 37.327302 
z
" style="fill: #225da8"/>
   </g>
   <g id="patch_6">
    <path d="M 14.745107 37.327302 
C 14.997905 43.117347 17.510685 48.583663 21.740656 52.545464 
C 25.970627 56.507266 31.589583 58.657152 37.383765 58.530723 
C 43.177947 58.404294 48.697779 56.011359 52.750913 51.868821 
C 56.804048 47.726282 59.075999 42.155563 59.076 36.360002 
L 36.9 36.36 
L 14.745107 37.327302 
z
" style="fill: #081d58"/>
   </g>
   <g id="matplotlib.axis_1"/>
   <g id="matplotlib.axis_2"/>
   <g id="text_1">
    <g id="patch_7">
     <path d="M 25.018125 9.095625 
L 48.781875 9.095625 
L 48.781875 -10.438125 
L 25.018125 -10.438125 
z
" style="fill: #ffffff; opacity: 0.8"/>
    </g>
    <!-- 1A -->
    <g transform="translate(28.978125 2.64)scale(0.12 -0.12)">
     <defs>
      <path id="DejaVuSans-31" d="M 794 531 
L 1825 531 
L 1825 4091 
L 703 3866 
L 703 4441 
L 1819 4666 
L 2450 4666 
L 2450 531 
L 3481 531 
L 3481 0 
L 794 0 
L 794 531 
z
" transform="scale(0.015625)"/>
      <path id="DejaVuSans-41" d="M 2188 4044 
L 1331 1722 
L 3047 1722 
L 2188 4044 
z
M 1831 4666 
L 2547 4666 
L 4325 0 
L 3669 0 
L 3244 1197 
L 1141 1197 
L 716 0 
L 50 0 
L 1831 4666 
z
" transform="scale(0.015625)"/>
     </defs>
     <use xlink:href="#DejaVuSans-31"/>
     <use xlink:href="#DejaVuSans-41" x="63.623047"/>
    </g>
   </g>
  </g>
 </g>
</svg>
