<?xml version="1.0" encoding="utf-8" standalone="no"?>
<!DOCTYPE svg PUBLIC "-//W3C//DTD SVG 1.1//EN"
  "http://www.w3.org/Graphics/SVG/1.1/DTD/svg11.dtd">
<svg xmlns:xlink="http://www.w3.org/1999/xlink" width="72pt" height="72pt" viewBox="0 0 72 72" xmlns="http://www.w3.org/2000/svg" version="1.1">
 <metadata>
  <rdf:RDF xmlns:dc="http://purl.org/dc/elements/1.1/" xmlns:cc="http://creativecommons.org/ns#" xmlns:rdf="http://www.w3.org/1999/02/22-rdf-syntax-ns#">
   <cc:Work>
    <dc:type rdf:resource="http://purl.org/dc/dcmitype/StillImage"/>
    <dc:date>2025-05-01T14:38:36.322496</dc:date>
    <dc:format>image/svg+xml</dc:format>
    <dc:creator>
     <cc:Agent>
      <dc:title>Matplotlib v3.10.1, https://matplotlib.org/</dc:title>
     </cc:Agent>
    </dc:creator>
   </cc:Work>
  </rdf:RDF>
 </metadata>
 <defs>
  <style type="text/css">*{stroke-linejoin: round; stroke-linecap: butt}</style>
 </defs>
 <g id="figure_1">
  <g id="patch_1">
   <path d="M 0 72 
L 72 72 
L 72 0 
L 0 0 
L 0 72 
z
" style="fill: none; opacity: 0"/>
  </g>
  <g id="axes_1">
   <g id="patch_2">
    <path d="M 59.076 36.36 
C 59.076 36.36 59.076 36.36 59.076 36.36 
L 36.9 36.36 
z
" style="fill: #ffffd9"/>
   </g>
   <g id="patch_3">
    <path d="M 59.076 36.36 
C 59.076 36.36 59.076 36.36 59.076 36.36 
L 36.9 36.36 
z
" style="fill: #c6e9b4"/>
   </g>
   <g id="patch_4">
    <path d="M 59.076 36.36 
C 59.076 36.311986 59.075844 36.263973 59.075532 36.21596 
C 59.07522 36.167947 59.074752 36.119935 59.074128 36.071926 
L 36.9 36.36 
z
" style="fill: #40b5c4"/>
   </g>
   <g id="patch_5">
    <path d="M 59.074128 36.071926 
C 59.026434 32.400705 58.06775 28.798154 56.284435 25.588804 
C 54.50112 22.379454 51.948384 19.662657 48.856184 17.683152 
C 45.763984 15.703648 42.228049 14.522716 38.566906 14.246738 
C 34.905762 13.97076 31.232749 14.608278 27.878746 16.101867 
C 24.524743 17.595456 21.593581 19.898875 19.349309 22.804624 
C 17.105038 25.710374 15.617133 29.128496 15.019628 32.751082 
C 14.422124 36.373668 14.73352 40.088569 15.925762 43.561132 
C 17.118004 47.033695 19.154187 50.156422 21.850882 52.648002 
L 36.9 36.36 
z
" style="fill: #225da8"/>
   </g>
   <g id="patch_6">
    <path d="M 21.850882 52.648002 
C 25.017198 55.573485 28.968901 57.513172 33.220048 58.228538 
C 37.471196 58.943905 41.840086 58.404376 45.789485 56.6763 
C 49.738883 54.948224 53.099984 52.10546 55.459476 48.49758 
C 57.818969 44.889699 59.076 40.670913 59.076 36.359996 
L 36.9 36.36 
z
" style="fill: #081d58"/>
   </g>
   <g id="matplotlib.axis_1"/>
   <g id="matplotlib.axis_2"/>
   <g id="text_1">
    <g id="patch_7">
     <path d="M 25.018125 9.095625 
L 48.781875 9.095625 
L 48.781875 -10.438125 
L 25.018125 -10.438125 
z
" style="fill: #ffffff; opacity: 0.8"/>
    </g>
    <!-- 5A -->
    <g transform="translate(28.978125 2.64) scale(0.12 -0.12)">
     <defs>
      <path id="DejaVuSans-35" d="M 691 4666 
L 3169 4666 
L 3169 4134 
L 1269 4134 
L 1269 2991 
Q 1406 3038 1543 3061 
Q 1681 3084 1819 3084 
Q 2600 3084 3056 2656 
Q 3513 2228 3513 1497 
Q 3513 744 3044 326 
Q 2575 -91 1722 -91 
Q 1428 -91 1123 -41 
Q 819 9 494 109 
L 494 744 
Q 775 591 1075 516 
Q 1375 441 1709 441 
Q 2250 441 2565 725 
Q 2881 1009 2881 1497 
Q 2881 1984 2565 2268 
Q 2250 2553 1709 2553 
Q 1456 2553 1204 2497 
Q 953 2441 691 2322 
L 691 4666 
z
" transform="scale(0.015625)"/>
      <path id="DejaVuSans-41" d="M 2188 4044 
L 1331 1722 
L 3047 1722 
L 2188 4044 
z
M 1831 4666 
L 2547 4666 
L 4325 0 
L 3669 0 
L 3244 1197 
L 1141 1197 
L 716 0 
L 50 0 
L 1831 4666 
z
" transform="scale(0.015625)"/>
     </defs>
     <use xlink:href="#DejaVuSans-35"/>
     <use xlink:href="#DejaVuSans-41" transform="translate(63.623047 0)"/>
    </g>
   </g>
  </g>
 </g>
</svg>
