<?xml version="1.0" encoding="utf-8" standalone="no"?>
<!DOCTYPE svg PUBLIC "-//W3C//DTD SVG 1.1//EN"
  "http://www.w3.org/Graphics/SVG/1.1/DTD/svg11.dtd">
<svg xmlns:xlink="http://www.w3.org/1999/xlink" width="72pt" height="72pt" viewBox="0 0 72 72" xmlns="http://www.w3.org/2000/svg" version="1.1">
 <metadata>
  <rdf:RDF xmlns:dc="http://purl.org/dc/elements/1.1/" xmlns:cc="http://creativecommons.org/ns#" xmlns:rdf="http://www.w3.org/1999/02/22-rdf-syntax-ns#">
   <cc:Work>
    <dc:type rdf:resource="http://purl.org/dc/dcmitype/StillImage"/>
    <dc:date>2025-05-09T11:28:37.900619</dc:date>
    <dc:format>image/svg+xml</dc:format>
    <dc:creator>
     <cc:Agent>
      <dc:title>Matplotlib v3.5.3, https://matplotlib.org/</dc:title>
     </cc:Agent>
    </dc:creator>
   </cc:Work>
  </rdf:RDF>
 </metadata>
 <defs>
  <style type="text/css">*{stroke-linejoin: round; stroke-linecap: butt}</style>
 </defs>
 <g id="figure_1">
  <g id="patch_1">
   <path d="M 0 72 
L 72 72 
L 72 0 
L 0 0 
L 0 72 
z
" style="fill: none; opacity: 0"/>
  </g>
  <g id="axes_1">
   <g id="patch_2">
    <path d="M 59.076 36.36 
C 59.076 31.791013 57.663957 27.331782 55.034063 23.595567 
C 52.404169 19.859352 48.682775 17.025657 44.381669 15.484186 
L 36.9 36.36 
L 59.076 36.36 
z
" style="fill: #ffffd9"/>
   </g>
   <g id="patch_3">
    <path d="M 44.381669 15.484186 
C 44.381669 15.484186 44.381669 15.484186 44.381669 15.484186 
L 36.9 36.36 
L 44.381669 15.484186 
z
" style="fill: #c6e9b4"/>
   </g>
   <g id="patch_4">
    <path d="M 44.381669 15.484186 
C 44.345295 15.47115 44.308886 15.458209 44.272444 15.445363 
C 44.236002 15.432517 44.199526 15.419766 44.163017 15.407111 
L 36.9 36.36 
L 44.381669 15.484186 
z
" style="fill: #40b5c4"/>
   </g>
   <g id="patch_5">
    <path d="M 44.163017 15.407111 
C 41.376182 14.441095 38.42442 14.040709 35.48095 14.229449 
C 32.53748 14.41819 29.661028 15.192291 27.020394 16.506326 
C 24.37976 17.820361 22.027627 19.648114 20.102027 21.882325 
C 18.176426 24.116537 16.715776 26.712632 15.805792 29.518263 
C 14.895808 32.323894 14.554645 35.283086 14.802325 38.222183 
C 15.050004 41.161281 15.881584 44.021645 17.248264 46.63542 
C 18.614945 49.249196 20.489459 51.564234 22.761804 53.444683 
C 25.034149 55.325131 27.658989 56.733471 30.48229 57.587058 
L 36.9 36.36 
L 44.163017 15.407111 
z
" style="fill: #225da8"/>
   </g>
   <g id="patch_6">
    <path d="M 30.48229 57.587058 
C 33.795112 58.588644 37.29686 58.800932 40.706416 58.20688 
C 44.115971 57.612828 47.339585 56.228769 50.118468 54.165816 
C 52.897351 52.102862 55.155094 49.417736 56.710448 46.325999 
C 58.265801 43.234261 59.076 39.820922 59.076 36.360002 
L 36.9 36.36 
L 30.48229 57.587058 
z
" style="fill: #081d58"/>
   </g>
   <g id="matplotlib.axis_1"/>
   <g id="matplotlib.axis_2"/>
   <g id="text_1">
    <g id="patch_7">
     <path d="M 25.018125 9.095625 
L 48.781875 9.095625 
L 48.781875 -10.438125 
L 25.018125 -10.438125 
z
" style="fill: #ffffff; opacity: 0.8"/>
    </g>
    <!-- 5A -->
    <g transform="translate(28.978125 2.64)scale(0.12 -0.12)">
     <defs>
      <path id="DejaVuSans-35" d="M 691 4666 
L 3169 4666 
L 3169 4134 
L 1269 4134 
L 1269 2991 
Q 1406 3038 1543 3061 
Q 1681 3084 1819 3084 
Q 2600 3084 3056 2656 
Q 3513 2228 3513 1497 
Q 3513 744 3044 326 
Q 2575 -91 1722 -91 
Q 1428 -91 1123 -41 
Q 819 9 494 109 
L 494 744 
Q 775 591 1075 516 
Q 1375 441 1709 441 
Q 2250 441 2565 725 
Q 2881 1009 2881 1497 
Q 2881 1984 2565 2268 
Q 2250 2553 1709 2553 
Q 1456 2553 1204 2497 
Q 953 2441 691 2322 
L 691 4666 
z
" transform="scale(0.015625)"/>
      <path id="DejaVuSans-41" d="M 2188 4044 
L 1331 1722 
L 3047 1722 
L 2188 4044 
z
M 1831 4666 
L 2547 4666 
L 4325 0 
L 3669 0 
L 3244 1197 
L 1141 1197 
L 716 0 
L 50 0 
L 1831 4666 
z
" transform="scale(0.015625)"/>
     </defs>
     <use xlink:href="#DejaVuSans-35"/>
     <use xlink:href="#DejaVuSans-41" x="63.623047"/>
    </g>
   </g>
  </g>
 </g>
</svg>
