<?xml version="1.0" encoding="utf-8" standalone="no"?>
<!DOCTYPE svg PUBLIC "-//W3C//DTD SVG 1.1//EN"
  "http://www.w3.org/Graphics/SVG/1.1/DTD/svg11.dtd">
<svg xmlns:xlink="http://www.w3.org/1999/xlink" width="72pt" height="72pt" viewBox="0 0 72 72" xmlns="http://www.w3.org/2000/svg" version="1.1">
 <metadata>
  <rdf:RDF xmlns:dc="http://purl.org/dc/elements/1.1/" xmlns:cc="http://creativecommons.org/ns#" xmlns:rdf="http://www.w3.org/1999/02/22-rdf-syntax-ns#">
   <cc:Work>
    <dc:type rdf:resource="http://purl.org/dc/dcmitype/StillImage"/>
    <dc:date>2025-05-01T14:38:37.000895</dc:date>
    <dc:format>image/svg+xml</dc:format>
    <dc:creator>
     <cc:Agent>
      <dc:title>Matplotlib v3.10.1, https://matplotlib.org/</dc:title>
     </cc:Agent>
    </dc:creator>
   </cc:Work>
  </rdf:RDF>
 </metadata>
 <defs>
  <style type="text/css">*{stroke-linejoin: round; stroke-linecap: butt}</style>
 </defs>
 <g id="figure_1">
  <g id="patch_1">
   <path d="M 0 72 
L 72 72 
L 72 0 
L 0 0 
L 0 72 
z
" style="fill: none; opacity: 0"/>
  </g>
  <g id="axes_1">
   <g id="patch_2">
    <path d="M 59.076 36.36 
C 59.076 36.36 59.076 36.36 59.076 36.36 
L 36.9 36.36 
z
" style="fill: #ffffd9"/>
   </g>
   <g id="patch_3">
    <path d="M 59.076 36.36 
C 59.076 36.36 59.076 36.36 59.076 36.36 
L 36.9 36.36 
z
" style="fill: #c6e9b4"/>
   </g>
   <g id="patch_4">
    <path d="M 59.076 36.36 
C 59.076 36.36 59.076 36.36 59.076 36.36 
L 36.9 36.36 
z
" style="fill: #40b5c4"/>
   </g>
   <g id="patch_5">
    <path d="M 59.076 36.36 
C 59.076 30.480815 56.738011 24.836411 52.5808 20.6792 
C 48.423589 16.521989 42.779184 14.184 36.899999 14.184 
C 31.020815 14.184 25.376411 16.521989 21.2192 20.6792 
C 17.061989 24.836411 14.724 30.480817 14.724 36.360002 
L 36.9 36.36 
z
" style="fill: #225da8"/>
   </g>
   <g id="patch_6">
    <path d="M 14.724 36.360002 
C 14.724 42.239187 17.061991 47.883591 21.219203 52.040802 
C 25.376415 56.198013 31.020815 58.536 36.9 58.536 
C 42.779185 58.536 48.423595 56.198008 52.580805 52.040794 
C 56.738015 47.883581 59.076 42.239181 59.076 36.359996 
L 36.9 36.36 
z
" style="fill: #081d58"/>
   </g>
   <g id="matplotlib.axis_1"/>
   <g id="matplotlib.axis_2"/>
   <g id="text_1">
    <g id="patch_7">
     <path d="M 25.005938 9.095625 
L 48.794063 9.095625 
L 48.794063 -10.438125 
L 25.005938 -10.438125 
z
" style="fill: #ffffff; opacity: 0.8"/>
    </g>
    <!-- 7B -->
    <g transform="translate(28.965938 2.64) scale(0.12 -0.12)">
     <defs>
      <path id="DejaVuSans-37" d="M 525 4666 
L 3525 4666 
L 3525 4397 
L 1831 0 
L 1172 0 
L 2766 4134 
L 525 4134 
L 525 4666 
z
" transform="scale(0.015625)"/>
      <path id="DejaVuSans-42" d="M 1259 2228 
L 1259 519 
L 2272 519 
Q 2781 519 3026 730 
Q 3272 941 3272 1375 
Q 3272 1813 3026 2020 
Q 2781 2228 2272 2228 
L 1259 2228 
z
M 1259 4147 
L 1259 2741 
L 2194 2741 
Q 2656 2741 2882 2914 
Q 3109 3088 3109 3444 
Q 3109 3797 2882 3972 
Q 2656 4147 2194 4147 
L 1259 4147 
z
M 628 4666 
L 2241 4666 
Q 2963 4666 3353 4366 
Q 3744 4066 3744 3513 
Q 3744 3084 3544 2831 
Q 3344 2578 2956 2516 
Q 3422 2416 3680 2098 
Q 3938 1781 3938 1306 
Q 3938 681 3513 340 
Q 3088 0 2303 0 
L 628 0 
L 628 4666 
z
" transform="scale(0.015625)"/>
     </defs>
     <use xlink:href="#DejaVuSans-37"/>
     <use xlink:href="#DejaVuSans-42" transform="translate(63.623047 0)"/>
    </g>
   </g>
  </g>
 </g>
</svg>
