<?xml version="1.0" encoding="utf-8" standalone="no"?>
<!DOCTYPE svg PUBLIC "-//W3C//DTD SVG 1.1//EN"
  "http://www.w3.org/Graphics/SVG/1.1/DTD/svg11.dtd">
<svg xmlns:xlink="http://www.w3.org/1999/xlink" width="72pt" height="72pt" viewBox="0 0 72 72" xmlns="http://www.w3.org/2000/svg" version="1.1">
 <metadata>
  <rdf:RDF xmlns:dc="http://purl.org/dc/elements/1.1/" xmlns:cc="http://creativecommons.org/ns#" xmlns:rdf="http://www.w3.org/1999/02/22-rdf-syntax-ns#">
   <cc:Work>
    <dc:type rdf:resource="http://purl.org/dc/dcmitype/StillImage"/>
    <dc:date>2025-05-09T11:28:37.844565</dc:date>
    <dc:format>image/svg+xml</dc:format>
    <dc:creator>
     <cc:Agent>
      <dc:title>Matplotlib v3.5.3, https://matplotlib.org/</dc:title>
     </cc:Agent>
    </dc:creator>
   </cc:Work>
  </rdf:RDF>
 </metadata>
 <defs>
  <style type="text/css">*{stroke-linejoin: round; stroke-linecap: butt}</style>
 </defs>
 <g id="figure_1">
  <g id="patch_1">
   <path d="M 0 72 
L 72 72 
L 72 0 
L 0 0 
L 0 72 
z
" style="fill: none; opacity: 0"/>
  </g>
  <g id="axes_1">
   <g id="patch_2">
    <path d="M 59.076 36.36 
C 59.076 31.055128 57.172478 25.92241 53.713484 21.900341 
C 50.254491 17.878273 45.464529 15.227904 40.219423 14.433842 
L 36.9 36.36 
L 59.076 36.36 
z
" style="fill: #ffffd9"/>
   </g>
   <g id="patch_3">
    <path d="M 40.219423 14.433842 
C 40.219423 14.433842 40.219423 14.433842 40.219423 14.433842 
L 36.9 36.36 
L 40.219423 14.433842 
z
" style="fill: #c6e9b4"/>
   </g>
   <g id="patch_4">
    <path d="M 40.219423 14.433842 
C 39.919921 14.3885 39.619521 14.3493 39.318413 14.316265 
C 39.017305 14.283231 38.715552 14.256369 38.413343 14.235697 
L 36.9 36.36 
L 40.219423 14.433842 
z
" style="fill: #40b5c4"/>
   </g>
   <g id="patch_5">
    <path d="M 38.413343 14.235697 
C 34.870999 13.993394 31.321728 14.605351 28.065058 16.019922 
C 24.808387 17.434494 21.938581 19.610736 19.697827 22.364993 
C 17.457072 25.119251 15.910227 28.371801 15.187831 31.848158 
C 14.465436 35.324516 14.5884 38.924057 15.546346 42.343012 
L 36.9 36.36 
L 38.413343 14.235697 
z
" style="fill: #225da8"/>
   </g>
   <g id="patch_6">
    <path d="M 15.546346 42.343012 
C 16.991628 47.501293 20.258161 51.965155 24.73753 54.903174 
C 29.2169 57.841193 34.612595 59.058887 39.919631 58.329452 
C 45.226667 57.600016 50.093745 54.971738 53.61434 50.934149 
C 57.134935 46.89656 59.076 41.716931 59.076 36.36 
L 36.9 36.36 
L 15.546346 42.343012 
z
" style="fill: #081d58"/>
   </g>
   <g id="matplotlib.axis_1"/>
   <g id="matplotlib.axis_2"/>
   <g id="text_1">
    <g id="patch_7">
     <path d="M 24.932813 9.095625 
L 48.867188 9.095625 
L 48.867188 -10.438125 
L 24.932813 -10.438125 
z
" style="fill: #ffffff; opacity: 0.8"/>
    </g>
    <!-- 4C -->
    <g transform="translate(28.892813 2.64)scale(0.12 -0.12)">
     <defs>
      <path id="DejaVuSans-34" d="M 2419 4116 
L 825 1625 
L 2419 1625 
L 2419 4116 
z
M 2253 4666 
L 3047 4666 
L 3047 1625 
L 3713 1625 
L 3713 1100 
L 3047 1100 
L 3047 0 
L 2419 0 
L 2419 1100 
L 313 1100 
L 313 1709 
L 2253 4666 
z
" transform="scale(0.015625)"/>
      <path id="DejaVuSans-43" d="M 4122 4306 
L 4122 3641 
Q 3803 3938 3442 4084 
Q 3081 4231 2675 4231 
Q 1875 4231 1450 3742 
Q 1025 3253 1025 2328 
Q 1025 1406 1450 917 
Q 1875 428 2675 428 
Q 3081 428 3442 575 
Q 3803 722 4122 1019 
L 4122 359 
Q 3791 134 3420 21 
Q 3050 -91 2638 -91 
Q 1578 -91 968 557 
Q 359 1206 359 2328 
Q 359 3453 968 4101 
Q 1578 4750 2638 4750 
Q 3056 4750 3426 4639 
Q 3797 4528 4122 4306 
z
" transform="scale(0.015625)"/>
     </defs>
     <use xlink:href="#DejaVuSans-34"/>
     <use xlink:href="#DejaVuSans-43" x="63.623047"/>
    </g>
   </g>
  </g>
 </g>
</svg>
