<?xml version="1.0" encoding="utf-8" standalone="no"?>
<!DOCTYPE svg PUBLIC "-//W3C//DTD SVG 1.1//EN"
  "http://www.w3.org/Graphics/SVG/1.1/DTD/svg11.dtd">
<svg xmlns:xlink="http://www.w3.org/1999/xlink" width="72pt" height="72pt" viewBox="0 0 72 72" xmlns="http://www.w3.org/2000/svg" version="1.1">
 <metadata>
  <rdf:RDF xmlns:dc="http://purl.org/dc/elements/1.1/" xmlns:cc="http://creativecommons.org/ns#" xmlns:rdf="http://www.w3.org/1999/02/22-rdf-syntax-ns#">
   <cc:Work>
    <dc:type rdf:resource="http://purl.org/dc/dcmitype/StillImage"/>
    <dc:date>2025-05-09T11:28:37.964038</dc:date>
    <dc:format>image/svg+xml</dc:format>
    <dc:creator>
     <cc:Agent>
      <dc:title>Matplotlib v3.5.3, https://matplotlib.org/</dc:title>
     </cc:Agent>
    </dc:creator>
   </cc:Work>
  </rdf:RDF>
 </metadata>
 <defs>
  <style type="text/css">*{stroke-linejoin: round; stroke-linecap: butt}</style>
 </defs>
 <g id="figure_1">
  <g id="patch_1">
   <path d="M 0 72 
L 72 72 
L 72 0 
L 0 0 
L 0 72 
z
" style="fill: none; opacity: 0"/>
  </g>
  <g id="axes_1">
   <g id="patch_2">
    <path d="M 59.076 36.36 
C 59.076 33.438202 58.498558 30.545004 57.376937 27.847066 
C 56.255315 25.149128 54.611473 22.699268 52.540102 20.638607 
L 36.9 36.36 
L 59.076 36.36 
z
" style="fill: #ffffd9"/>
   </g>
   <g id="patch_3">
    <path d="M 52.540102 20.638607 
C 52.540102 20.638607 52.540102 20.638607 52.540102 20.638607 
L 36.9 36.36 
L 52.540102 20.638607 
z
" style="fill: #c6e9b4"/>
   </g>
   <g id="patch_4">
    <path d="M 52.540102 20.638607 
C 52.431432 20.530499 52.321643 20.42352 52.210755 20.317688 
C 52.099866 20.211856 51.987883 20.107177 51.874824 20.003667 
L 36.9 36.36 
L 52.540102 20.638607 
z
" style="fill: #40b5c4"/>
   </g>
   <g id="patch_5">
    <path d="M 51.874824 20.003667 
C 48.687133 17.085219 44.714749 15.161335 40.448552 14.469757 
C 36.182356 13.778178 31.805625 14.348616 27.859209 16.110578 
C 23.912793 17.872541 20.566231 20.750334 18.23307 24.388338 
C 15.899909 28.026342 14.680383 32.268266 14.725192 36.589921 
L 36.9 36.36 
L 51.874824 20.003667 
z
" style="fill: #225da8"/>
   </g>
   <g id="patch_6">
    <path d="M 14.725192 36.589921 
C 14.785941 42.448913 17.166361 48.051448 21.341609 52.162261 
C 25.516857 56.273074 31.155734 58.566077 37.014962 58.535702 
C 42.87419 58.505327 48.48899 56.153983 52.621393 52.000102 
C 56.753795 47.846221 59.076 42.219307 59.076 36.36 
L 36.9 36.36 
L 14.725192 36.589921 
z
" style="fill: #081d58"/>
   </g>
   <g id="matplotlib.axis_1"/>
   <g id="matplotlib.axis_2"/>
   <g id="text_1">
    <g id="patch_7">
     <path d="M 25.005938 9.095625 
L 48.794063 9.095625 
L 48.794063 -10.438125 
L 25.005938 -10.438125 
z
" style="fill: #ffffff; opacity: 0.8"/>
    </g>
    <!-- 5B -->
    <g transform="translate(28.965938 2.64)scale(0.12 -0.12)">
     <defs>
      <path id="DejaVuSans-35" d="M 691 4666 
L 3169 4666 
L 3169 4134 
L 1269 4134 
L 1269 2991 
Q 1406 3038 1543 3061 
Q 1681 3084 1819 3084 
Q 2600 3084 3056 2656 
Q 3513 2228 3513 1497 
Q 3513 744 3044 326 
Q 2575 -91 1722 -91 
Q 1428 -91 1123 -41 
Q 819 9 494 109 
L 494 744 
Q 775 591 1075 516 
Q 1375 441 1709 441 
Q 2250 441 2565 725 
Q 2881 1009 2881 1497 
Q 2881 1984 2565 2268 
Q 2250 2553 1709 2553 
Q 1456 2553 1204 2497 
Q 953 2441 691 2322 
L 691 4666 
z
" transform="scale(0.015625)"/>
      <path id="DejaVuSans-42" d="M 1259 2228 
L 1259 519 
L 2272 519 
Q 2781 519 3026 730 
Q 3272 941 3272 1375 
Q 3272 1813 3026 2020 
Q 2781 2228 2272 2228 
L 1259 2228 
z
M 1259 4147 
L 1259 2741 
L 2194 2741 
Q 2656 2741 2882 2914 
Q 3109 3088 3109 3444 
Q 3109 3797 2882 3972 
Q 2656 4147 2194 4147 
L 1259 4147 
z
M 628 4666 
L 2241 4666 
Q 2963 4666 3353 4366 
Q 3744 4066 3744 3513 
Q 3744 3084 3544 2831 
Q 3344 2578 2956 2516 
Q 3422 2416 3680 2098 
Q 3938 1781 3938 1306 
Q 3938 681 3513 340 
Q 3088 0 2303 0 
L 628 0 
L 628 4666 
z
" transform="scale(0.015625)"/>
     </defs>
     <use xlink:href="#DejaVuSans-35"/>
     <use xlink:href="#DejaVuSans-42" x="63.623047"/>
    </g>
   </g>
  </g>
 </g>
</svg>
