<?xml version="1.0" encoding="utf-8" standalone="no"?>
<!DOCTYPE svg PUBLIC "-//W3C//DTD SVG 1.1//EN"
  "http://www.w3.org/Graphics/SVG/1.1/DTD/svg11.dtd">
<svg xmlns:xlink="http://www.w3.org/1999/xlink" width="72pt" height="72pt" viewBox="0 0 72 72" xmlns="http://www.w3.org/2000/svg" version="1.1">
 <metadata>
  <rdf:RDF xmlns:dc="http://purl.org/dc/elements/1.1/" xmlns:cc="http://creativecommons.org/ns#" xmlns:rdf="http://www.w3.org/1999/02/22-rdf-syntax-ns#">
   <cc:Work>
    <dc:type rdf:resource="http://purl.org/dc/dcmitype/StillImage"/>
    <dc:date>2025-05-01T14:38:35.509092</dc:date>
    <dc:format>image/svg+xml</dc:format>
    <dc:creator>
     <cc:Agent>
      <dc:title>Matplotlib v3.10.1, https://matplotlib.org/</dc:title>
     </cc:Agent>
    </dc:creator>
   </cc:Work>
  </rdf:RDF>
 </metadata>
 <defs>
  <style type="text/css">*{stroke-linejoin: round; stroke-linecap: butt}</style>
 </defs>
 <g id="figure_1">
  <g id="patch_1">
   <path d="M 0 72 
L 72 72 
L 72 0 
L 0 0 
L 0 72 
z
" style="fill: none; opacity: 0"/>
  </g>
  <g id="axes_1">
   <g id="patch_2">
    <path d="M 59.076 36.36 
C 59.076 36.36 59.076 36.36 59.076 36.36 
L 36.9 36.36 
z
" style="fill: #ffffd9"/>
   </g>
   <g id="patch_3">
    <path d="M 59.076 36.36 
C 59.076 36.36 59.076 36.36 59.076 36.36 
L 36.9 36.36 
z
" style="fill: #c6e9b4"/>
   </g>
   <g id="patch_4">
    <path d="M 59.076 36.36 
C 59.076 34.582293 58.86224 32.811019 58.439324 31.08435 
C 58.016409 29.357681 57.387401 27.688114 56.565855 26.111629 
L 36.9 36.36 
z
" style="fill: #40b5c4"/>
   </g>
   <g id="patch_5">
    <path d="M 56.565855 26.111629 
C 56.306699 25.614329 56.028775 25.127039 55.732679 24.650808 
C 55.436583 24.174576 55.122529 23.709748 54.791195 23.257325 
L 36.9 36.36 
z
" style="fill: #225da8"/>
   </g>
   <g id="patch_6">
    <path d="M 54.791195 23.257325 
C 53.244611 21.145523 51.336267 19.324132 49.154687 17.87764 
C 46.973106 16.431148 44.552549 15.382271 42.005296 14.779663 
C 39.458043 14.177055 36.824096 14.03018 34.225638 14.345851 
C 31.62718 14.661521 29.105015 15.434779 26.77614 16.629758 
C 24.447265 17.824736 22.348256 19.422663 20.576471 21.349424 
C 18.804686 23.276186 17.38795 25.501523 16.391987 27.922203 
C 15.396024 30.342884 14.836473 32.920899 14.739289 35.536656 
C 14.642104 38.152414 15.008813 40.764833 15.822404 43.252744 
C 16.635995 45.740655 17.883692 48.064985 19.507619 50.117909 
C 21.131546 52.170832 23.106193 53.920111 25.339975 55.284608 
C 27.573757 56.649105 30.031591 57.60739 32.599461 58.115008 
C 35.167331 58.622625 37.804918 58.671605 40.389864 58.259677 
C 42.974811 57.847748 45.46652 56.98138 47.749422 55.70076 
C 50.032325 54.42014 52.070565 52.745376 53.769592 50.75416 
C 55.468619 48.762944 56.80175 46.486549 57.70715 44.03056 
C 58.61255 41.574571 59.076 38.977559 59.076 36.359996 
L 36.9 36.36 
z
" style="fill: #081d58"/>
   </g>
   <g id="matplotlib.axis_1"/>
   <g id="matplotlib.axis_2"/>
   <g id="text_1">
    <g id="patch_7">
     <path d="M 25.018125 9.095625 
L 48.781875 9.095625 
L 48.781875 -10.438125 
L 25.018125 -10.438125 
z
" style="fill: #ffffff; opacity: 0.8"/>
    </g>
    <!-- 3A -->
    <g transform="translate(28.978125 2.64) scale(0.12 -0.12)">
     <defs>
      <path id="DejaVuSans-33" d="M 2597 2516 
Q 3050 2419 3304 2112 
Q 3559 1806 3559 1356 
Q 3559 666 3084 287 
Q 2609 -91 1734 -91 
Q 1441 -91 1130 -33 
Q 819 25 488 141 
L 488 750 
Q 750 597 1062 519 
Q 1375 441 1716 441 
Q 2309 441 2620 675 
Q 2931 909 2931 1356 
Q 2931 1769 2642 2001 
Q 2353 2234 1838 2234 
L 1294 2234 
L 1294 2753 
L 1863 2753 
Q 2328 2753 2575 2939 
Q 2822 3125 2822 3475 
Q 2822 3834 2567 4026 
Q 2313 4219 1838 4219 
Q 1578 4219 1281 4162 
Q 984 4106 628 3988 
L 628 4550 
Q 988 4650 1302 4700 
Q 1616 4750 1894 4750 
Q 2613 4750 3031 4423 
Q 3450 4097 3450 3541 
Q 3450 3153 3228 2886 
Q 3006 2619 2597 2516 
z
" transform="scale(0.015625)"/>
      <path id="DejaVuSans-41" d="M 2188 4044 
L 1331 1722 
L 3047 1722 
L 2188 4044 
z
M 1831 4666 
L 2547 4666 
L 4325 0 
L 3669 0 
L 3244 1197 
L 1141 1197 
L 716 0 
L 50 0 
L 1831 4666 
z
" transform="scale(0.015625)"/>
     </defs>
     <use xlink:href="#DejaVuSans-33"/>
     <use xlink:href="#DejaVuSans-41" transform="translate(63.623047 0)"/>
    </g>
   </g>
  </g>
 </g>
</svg>
