<?xml version="1.0" encoding="utf-8" standalone="no"?>
<!DOCTYPE svg PUBLIC "-//W3C//DTD SVG 1.1//EN"
  "http://www.w3.org/Graphics/SVG/1.1/DTD/svg11.dtd">
<svg xmlns:xlink="http://www.w3.org/1999/xlink" width="72pt" height="72pt" viewBox="0 0 72 72" xmlns="http://www.w3.org/2000/svg" version="1.1">
 <metadata>
  <rdf:RDF xmlns:dc="http://purl.org/dc/elements/1.1/" xmlns:cc="http://creativecommons.org/ns#" xmlns:rdf="http://www.w3.org/1999/02/22-rdf-syntax-ns#">
   <cc:Work>
    <dc:type rdf:resource="http://purl.org/dc/dcmitype/StillImage"/>
    <dc:date>2025-05-09T11:28:38.252794</dc:date>
    <dc:format>image/svg+xml</dc:format>
    <dc:creator>
     <cc:Agent>
      <dc:title>Matplotlib v3.5.3, https://matplotlib.org/</dc:title>
     </cc:Agent>
    </dc:creator>
   </cc:Work>
  </rdf:RDF>
 </metadata>
 <defs>
  <style type="text/css">*{stroke-linejoin: round; stroke-linecap: butt}</style>
 </defs>
 <g id="figure_1">
  <g id="patch_1">
   <path d="M 0 72 
L 72 72 
L 72 0 
L 0 0 
L 0 72 
z
" style="fill: none; opacity: 0"/>
  </g>
  <g id="axes_1">
   <g id="patch_2">
    <path d="M 59.076 36.36 
C 59.076 33.773173 58.623371 31.206184 57.738624 28.775361 
C 56.853877 26.344539 55.550582 24.087166 53.887801 22.105542 
L 36.9 36.36 
L 59.076 36.36 
z
" style="fill: #ffffd9"/>
   </g>
   <g id="patch_3">
    <path d="M 53.887801 22.105542 
C 53.887801 22.105542 53.887801 22.105542 53.887801 22.105542 
L 36.9 36.36 
L 53.887801 22.105542 
z
" style="fill: #c6e9b4"/>
   </g>
   <g id="patch_4">
    <path d="M 53.887801 22.105542 
C 53.887801 22.105542 53.887801 22.105542 53.887801 22.105542 
L 36.9 36.36 
L 53.887801 22.105542 
z
" style="fill: #40b5c4"/>
   </g>
   <g id="patch_5">
    <path d="M 53.887801 22.105542 
C 50.537338 18.112615 45.88403 15.426026 40.750822 14.520903 
C 35.617614 13.61578 30.326067 14.548823 25.812 17.155021 
C 21.297932 19.761219 17.844121 23.877312 16.061376 28.775362 
C 14.278632 33.673412 14.278632 39.046589 16.061377 43.944639 
L 36.9 36.36 
L 53.887801 22.105542 
z
" style="fill: #225da8"/>
   </g>
   <g id="patch_6">
    <path d="M 16.061377 43.944639 
C 17.844121 48.842689 21.297933 52.958782 25.812001 55.56498 
C 30.326068 58.171178 35.617615 59.10422 40.750823 58.199097 
C 45.884031 57.293973 50.537339 54.607384 53.887802 50.614457 
C 57.238266 46.62153 59.076 41.572395 59.076 36.359999 
L 36.9 36.36 
L 16.061377 43.944639 
z
" style="fill: #081d58"/>
   </g>
   <g id="matplotlib.axis_1"/>
   <g id="matplotlib.axis_2"/>
   <g id="text_1">
    <g id="patch_7">
     <path d="M 25.005938 9.095625 
L 48.794063 9.095625 
L 48.794063 -10.438125 
L 25.005938 -10.438125 
z
" style="fill: #ffffff; opacity: 0.8"/>
    </g>
    <!-- 7B -->
    <g transform="translate(28.965938 2.64)scale(0.12 -0.12)">
     <defs>
      <path id="DejaVuSans-37" d="M 525 4666 
L 3525 4666 
L 3525 4397 
L 1831 0 
L 1172 0 
L 2766 4134 
L 525 4134 
L 525 4666 
z
" transform="scale(0.015625)"/>
      <path id="DejaVuSans-42" d="M 1259 2228 
L 1259 519 
L 2272 519 
Q 2781 519 3026 730 
Q 3272 941 3272 1375 
Q 3272 1813 3026 2020 
Q 2781 2228 2272 2228 
L 1259 2228 
z
M 1259 4147 
L 1259 2741 
L 2194 2741 
Q 2656 2741 2882 2914 
Q 3109 3088 3109 3444 
Q 3109 3797 2882 3972 
Q 2656 4147 2194 4147 
L 1259 4147 
z
M 628 4666 
L 2241 4666 
Q 2963 4666 3353 4366 
Q 3744 4066 3744 3513 
Q 3744 3084 3544 2831 
Q 3344 2578 2956 2516 
Q 3422 2416 3680 2098 
Q 3938 1781 3938 1306 
Q 3938 681 3513 340 
Q 3088 0 2303 0 
L 628 0 
L 628 4666 
z
" transform="scale(0.015625)"/>
     </defs>
     <use xlink:href="#DejaVuSans-37"/>
     <use xlink:href="#DejaVuSans-42" x="63.623047"/>
    </g>
   </g>
  </g>
 </g>
</svg>
