<?xml version="1.0" encoding="utf-8" standalone="no"?>
<!DOCTYPE svg PUBLIC "-//W3C//DTD SVG 1.1//EN"
  "http://www.w3.org/Graphics/SVG/1.1/DTD/svg11.dtd">
<svg xmlns:xlink="http://www.w3.org/1999/xlink" width="72pt" height="72pt" viewBox="0 0 72 72" xmlns="http://www.w3.org/2000/svg" version="1.1">
 <metadata>
  <rdf:RDF xmlns:dc="http://purl.org/dc/elements/1.1/" xmlns:cc="http://creativecommons.org/ns#" xmlns:rdf="http://www.w3.org/1999/02/22-rdf-syntax-ns#">
   <cc:Work>
    <dc:type rdf:resource="http://purl.org/dc/dcmitype/StillImage"/>
    <dc:date>2025-05-09T11:28:37.018419</dc:date>
    <dc:format>image/svg+xml</dc:format>
    <dc:creator>
     <cc:Agent>
      <dc:title>Matplotlib v3.5.3, https://matplotlib.org/</dc:title>
     </cc:Agent>
    </dc:creator>
   </cc:Work>
  </rdf:RDF>
 </metadata>
 <defs>
  <style type="text/css">*{stroke-linejoin: round; stroke-linecap: butt}</style>
 </defs>
 <g id="figure_1">
  <g id="patch_1">
   <path d="M 0 72 
L 72 72 
L 72 0 
L 0 0 
L 0 72 
z
" style="fill: none; opacity: 0"/>
  </g>
  <g id="axes_1">
   <g id="patch_2">
    <path d="M 59.076 36.36 
C 59.076 34.830835 58.917833 33.305764 58.604025 31.809144 
C 58.290217 30.312525 57.822448 28.85237 57.208189 27.452002 
L 36.9 36.36 
L 59.076 36.36 
z
" style="fill: #ffffd9"/>
   </g>
   <g id="patch_3">
    <path d="M 57.208189 27.452002 
C 57.208189 27.452002 57.208189 27.452002 57.208189 27.452002 
L 36.9 36.36 
L 57.208189 27.452002 
z
" style="fill: #c6e9b4"/>
   </g>
   <g id="patch_4">
    <path d="M 57.208189 27.452002 
C 56.541174 25.931361 55.70547 24.490437 54.716804 23.156347 
C 53.728138 21.822256 52.592751 20.603421 51.33201 19.522778 
L 36.9 36.36 
L 57.208189 27.452002 
z
" style="fill: #40b5c4"/>
   </g>
   <g id="patch_5">
    <path d="M 51.33201 19.522778 
C 50.934257 19.181844 50.524547 18.855111 50.103652 18.543195 
C 49.682758 18.231279 49.250942 17.934375 48.809019 17.653043 
L 36.9 36.36 
L 51.33201 19.522778 
z
" style="fill: #225da8"/>
   </g>
   <g id="patch_6">
    <path d="M 48.809019 17.653043 
C 46.746874 16.340263 44.481778 15.377449 42.10553 14.803622 
C 39.729281 14.229795 37.27442 14.052812 34.840433 14.279847 
C 32.406447 14.506881 30.026666 15.134824 27.797536 16.138226 
C 25.568407 17.141628 23.520454 18.50675 21.736674 20.178266 
C 19.952895 21.849782 18.457716 23.804803 17.311733 25.964099 
C 16.16575 28.123394 15.384655 30.457395 15.000105 32.871511 
C 14.615554 35.285627 14.632813 37.746799 15.051183 40.155284 
C 15.469553 42.56377 16.283304 44.886586 17.459458 47.029597 
C 18.635612 49.172609 20.158062 51.106468 21.965109 52.752803 
C 23.772155 54.399138 25.839052 55.735403 28.082035 56.707444 
C 30.325018 57.679484 32.713371 58.27399 35.150302 58.466866 
C 37.587233 58.659743 40.039371 58.448349 42.407338 57.841252 
C 44.775305 57.234156 47.026675 56.23967 49.070206 54.898098 
C 51.113737 53.556525 52.921446 51.886239 54.420071 49.954929 
C 55.918696 48.023619 57.087716 45.857734 57.879753 43.545049 
C 58.671791 41.232364 59.076 38.804549 59.076 36.359997 
L 36.9 36.36 
L 48.809019 17.653043 
z
" style="fill: #081d58"/>
   </g>
   <g id="matplotlib.axis_1"/>
   <g id="matplotlib.axis_2"/>
   <g id="text_1">
    <g id="patch_7">
     <path d="M 25.018125 9.095625 
L 48.781875 9.095625 
L 48.781875 -10.438125 
L 25.018125 -10.438125 
z
" style="fill: #ffffff; opacity: 0.8"/>
    </g>
    <!-- 3A -->
    <g transform="translate(28.978125 2.64)scale(0.12 -0.12)">
     <defs>
      <path id="DejaVuSans-33" d="M 2597 2516 
Q 3050 2419 3304 2112 
Q 3559 1806 3559 1356 
Q 3559 666 3084 287 
Q 2609 -91 1734 -91 
Q 1441 -91 1130 -33 
Q 819 25 488 141 
L 488 750 
Q 750 597 1062 519 
Q 1375 441 1716 441 
Q 2309 441 2620 675 
Q 2931 909 2931 1356 
Q 2931 1769 2642 2001 
Q 2353 2234 1838 2234 
L 1294 2234 
L 1294 2753 
L 1863 2753 
Q 2328 2753 2575 2939 
Q 2822 3125 2822 3475 
Q 2822 3834 2567 4026 
Q 2313 4219 1838 4219 
Q 1578 4219 1281 4162 
Q 984 4106 628 3988 
L 628 4550 
Q 988 4650 1302 4700 
Q 1616 4750 1894 4750 
Q 2613 4750 3031 4423 
Q 3450 4097 3450 3541 
Q 3450 3153 3228 2886 
Q 3006 2619 2597 2516 
z
" transform="scale(0.015625)"/>
      <path id="DejaVuSans-41" d="M 2188 4044 
L 1331 1722 
L 3047 1722 
L 2188 4044 
z
M 1831 4666 
L 2547 4666 
L 4325 0 
L 3669 0 
L 3244 1197 
L 1141 1197 
L 716 0 
L 50 0 
L 1831 4666 
z
" transform="scale(0.015625)"/>
     </defs>
     <use xlink:href="#DejaVuSans-33"/>
     <use xlink:href="#DejaVuSans-41" x="63.623047"/>
    </g>
   </g>
  </g>
 </g>
</svg>
