<?xml version="1.0" encoding="utf-8" standalone="no"?>
<!DOCTYPE svg PUBLIC "-//W3C//DTD SVG 1.1//EN"
  "http://www.w3.org/Graphics/SVG/1.1/DTD/svg11.dtd">
<svg xmlns:xlink="http://www.w3.org/1999/xlink" width="72pt" height="72pt" viewBox="0 0 72 72" xmlns="http://www.w3.org/2000/svg" version="1.1">
 <metadata>
  <rdf:RDF xmlns:dc="http://purl.org/dc/elements/1.1/" xmlns:cc="http://creativecommons.org/ns#" xmlns:rdf="http://www.w3.org/1999/02/22-rdf-syntax-ns#">
   <cc:Work>
    <dc:type rdf:resource="http://purl.org/dc/dcmitype/StillImage"/>
    <dc:date>2025-05-09T11:28:37.146791</dc:date>
    <dc:format>image/svg+xml</dc:format>
    <dc:creator>
     <cc:Agent>
      <dc:title>Matplotlib v3.5.3, https://matplotlib.org/</dc:title>
     </cc:Agent>
    </dc:creator>
   </cc:Work>
  </rdf:RDF>
 </metadata>
 <defs>
  <style type="text/css">*{stroke-linejoin: round; stroke-linecap: butt}</style>
 </defs>
 <g id="figure_1">
  <g id="patch_1">
   <path d="M 0 72 
L 72 72 
L 72 0 
L 0 0 
L 0 72 
z
" style="fill: none; opacity: 0"/>
  </g>
  <g id="axes_1">
   <g id="patch_2">
    <path d="M 59.076 36.36 
C 59.076 31.626993 57.560757 27.016048 54.753233 23.205646 
C 51.94571 19.395244 47.990713 16.581921 43.470207 15.179647 
L 36.9 36.36 
L 59.076 36.36 
z
" style="fill: #ffffd9"/>
   </g>
   <g id="patch_3">
    <path d="M 43.470207 15.179647 
C 43.470207 15.179647 43.470207 15.179647 43.470207 15.179647 
L 36.9 36.36 
L 43.470207 15.179647 
z
" style="fill: #c6e9b4"/>
   </g>
   <g id="patch_4">
    <path d="M 43.470207 15.179647 
C 43.470207 15.179647 43.470207 15.179647 43.470207 15.179647 
L 36.9 36.36 
L 43.470207 15.179647 
z
" style="fill: #40b5c4"/>
   </g>
   <g id="patch_5">
    <path d="M 43.470207 15.179647 
C 43.352227 15.143049 43.233944 15.107438 43.115369 15.072817 
C 42.996795 15.038196 42.877933 15.004566 42.758796 14.971931 
L 36.9 36.36 
L 43.470207 15.179647 
z
" style="fill: #225da8"/>
   </g>
   <g id="patch_6">
    <path d="M 42.758796 14.971931 
C 40.535424 14.362887 38.230618 14.104242 35.927554 14.205332 
C 33.62449 14.306421 31.35121 14.766014 29.189751 15.567524 
C 27.028293 16.369035 25.004973 17.502704 23.192809 18.927619 
C 21.380646 20.352535 19.801702 22.051348 18.51296 23.962752 
C 17.224218 25.874157 16.241369 27.974879 15.599881 30.189109 
C 14.958393 32.403339 14.666077 34.704117 14.733482 37.008413 
C 14.800887 39.312709 15.227192 41.592466 15.997013 43.765412 
C 16.766835 45.938359 17.870799 47.978038 19.269066 49.810842 
C 20.667334 51.643646 22.342879 53.247259 24.235236 54.563811 
C 26.127593 55.880362 28.21372 56.893822 30.418334 57.567616 
C 32.622948 58.241411 34.919206 58.567336 37.224241 58.533629 
C 39.529276 58.499923 41.815022 58.106996 43.998993 57.369029 
C 46.182963 56.631061 48.238565 55.557037 50.091618 54.185717 
C 51.94467 52.814397 53.572611 51.162478 54.91669 49.289573 
C 56.260769 47.416668 57.304622 45.345582 58.010579 43.151055 
C 58.716536 40.956528 59.076 38.665281 59.076 36.36 
L 36.9 36.36 
L 42.758796 14.971931 
z
" style="fill: #081d58"/>
   </g>
   <g id="matplotlib.axis_1"/>
   <g id="matplotlib.axis_2"/>
   <g id="text_1">
    <g id="patch_7">
     <path d="M 24.932813 9.095625 
L 48.867188 9.095625 
L 48.867188 -10.438125 
L 24.932813 -10.438125 
z
" style="fill: #ffffff; opacity: 0.8"/>
    </g>
    <!-- 3C -->
    <g transform="translate(28.892813 2.64)scale(0.12 -0.12)">
     <defs>
      <path id="DejaVuSans-33" d="M 2597 2516 
Q 3050 2419 3304 2112 
Q 3559 1806 3559 1356 
Q 3559 666 3084 287 
Q 2609 -91 1734 -91 
Q 1441 -91 1130 -33 
Q 819 25 488 141 
L 488 750 
Q 750 597 1062 519 
Q 1375 441 1716 441 
Q 2309 441 2620 675 
Q 2931 909 2931 1356 
Q 2931 1769 2642 2001 
Q 2353 2234 1838 2234 
L 1294 2234 
L 1294 2753 
L 1863 2753 
Q 2328 2753 2575 2939 
Q 2822 3125 2822 3475 
Q 2822 3834 2567 4026 
Q 2313 4219 1838 4219 
Q 1578 4219 1281 4162 
Q 984 4106 628 3988 
L 628 4550 
Q 988 4650 1302 4700 
Q 1616 4750 1894 4750 
Q 2613 4750 3031 4423 
Q 3450 4097 3450 3541 
Q 3450 3153 3228 2886 
Q 3006 2619 2597 2516 
z
" transform="scale(0.015625)"/>
      <path id="DejaVuSans-43" d="M 4122 4306 
L 4122 3641 
Q 3803 3938 3442 4084 
Q 3081 4231 2675 4231 
Q 1875 4231 1450 3742 
Q 1025 3253 1025 2328 
Q 1025 1406 1450 917 
Q 1875 428 2675 428 
Q 3081 428 3442 575 
Q 3803 722 4122 1019 
L 4122 359 
Q 3791 134 3420 21 
Q 3050 -91 2638 -91 
Q 1578 -91 968 557 
Q 359 1206 359 2328 
Q 359 3453 968 4101 
Q 1578 4750 2638 4750 
Q 3056 4750 3426 4639 
Q 3797 4528 4122 4306 
z
" transform="scale(0.015625)"/>
     </defs>
     <use xlink:href="#DejaVuSans-33"/>
     <use xlink:href="#DejaVuSans-43" x="63.623047"/>
    </g>
   </g>
  </g>
 </g>
</svg>
