<?xml version="1.0" encoding="utf-8" standalone="no"?>
<!DOCTYPE svg PUBLIC "-//W3C//DTD SVG 1.1//EN"
  "http://www.w3.org/Graphics/SVG/1.1/DTD/svg11.dtd">
<svg xmlns:xlink="http://www.w3.org/1999/xlink" width="72pt" height="72pt" viewBox="0 0 72 72" xmlns="http://www.w3.org/2000/svg" version="1.1">
 <metadata>
  <rdf:RDF xmlns:dc="http://purl.org/dc/elements/1.1/" xmlns:cc="http://creativecommons.org/ns#" xmlns:rdf="http://www.w3.org/1999/02/22-rdf-syntax-ns#">
   <cc:Work>
    <dc:type rdf:resource="http://purl.org/dc/dcmitype/StillImage"/>
    <dc:date>2025-05-09T11:28:38.131852</dc:date>
    <dc:format>image/svg+xml</dc:format>
    <dc:creator>
     <cc:Agent>
      <dc:title>Matplotlib v3.5.3, https://matplotlib.org/</dc:title>
     </cc:Agent>
    </dc:creator>
   </cc:Work>
  </rdf:RDF>
 </metadata>
 <defs>
  <style type="text/css">*{stroke-linejoin: round; stroke-linecap: butt}</style>
 </defs>
 <g id="figure_1">
  <g id="patch_1">
   <path d="M 0 72 
L 72 72 
L 72 0 
L 0 0 
L 0 72 
z
" style="fill: none; opacity: 0"/>
  </g>
  <g id="axes_1">
   <g id="patch_2">
    <path d="M 59.076 36.36 
C 59.076 33.773173 58.623371 31.206184 57.738624 28.775361 
C 56.853877 26.344539 55.550582 24.087166 53.887801 22.105542 
L 36.9 36.36 
L 59.076 36.36 
z
" style="fill: #ffffd9"/>
   </g>
   <g id="patch_3">
    <path d="M 53.887801 22.105542 
C 53.887801 22.105542 53.887801 22.105542 53.887801 22.105542 
L 36.9 36.36 
L 53.887801 22.105542 
z
" style="fill: #c6e9b4"/>
   </g>
   <g id="patch_4">
    <path d="M 53.887801 22.105542 
C 53.887801 22.105542 53.887801 22.105542 53.887801 22.105542 
L 36.9 36.36 
L 53.887801 22.105542 
z
" style="fill: #40b5c4"/>
   </g>
   <g id="patch_5">
    <path d="M 53.887801 22.105542 
C 52.433728 20.372644 50.723023 18.872396 48.815156 17.656951 
C 46.907289 16.441506 44.824627 15.525113 42.639571 14.939629 
C 40.454514 14.354145 38.19268 14.106434 35.932696 14.205107 
C 33.672712 14.30378 31.441074 14.74768 29.315361 15.521377 
C 27.189647 16.295073 25.19478 17.389495 23.400106 18.766597 
C 21.605432 20.143698 20.031992 21.787335 18.734484 23.64037 
C 17.436975 25.493404 16.43061 27.534111 15.750373 29.691549 
C 15.070135 31.848987 14.724 34.097864 14.724 36.360001 
C 14.724 38.622138 15.070135 40.871015 15.750373 43.028453 
C 16.430611 45.185891 17.436976 47.226598 18.734485 49.079632 
C 20.031994 50.932666 21.605434 52.576303 23.400108 53.953405 
C 25.194782 55.330506 27.189649 56.424928 29.315363 57.198624 
C 31.441076 57.97232 33.672714 58.416221 35.932698 58.514893 
C 38.192682 58.613566 40.454516 58.365855 42.639573 57.780371 
C 44.824629 57.194886 46.907291 56.278493 48.815158 55.063048 
C 50.723024 53.847602 52.433729 52.347354 53.887803 50.614457 
L 36.9 36.36 
L 53.887801 22.105542 
z
" style="fill: #225da8"/>
   </g>
   <g id="patch_6">
    <path d="M 53.887803 50.614457 
C 55.550583 48.632832 56.853878 46.375459 57.738624 43.944637 
C 58.623371 41.513814 59.076 38.946825 59.076 36.359998 
L 36.9 36.36 
L 53.887803 50.614457 
z
" style="fill: #081d58"/>
   </g>
   <g id="matplotlib.axis_1"/>
   <g id="matplotlib.axis_2"/>
   <g id="text_1">
    <g id="patch_7">
     <path d="M 25.018125 9.095625 
L 48.781875 9.095625 
L 48.781875 -10.438125 
L 25.018125 -10.438125 
z
" style="fill: #ffffff; opacity: 0.8"/>
    </g>
    <!-- 7A -->
    <g transform="translate(28.978125 2.64)scale(0.12 -0.12)">
     <defs>
      <path id="DejaVuSans-37" d="M 525 4666 
L 3525 4666 
L 3525 4397 
L 1831 0 
L 1172 0 
L 2766 4134 
L 525 4134 
L 525 4666 
z
" transform="scale(0.015625)"/>
      <path id="DejaVuSans-41" d="M 2188 4044 
L 1331 1722 
L 3047 1722 
L 2188 4044 
z
M 1831 4666 
L 2547 4666 
L 4325 0 
L 3669 0 
L 3244 1197 
L 1141 1197 
L 716 0 
L 50 0 
L 1831 4666 
z
" transform="scale(0.015625)"/>
     </defs>
     <use xlink:href="#DejaVuSans-37"/>
     <use xlink:href="#DejaVuSans-41" x="63.623047"/>
    </g>
   </g>
  </g>
 </g>
</svg>
