<?xml version="1.0" encoding="utf-8" standalone="no"?>
<!DOCTYPE svg PUBLIC "-//W3C//DTD SVG 1.1//EN"
  "http://www.w3.org/Graphics/SVG/1.1/DTD/svg11.dtd">
<svg xmlns:xlink="http://www.w3.org/1999/xlink" width="72pt" height="72pt" viewBox="0 0 72 72" xmlns="http://www.w3.org/2000/svg" version="1.1">
 <metadata>
  <rdf:RDF xmlns:dc="http://purl.org/dc/elements/1.1/" xmlns:cc="http://creativecommons.org/ns#" xmlns:rdf="http://www.w3.org/1999/02/22-rdf-syntax-ns#">
   <cc:Work>
    <dc:type rdf:resource="http://purl.org/dc/dcmitype/StillImage"/>
    <dc:date>2025-05-09T11:28:38.195466</dc:date>
    <dc:format>image/svg+xml</dc:format>
    <dc:creator>
     <cc:Agent>
      <dc:title>Matplotlib v3.5.3, https://matplotlib.org/</dc:title>
     </cc:Agent>
    </dc:creator>
   </cc:Work>
  </rdf:RDF>
 </metadata>
 <defs>
  <style type="text/css">*{stroke-linejoin: round; stroke-linecap: butt}</style>
 </defs>
 <g id="figure_1">
  <g id="patch_1">
   <path d="M 0 72 
L 72 72 
L 72 0 
L 0 0 
L 0 72 
z
" style="fill: none; opacity: 0"/>
  </g>
  <g id="axes_1">
   <g id="patch_2">
    <path d="M 59.076 36.36 
C 59.076 32.608081 58.123829 28.916818 56.308955 25.63305 
C 54.49408 22.349282 51.875184 19.579186 48.698344 17.583044 
C 45.521503 15.586903 41.889435 14.429259 38.143419 14.218887 
C 34.397402 14.008515 30.658557 14.752217 27.278195 16.380114 
C 23.897832 18.008011 20.985251 20.467466 18.814123 23.527385 
C 16.642995 26.587303 15.28352 30.148747 14.863438 33.877075 
C 14.443356 37.605403 14.97625 41.380065 16.412047 44.846387 
C 17.847844 48.312708 20.140121 51.358611 23.073489 53.697894 
L 36.9 36.36 
L 59.076 36.36 
z
" style="fill: #ffffd9"/>
   </g>
   <g id="patch_3">
    <path d="M 23.073489 53.697894 
C 23.073489 53.697894 23.073489 53.697894 23.073489 53.697894 
L 36.9 36.36 
L 23.073489 53.697894 
z
" style="fill: #c6e9b4"/>
   </g>
   <g id="patch_4">
    <path d="M 23.073489 53.697894 
C 23.073489 53.697894 23.073489 53.697894 23.073489 53.697894 
L 36.9 36.36 
L 23.073489 53.697894 
z
" style="fill: #40b5c4"/>
   </g>
   <g id="patch_5">
    <path d="M 23.073489 53.697894 
C 25.678067 55.774976 28.717519 57.238699 31.965375 57.980001 
C 35.213231 58.721303 38.586768 58.721303 41.834624 57.980001 
L 36.9 36.36 
L 23.073489 53.697894 
z
" style="fill: #225da8"/>
   </g>
   <g id="patch_6">
    <path d="M 41.834624 57.980001 
C 46.731466 56.862329 51.106247 54.113473 54.237895 50.18651 
C 57.369543 46.259547 59.076 41.382774 59.076 36.36 
L 36.9 36.36 
L 41.834624 57.980001 
z
" style="fill: #081d58"/>
   </g>
   <g id="matplotlib.axis_1"/>
   <g id="matplotlib.axis_2"/>
   <g id="text_1">
    <g id="patch_7">
     <path d="M 21.083438 9.095625 
L 52.716563 9.095625 
L 52.716563 -10.438125 
L 21.083438 -10.438125 
z
" style="fill: #ffffff; opacity: 0.8"/>
    </g>
    <!-- 7AK -->
    <g transform="translate(25.043438 2.64)scale(0.12 -0.12)">
     <defs>
      <path id="DejaVuSans-37" d="M 525 4666 
L 3525 4666 
L 3525 4397 
L 1831 0 
L 1172 0 
L 2766 4134 
L 525 4134 
L 525 4666 
z
" transform="scale(0.015625)"/>
      <path id="DejaVuSans-41" d="M 2188 4044 
L 1331 1722 
L 3047 1722 
L 2188 4044 
z
M 1831 4666 
L 2547 4666 
L 4325 0 
L 3669 0 
L 3244 1197 
L 1141 1197 
L 716 0 
L 50 0 
L 1831 4666 
z
" transform="scale(0.015625)"/>
      <path id="DejaVuSans-4b" d="M 628 4666 
L 1259 4666 
L 1259 2694 
L 3353 4666 
L 4166 4666 
L 1850 2491 
L 4331 0 
L 3500 0 
L 1259 2247 
L 1259 0 
L 628 0 
L 628 4666 
z
" transform="scale(0.015625)"/>
     </defs>
     <use xlink:href="#DejaVuSans-37"/>
     <use xlink:href="#DejaVuSans-41" x="63.623047"/>
     <use xlink:href="#DejaVuSans-4b" x="132.03125"/>
    </g>
   </g>
  </g>
 </g>
</svg>
