<?xml version="1.0" encoding="utf-8" standalone="no"?>
<!DOCTYPE svg PUBLIC "-//W3C//DTD SVG 1.1//EN"
  "http://www.w3.org/Graphics/SVG/1.1/DTD/svg11.dtd">
<svg xmlns:xlink="http://www.w3.org/1999/xlink" width="72pt" height="72pt" viewBox="0 0 72 72" xmlns="http://www.w3.org/2000/svg" version="1.1">
 <metadata>
  <rdf:RDF xmlns:dc="http://purl.org/dc/elements/1.1/" xmlns:cc="http://creativecommons.org/ns#" xmlns:rdf="http://www.w3.org/1999/02/22-rdf-syntax-ns#">
   <cc:Work>
    <dc:type rdf:resource="http://purl.org/dc/dcmitype/StillImage"/>
    <dc:date>2025-05-09T11:28:38.019929</dc:date>
    <dc:format>image/svg+xml</dc:format>
    <dc:creator>
     <cc:Agent>
      <dc:title>Matplotlib v3.5.3, https://matplotlib.org/</dc:title>
     </cc:Agent>
    </dc:creator>
   </cc:Work>
  </rdf:RDF>
 </metadata>
 <defs>
  <style type="text/css">*{stroke-linejoin: round; stroke-linecap: butt}</style>
 </defs>
 <g id="figure_1">
  <g id="patch_1">
   <path d="M 0 72 
L 72 72 
L 72 0 
L 0 0 
L 0 72 
z
" style="fill: none; opacity: 0"/>
  </g>
  <g id="axes_1">
   <g id="patch_2">
    <path d="M 59.076 36.36 
C 59.076 32.507664 58.072179 28.721001 56.163827 25.374558 
C 54.255475 22.028114 51.507658 19.235987 48.192167 17.274352 
L 36.9 36.36 
L 59.076 36.36 
z
" style="fill: #ffffd9"/>
   </g>
   <g id="patch_3">
    <path d="M 48.192167 17.274352 
C 48.192167 17.274352 48.192167 17.274352 48.192167 17.274352 
L 36.9 36.36 
L 48.192167 17.274352 
z
" style="fill: #c6e9b4"/>
   </g>
   <g id="patch_4">
    <path d="M 48.192167 17.274352 
C 48.192167 17.274352 48.192167 17.274352 48.192167 17.274352 
L 36.9 36.36 
L 48.192167 17.274352 
z
" style="fill: #40b5c4"/>
   </g>
   <g id="patch_5">
    <path d="M 48.192167 17.274352 
C 44.949069 15.355549 41.269786 14.294655 37.502959 14.192199 
C 33.736131 14.089742 30.004619 14.949064 26.662012 16.688737 
C 23.319404 18.428411 20.474725 20.991694 18.397531 24.135696 
C 16.320336 27.279698 15.078375 30.901873 14.789334 34.658992 
C 14.500293 38.416111 15.173599 42.185631 16.745452 45.61036 
C 18.317304 49.035088 20.736434 52.003325 23.773612 54.233805 
C 26.810789 56.464285 30.366951 57.884259 34.105125 58.359174 
C 37.843299 58.834088 41.641559 58.348453 45.13999 56.948287 
L 36.9 36.36 
L 48.192167 17.274352 
z
" style="fill: #225da8"/>
   </g>
   <g id="patch_6">
    <path d="M 45.13999 56.948287 
C 49.253537 55.301934 52.780776 52.459928 55.264436 48.790707 
C 57.748095 45.121487 59.076 40.790772 59.076 36.36 
L 36.9 36.36 
L 45.13999 56.948287 
z
" style="fill: #081d58"/>
   </g>
   <g id="matplotlib.axis_1"/>
   <g id="matplotlib.axis_2"/>
   <g id="text_1">
    <g id="patch_7">
     <path d="M 25.018125 9.095625 
L 48.781875 9.095625 
L 48.781875 -10.438125 
L 25.018125 -10.438125 
z
" style="fill: #ffffff; opacity: 0.8"/>
    </g>
    <!-- 6A -->
    <g transform="translate(28.978125 2.64)scale(0.12 -0.12)">
     <defs>
      <path id="DejaVuSans-36" d="M 2113 2584 
Q 1688 2584 1439 2293 
Q 1191 2003 1191 1497 
Q 1191 994 1439 701 
Q 1688 409 2113 409 
Q 2538 409 2786 701 
Q 3034 994 3034 1497 
Q 3034 2003 2786 2293 
Q 2538 2584 2113 2584 
z
M 3366 4563 
L 3366 3988 
Q 3128 4100 2886 4159 
Q 2644 4219 2406 4219 
Q 1781 4219 1451 3797 
Q 1122 3375 1075 2522 
Q 1259 2794 1537 2939 
Q 1816 3084 2150 3084 
Q 2853 3084 3261 2657 
Q 3669 2231 3669 1497 
Q 3669 778 3244 343 
Q 2819 -91 2113 -91 
Q 1303 -91 875 529 
Q 447 1150 447 2328 
Q 447 3434 972 4092 
Q 1497 4750 2381 4750 
Q 2619 4750 2861 4703 
Q 3103 4656 3366 4563 
z
" transform="scale(0.015625)"/>
      <path id="DejaVuSans-41" d="M 2188 4044 
L 1331 1722 
L 3047 1722 
L 2188 4044 
z
M 1831 4666 
L 2547 4666 
L 4325 0 
L 3669 0 
L 3244 1197 
L 1141 1197 
L 716 0 
L 50 0 
L 1831 4666 
z
" transform="scale(0.015625)"/>
     </defs>
     <use xlink:href="#DejaVuSans-36"/>
     <use xlink:href="#DejaVuSans-41" x="63.623047"/>
    </g>
   </g>
  </g>
 </g>
</svg>
