<?xml version="1.0" encoding="utf-8" standalone="no"?>
<!DOCTYPE svg PUBLIC "-//W3C//DTD SVG 1.1//EN"
  "http://www.w3.org/Graphics/SVG/1.1/DTD/svg11.dtd">
<svg xmlns:xlink="http://www.w3.org/1999/xlink" width="72pt" height="72pt" viewBox="0 0 72 72" xmlns="http://www.w3.org/2000/svg" version="1.1">
 <metadata>
  <rdf:RDF xmlns:dc="http://purl.org/dc/elements/1.1/" xmlns:cc="http://creativecommons.org/ns#" xmlns:rdf="http://www.w3.org/1999/02/22-rdf-syntax-ns#">
   <cc:Work>
    <dc:type rdf:resource="http://purl.org/dc/dcmitype/StillImage"/>
    <dc:date>2025-05-09T11:28:37.083033</dc:date>
    <dc:format>image/svg+xml</dc:format>
    <dc:creator>
     <cc:Agent>
      <dc:title>Matplotlib v3.5.3, https://matplotlib.org/</dc:title>
     </cc:Agent>
    </dc:creator>
   </cc:Work>
  </rdf:RDF>
 </metadata>
 <defs>
  <style type="text/css">*{stroke-linejoin: round; stroke-linecap: butt}</style>
 </defs>
 <g id="figure_1">
  <g id="patch_1">
   <path d="M 0 72 
L 72 72 
L 72 0 
L 0 0 
L 0 72 
z
" style="fill: none; opacity: 0"/>
  </g>
  <g id="axes_1">
   <g id="patch_2">
    <path d="M 59.076 36.36 
C 59.076 32.716318 58.177974 29.128181 56.461628 25.91406 
C 54.745283 22.699939 52.262945 19.957826 49.23494 17.931104 
L 36.9 36.36 
L 59.076 36.36 
z
" style="fill: #ffffd9"/>
   </g>
   <g id="patch_3">
    <path d="M 49.23494 17.931104 
C 49.23494 17.931104 49.23494 17.931104 49.23494 17.931104 
L 36.9 36.36 
L 49.23494 17.931104 
z
" style="fill: #c6e9b4"/>
   </g>
   <g id="patch_4">
    <path d="M 49.23494 17.931104 
C 48.949213 17.739859 48.659077 17.555285 48.364767 17.377532 
C 48.070458 17.199779 47.772054 17.028894 47.469798 16.865017 
L 36.9 36.36 
L 49.23494 17.931104 
z
" style="fill: #40b5c4"/>
   </g>
   <g id="patch_5">
    <path d="M 47.469798 16.865017 
C 47.414844 16.835223 47.359765 16.805661 47.304562 16.776332 
C 47.249359 16.747003 47.194032 16.717908 47.138583 16.689047 
L 36.9 36.36 
L 47.469798 16.865017 
z
" style="fill: #225da8"/>
   </g>
   <g id="patch_6">
    <path d="M 47.138583 16.689047 
C 45.006062 15.579086 42.707168 14.823254 40.332042 14.451188 
C 37.956916 14.079121 35.537015 14.095748 33.167226 14.500417 
C 30.797437 14.905085 28.509146 15.692436 26.392079 16.831596 
C 24.275012 17.970755 22.357208 19.446637 20.713867 21.201369 
C 19.070526 22.956102 17.723412 24.966445 16.725346 27.153572 
C 15.727281 29.340698 15.091483 31.675641 14.842883 34.066845 
C 14.594283 36.458048 14.736173 38.873843 15.26299 41.219503 
C 15.789807 43.565163 16.694573 45.809622 17.941812 47.864872 
C 19.18905 49.920121 20.762243 51.758943 22.599703 53.309232 
C 24.437162 54.859522 26.514554 56.100748 28.75042 56.984241 
C 30.986286 57.867734 33.351015 58.381792 35.751882 58.506259 
C 38.152749 58.630726 40.557958 58.363954 42.873197 57.716402 
C 45.188437 57.06885 47.383043 56.049094 49.370963 54.697122 
C 51.358884 53.34515 53.11379 51.678866 54.56687 49.763607 
C 56.01995 47.848349 57.151959 45.709481 57.918509 43.430873 
C 58.68506 41.152265 59.076 38.764093 59.076 36.360001 
L 36.9 36.36 
L 47.138583 16.689047 
z
" style="fill: #081d58"/>
   </g>
   <g id="matplotlib.axis_1"/>
   <g id="matplotlib.axis_2"/>
   <g id="text_1">
    <g id="patch_7">
     <path d="M 25.005938 9.095625 
L 48.794063 9.095625 
L 48.794063 -10.438125 
L 25.005938 -10.438125 
z
" style="fill: #ffffff; opacity: 0.8"/>
    </g>
    <!-- 3B -->
    <g transform="translate(28.965938 2.64)scale(0.12 -0.12)">
     <defs>
      <path id="DejaVuSans-33" d="M 2597 2516 
Q 3050 2419 3304 2112 
Q 3559 1806 3559 1356 
Q 3559 666 3084 287 
Q 2609 -91 1734 -91 
Q 1441 -91 1130 -33 
Q 819 25 488 141 
L 488 750 
Q 750 597 1062 519 
Q 1375 441 1716 441 
Q 2309 441 2620 675 
Q 2931 909 2931 1356 
Q 2931 1769 2642 2001 
Q 2353 2234 1838 2234 
L 1294 2234 
L 1294 2753 
L 1863 2753 
Q 2328 2753 2575 2939 
Q 2822 3125 2822 3475 
Q 2822 3834 2567 4026 
Q 2313 4219 1838 4219 
Q 1578 4219 1281 4162 
Q 984 4106 628 3988 
L 628 4550 
Q 988 4650 1302 4700 
Q 1616 4750 1894 4750 
Q 2613 4750 3031 4423 
Q 3450 4097 3450 3541 
Q 3450 3153 3228 2886 
Q 3006 2619 2597 2516 
z
" transform="scale(0.015625)"/>
      <path id="DejaVuSans-42" d="M 1259 2228 
L 1259 519 
L 2272 519 
Q 2781 519 3026 730 
Q 3272 941 3272 1375 
Q 3272 1813 3026 2020 
Q 2781 2228 2272 2228 
L 1259 2228 
z
M 1259 4147 
L 1259 2741 
L 2194 2741 
Q 2656 2741 2882 2914 
Q 3109 3088 3109 3444 
Q 3109 3797 2882 3972 
Q 2656 4147 2194 4147 
L 1259 4147 
z
M 628 4666 
L 2241 4666 
Q 2963 4666 3353 4366 
Q 3744 4066 3744 3513 
Q 3744 3084 3544 2831 
Q 3344 2578 2956 2516 
Q 3422 2416 3680 2098 
Q 3938 1781 3938 1306 
Q 3938 681 3513 340 
Q 3088 0 2303 0 
L 628 0 
L 628 4666 
z
" transform="scale(0.015625)"/>
     </defs>
     <use xlink:href="#DejaVuSans-33"/>
     <use xlink:href="#DejaVuSans-42" x="63.623047"/>
    </g>
   </g>
  </g>
 </g>
</svg>
